<svg enable-background="new 0 0 898.9 610.4" viewBox="0 0 898.9 610.4" xmlns="http://www.w3.org/2000/svg"><path d="m838.1 450.2h-793c-15.6 0-24.7-17.6-15.7-30.4l22-31c3.6-5.1 9.4-8.1 15.7-8.1l771.1-.5c11.4 0 22 5.5 28.6 14.8 16.2 23.2-.4 55.2-28.7 55.2z" fill="#ebf1ff"/><g fill="none" stroke="#606060"><path d="m73.7 392.7-26.5 42.2" opacity=".3" stroke-miterlimit="10" stroke-width="2.9544"/><path d="m103.7 392.7-26.4 42.2" opacity=".3" stroke-miterlimit="10" stroke-width="2.9544"/><path d="m133.7 392.7-26.4 42.2" opacity=".3" stroke-miterlimit="10" stroke-width="2.9544"/><path d="m163.8 392.7-26.5 42.2" opacity=".3" stroke-miterlimit="10" stroke-width="2.9544"/><path d="m193.8 392.7-26.4 42.2" opacity=".3" stroke-miterlimit="10" stroke-width="2.9544"/><path d="m223.8 392.7-26.4 42.2" opacity=".3" stroke-miterlimit="10" stroke-width="2.9544"/><path d="m253.9 392.7-26.5 42.2" opacity=".3" stroke-miterlimit="10" stroke-width="2.9544"/><path d="m283.9 392.7-26.4 42.2" opacity=".3" stroke-miterlimit="10" stroke-width="2.9544"/><path d="m314 392.7-26.5 42.2" opacity=".3" stroke-miterlimit="10" stroke-width="2.9544"/><path d="m344 392.7-26.5 42.2" opacity=".3" stroke-miterlimit="10" stroke-width="2.9544"/><path d="m374 392.7-26.4 42.2" opacity=".3" stroke-miterlimit="10" stroke-width="2.9544"/><path d="m404.1 392.7-26.5 42.2" opacity=".3" stroke-miterlimit="10" stroke-width="2.9544"/><path d="m434.1 392.7-26.4 42.2" opacity=".3" stroke-miterlimit="10" stroke-width="2.9544"/><path d="m464.1 392.7-26.4 42.2" opacity=".3" stroke-miterlimit="10" stroke-width="2.9544"/><path d="m494.2 392.7-26.5 42.2" opacity=".3" stroke-miterlimit="10" stroke-width="2.9544"/><path d="m524.2 392.7-26.4 42.2" opacity=".3" stroke-miterlimit="10" stroke-width="2.9544"/><path d="m554.2 392.7-26.4 42.2" opacity=".3" stroke-miterlimit="10" stroke-width="2.9544"/><path d="m584.3 392.7-26.5 42.2" opacity=".3" stroke-miterlimit="10" stroke-width="2.9544"/><path d="m614.3 392.7-26.4 42.2" opacity=".3" stroke-miterlimit="10" stroke-width="2.9544"/><path d="m644.4 392.7-26.5 42.2" opacity=".3" stroke-miterlimit="10" stroke-width="2.9544"/><path d="m674.4 392.7-26.5 42.2" opacity=".3" stroke-miterlimit="10" stroke-width="2.9544"/><path d="m704.4 392.7-26.4 42.2" opacity=".3" stroke-miterlimit="10" stroke-width="2.9544"/><path d="m734.5 392.7-26.5 42.2" opacity=".3" stroke-miterlimit="10" stroke-width="2.9544"/><path d="m764.5 392.7-26.4 42.2" opacity=".3" stroke-miterlimit="10" stroke-width="2.9544"/><path d="m794.5 392.7-26.4 42.2" opacity=".3" stroke-miterlimit="10" stroke-width="2.9544"/><path d="m824.6 392.7-26.5 42.2" opacity=".3" stroke-miterlimit="10" stroke-width="2.9544"/><path d="m854.6 392.7-26.4 42.2" opacity=".3" stroke-miterlimit="10" stroke-width="2.9544"/></g><path d="m215.6 413.3c0-10.2 8.2-18.5 18.4-18.6 10.2 0 18.5 8.2 18.6 18.4 0 10.2-8.2 18.5-18.4 18.6-10.3 0-18.6-8.2-18.6-18.4z" fill="#fcd80e"/><path d="m151.9 398.9c-1.5 0-2.6-.7-3.3-1.9-.7-1.3-.9-2.8-.5-4.5.4-1.8 1.3-3.3 2.6-4.6s2.7-1.9 4.1-1.9h2.6l-2.9 12.9z" fill="#fcd80e"/><path d="m162.3 335.9c1.3-1.3 2.7-1.9 4.2-1.9h2.6l-2.9 13h-2.6c-1.5 0-2.6-.6-3.3-1.9s-.9-2.8-.5-4.6 1.2-3.3 2.5-4.6z" fill="#fcd80e"/><path d="m103.2 343.1.3 77.1 101.6-.2c3 0 5.4-2.4 5.4-5.5v-1.2c-.1-13 10.5-23.6 23.5-23.7h.8c3 0 5.4-2.4 5.4-5.5l-.2-41.4c-.1-17.5-14.3-31.6-31.8-31.5l-73.5.1c-17.5.1-31.6 14.3-31.5 31.8zm85.1 33.1c2.6 4.4 3.2 9.8 1.8 16.1s-4.4 11.6-9 16.1c-4.6 4.4-9.4 6.7-14.4 6.7h-18.3c-5 0-8.8-2.2-11.4-6.6s-3.2-9.7-1.8-16 4.4-11.7 9-16.1 9.4-6.7 14.4-6.7h15.7l-6.5 29.1h2.6c1.5 0 2.9-.6 4.1-1.9 1.3-1.3 2.2-2.8 2.5-4.5.4-1.8.2-3.4-.5-4.6-.7-1.3-1.8-1.9-3.3-1.9l3.6-16.3c5-.1 8.9 2.1 11.5 6.6zm-39.8-19.6c-2.6-4.4-3.2-9.8-1.8-16.1 1.4-6.2 4.4-11.6 9-16s9.4-6.6 14.4-6.6l18.3-.1c5 0 8.8 2.2 11.4 6.7 2.6 4.4 3.2 9.8 1.8 16-1.4 6.3-4.4 11.7-9 16.2-4.6 4.4-9.4 6.7-14.4 6.7l3.6-16.3c1.5 0 2.9-.7 4.2-2s2.2-2.8 2.6-4.6c.4-1.7.2-3.3-.5-4.5-.7-1.3-1.8-1.9-3.3-1.9h-2.6l-6.5 29.1-15.7.1c-5.1-.1-8.9-2.3-11.5-6.7z" fill="#fcd80e"/><path d="m98.6 408.9v11.3l-2.6.1-.1-11.2z" fill="#fcd80e"/><path d="m80.9 419.2v-8.7c0-2.2 1.8-4 4-4l2.3-.1c2.2 0 4 1.8 4 4v8.7c0 2.2-1.8 4-4 4l-2.3.1c-2.2 0-4-1.8-4-4z" fill="#fcd80e"/><path d="m397.4 387.7c0-7.2 5.8-13 13-13.1 7.2 0 13 5.8 13.1 13 0 7.2-5.8 13-13 13.1-7.3 0-13.1-5.8-13.1-13z" fill="#fcd80e"/><path d="m352.5 377.6c-1 0-1.8-.5-2.3-1.4s-.6-2-.4-3.2c.3-1.3.9-2.3 1.8-3.2s1.9-1.4 2.9-1.3h1.8l-2 9.1z" fill="#fcd80e"/><path d="m359.8 333.2c.9-.9 1.9-1.4 2.9-1.4h1.8l-2 9.1h-1.8c-1 0-1.8-.4-2.3-1.3s-.6-2-.3-3.2c.2-1.2.8-2.3 1.7-3.2z" fill="#fcd80e"/><path d="m318.1 338.2.2 54.3 71.6-.1c2.1 0 3.8-1.7 3.8-3.8v-.9c0-9.2 7.4-16.6 16.5-16.7h.5c2.1 0 3.8-1.7 3.8-3.8l-.1-29.2c0-12.3-10.1-22.3-22.4-22.2l-51.8.1c-12.2 0-22.1 10-22.1 22.3zm60 23.3c1.8 3.1 2.2 6.9 1.2 11.4-1 4.4-3.1 8.2-6.3 11.3s-6.6 4.7-10.2 4.7h-12.9c-3.5 0-6.2-1.5-8.1-4.6-1.8-3.1-2.3-6.9-1.3-11.3s3.1-8.2 6.3-11.3 6.6-4.7 10.2-4.7h11.1l-4.6 20.5h1.8c1 0 2-.4 2.9-1.4.9-.9 1.5-2 1.8-3.2.3-1.3.2-2.4-.3-3.3s-1.3-1.4-2.3-1.4l2.6-11.5c3.6.2 6.3 1.7 8.1 4.8zm-28-13.8c-1.8-3.1-2.3-6.9-1.3-11.3s3.1-8.2 6.3-11.3 6.6-4.7 10.2-4.7l12.9-.1c3.5 0 6.2 1.6 8.1 4.7 1.8 3.1 2.3 6.9 1.3 11.3-1 4.5-3.1 8.3-6.4 11.4-3.2 3.1-6.6 4.7-10.2 4.7l2.6-11.5c1 0 2-.5 2.9-1.4s1.5-2 1.8-3.3c.3-1.2.2-2.3-.4-3.2-.5-.9-1.3-1.4-2.3-1.3h-1.8l-4.6 20.5-11.1.1c-3.5.1-6.2-1.5-8-4.6z" fill="#fcd80e"/><path d="m314.9 384.6v8l-1.8.1v-8z" fill="#fcd80e"/><path d="m302.4 391.9v-6.1c0-1.5 1.2-2.8 2.8-2.8l1.6-.1c1.5 0 2.8 1.2 2.8 2.8v6.1c0 1.6-1.2 2.8-2.8 2.8l-1.6.1c-1.5 0-2.8-1.3-2.8-2.8z" fill="#fcd80e"/><path d="m803.1 379.6c0-9.2 7.4-16.8 16.7-16.8 9.2 0 16.8 7.4 16.8 16.7 0 9.2-7.4 16.8-16.7 16.8s-16.8-7.5-16.8-16.7z" fill="#fcd80e"/><path d="m745.4 366.6c-1.3 0-2.3-.6-3-1.7-.7-1.2-.8-2.5-.5-4.1.4-1.6 1.1-3 2.3-4.2s2.4-1.7 3.7-1.7h2.4l-2.6 11.7z" fill="#fcd80e"/><path d="m754.9 309.6c1.2-1.2 2.4-1.7 3.8-1.8h2.4l-2.6 11.7h-2.4c-1.3 0-2.3-.6-3-1.7-.7-1.2-.8-2.5-.4-4.2.2-1.5 1-2.9 2.2-4z" fill="#fcd80e"/><path d="m701.3 316 .3 69.8 92-.2c2.7 0 4.9-2.2 4.9-4.9v-1.1c-.1-11.8 9.5-21.4 21.2-21.4h.7c2.7 0 4.9-2.2 4.9-4.9l-.2-37.5c-.1-15.8-12.9-28.6-28.8-28.5l-66.6.1c-15.7-.1-28.5 12.8-28.4 28.6zm77 30c2.4 4 2.9 8.9 1.6 14.6s-4 10.5-8.1 14.6c-4.2 4-8.5 6.1-13.1 6.1h-16.6c-4.6 0-8-2-10.4-5.9-2.4-4-2.9-8.8-1.6-14.5s4-10.6 8.1-14.6 8.5-6 13.1-6.1h14.2l-5.9 26.3h2.4c1.3 0 2.6-.6 3.8-1.7 1.2-1.2 1.9-2.5 2.3-4.1s.2-3-.4-4.2-1.6-1.7-3-1.8l3.3-14.7c4.5 0 8 2 10.3 6zm-36-17.8c-2.4-4-2.9-8.8-1.6-14.6 1.3-5.7 4-10.5 8.1-14.5s8.5-6 13-6l16.6-.1c4.5 0 8 2 10.4 6s2.9 8.9 1.6 14.5c-1.3 5.7-4 10.6-8.2 14.6s-8.5 6-13.1 6l3.3-14.7c1.3 0 2.6-.6 3.8-1.8s2-2.6 2.3-4.2c.4-1.6.2-2.9-.5-4.1s-1.6-1.7-3-1.7h-2.4l-5.9 26.3-14.2.1c-4.4.2-7.8-1.8-10.2-5.8z" fill="#fcd80e"/><path d="m697.1 375.6.1 10.2-2.4.1-.1-10.1z" fill="#fcd80e"/><path d="m681.1 384.9v-7.9c0-2 1.6-3.6 3.6-3.6l2.1-.1c2 0 3.6 1.6 3.6 3.6v7.9c0 2-1.6 3.6-3.6 3.6l-2.1.1c-2 0-3.6-1.6-3.6-3.6z" fill="#fcd80e"/><path d="m510.4 385.9c-11.1.1-20 9.2-19.9 20.3s9.2 20 20.3 19.9 20-9.2 19.9-20.3-9.2-20-20.3-19.9z" fill="#fcd80e"/><path d="m539.6 319.5c0-1.6-.7-3.1-2.1-4.5s-3.1-2.3-5-2.7-3.5-.2-4.9.6-2.1 2-2.1 3.6l.1 2.9 14.1 3.1z" fill="#fcd80e"/><path d="m594.2 327.3c-1.4-1.4-3-2.3-4.9-2.7-2-.4-3.6-.2-5 .6s-2.1 2-2 3.6v2.8l14.1 3.1v-2.8c-.1-1.7-.8-3.2-2.2-4.6z" fill="#fcd80e"/><path d="m621.4 377.1-.6-80.1c-.2-19-15.8-34.3-34.8-34.1l-84 .9 1 110.7c0 3.3 2.7 5.9 6 5.8h1.3c14.2-.2 25.8 11.2 25.9 25.4v.8c0 3.3 2.7 5.9 6 5.9l45.1-.5c19.1-.2 34.3-15.8 34.1-34.8zm-70.8-21.3c-4.8 2.9-10.7 3.5-17.6 2-6.8-1.5-12.7-4.7-17.6-9.7s-7.3-10.2-7.4-15.7l-.1-19.9c-.1-5.5 2.3-9.6 7.1-12.5s10.6-3.6 17.4-2.1c6.9 1.5 12.7 4.7 17.6 9.7s7.3 10.2 7.4 15.7l.1 17.1-31.7-6.9v2.8c0 1.6.7 3.1 2.1 4.5s3.1 2.3 5 2.7c2 .4 3.7.2 5-.6 1.4-.8 2.1-2 2.1-3.6l17.7 3.8c0 5.7-2.3 9.9-7.1 12.7zm56.4 12.3c-4.8 2.9-10.6 3.6-17.5 2.1s-12.8-4.7-17.7-9.7-7.3-10.2-7.3-15.6l17.7 3.8c0 1.6.7 3.1 2.2 4.5 1.4 1.4 3.1 2.3 5.1 2.8 1.9.4 3.5.2 4.9-.6s2.1-2 2-3.6v-2.8l-31.7-6.9-.2-17.1c0-5.5 2.4-9.6 7.1-12.5 4.8-2.9 10.6-3.6 17.5-2.1 6.8 1.5 12.6 4.7 17.5 9.7s7.3 10.2 7.3 15.6l.2 20c.1 5.4-2.3 9.5-7.1 12.4z" fill="#fcd80e"/><path d="m501.6 195.1h12.2v63.4h-12.2z" fill="#fcd80e" transform="matrix(.9999 -.01059017 .01059017 .9999 -2.3735 5.3899)"/><path d="m512.1 189.8c2.4 0 4.3-2 4.3-4.4l-.2-20.9c0-2.4-2-4.3-4.4-4.3l-9.5.1c-2.4 0-4.3 2-4.3 4.4l.2 20.9c0 2.4 2 4.3 4.4 4.3z" fill="#fcd80e"/><path d="m-301.2-3153.6h-1610.6c-31.7 0-50.2-35.8-31.9-61.7l44.6-62.9c7.3-10.3 19.2-16.5 31.8-16.5l1566-1c23.1 0 44.8 11.2 58.1 30.1 33.2 47.2-.4 112-58 112z" fill="#ebf1ff"/><path d="m-1853.6-3270.3-53.7 85.7" fill="none" opacity=".3" stroke="#606060" stroke-miterlimit="10" stroke-width="6"/><path d="m-1792.6-3270.3-53.7 85.7" fill="none" opacity=".3" stroke="#606060" stroke-miterlimit="10" stroke-width="6"/><path d="m-1731.6-3270.3-53.7 85.7" fill="none" opacity=".3" stroke="#606060" stroke-miterlimit="10" stroke-width="6"/><path d="m-1670.6-3270.3-53.7 85.7" fill="none" opacity=".3" stroke="#606060" stroke-miterlimit="10" stroke-width="6"/><path d="m-1609.6-3270.3-53.7 85.7" fill="none" opacity=".3" stroke="#606060" stroke-miterlimit="10" stroke-width="6"/><path d="m-1548.6-3270.3-53.7 85.7" fill="none" opacity=".3" stroke="#606060" stroke-miterlimit="10" stroke-width="6"/><path d="m-1487.6-3270.3-53.7 85.7" fill="none" opacity=".3" stroke="#606060" stroke-miterlimit="10" stroke-width="6"/><path d="m-1426.6-3270.3-53.7 85.7" fill="none" opacity=".3" stroke="#606060" stroke-miterlimit="10" stroke-width="6"/><path d="m-1365.6-3270.3-53.7 85.7" fill="none" opacity=".3" stroke="#606060" stroke-miterlimit="10" stroke-width="6"/><path d="m-1304.6-3270.3-53.7 85.7" fill="none" opacity=".3" stroke="#606060" stroke-miterlimit="10" stroke-width="6"/><path d="m-1243.6-3270.3-53.7 85.7" fill="none" opacity=".3" stroke="#606060" stroke-miterlimit="10" stroke-width="6"/><path d="m-1182.6-3270.3-53.7 85.7" fill="none" opacity=".3" stroke="#606060" stroke-miterlimit="10" stroke-width="6"/><path d="m-1121.6-3270.3-53.7 85.7" fill="none" opacity=".3" stroke="#606060" stroke-miterlimit="10" stroke-width="6"/><path d="m-1060.6-3270.3-53.7 85.7" fill="none" opacity=".3" stroke="#606060" stroke-miterlimit="10" stroke-width="6"/><path d="m-999.6-3270.3-53.7 85.7" fill="none" opacity=".3" stroke="#606060" stroke-miterlimit="10" stroke-width="6"/><path d="m-938.6-3270.3-53.7 85.7" fill="none" opacity=".3" stroke="#606060" stroke-miterlimit="10" stroke-width="6"/><path d="m-877.6-3270.3-53.7 85.7" fill="none" opacity=".3" stroke="#606060" stroke-miterlimit="10" stroke-width="6"/><path d="m-816.6-3270.3-53.7 85.7" fill="none" opacity=".3" stroke="#606060" stroke-miterlimit="10" stroke-width="6"/><path d="m-755.6-3270.3-53.7 85.7" fill="none" opacity=".3" stroke="#606060" stroke-miterlimit="10" stroke-width="6"/><path d="m-694.6-3270.3-53.7 85.7" fill="none" opacity=".3" stroke="#606060" stroke-miterlimit="10" stroke-width="6"/><path d="m-633.6-3270.3-53.7 85.7" fill="none" opacity=".3" stroke="#606060" stroke-miterlimit="10" stroke-width="6"/><path d="m-572.6-3270.3-53.7 85.7" fill="none" opacity=".3" stroke="#606060" stroke-miterlimit="10" stroke-width="6"/><path d="m-511.6-3270.3-53.7 85.7" fill="none" opacity=".3" stroke="#606060" stroke-miterlimit="10" stroke-width="6"/><path d="m-450.6-3270.3-53.7 85.7" fill="none" opacity=".3" stroke="#606060" stroke-miterlimit="10" stroke-width="6"/><path d="m-389.6-3270.3-53.7 85.7" fill="none" opacity=".3" stroke="#606060" stroke-miterlimit="10" stroke-width="6"/><path d="m-328.6-3270.3-53.7 85.7" fill="none" opacity=".3" stroke="#606060" stroke-miterlimit="10" stroke-width="6"/><path d="m-267.6-3270.3-53.7 85.7" fill="none" opacity=".3" stroke="#606060" stroke-miterlimit="10" stroke-width="6"/><path d="m-1565.4-3228.5c-.1-20.7 16.7-37.6 37.4-37.7s37.6 16.6 37.7 37.4c.1 20.7-16.7 37.6-37.4 37.7-20.8.1-37.6-16.7-37.7-37.4z" fill="#fcd80e"/><path d="m-1694.7-3257.6c-3 0-5.2-1.3-6.7-3.9s-1.8-5.6-1-9.1c.8-3.6 2.5-6.8 5.2-9.4 2.6-2.6 5.4-3.9 8.4-3.9l5.3-.1-5.9 26.3z" fill="#fcd80e"/><path d="m-1673.6-3385.5c2.6-2.6 5.4-3.9 8.4-3.9h5.3l-5.9 26.3h-5.3c-3 0-5.2-1.3-6.7-3.9s-1.8-5.7-1-9.4c.9-3.5 2.6-6.5 5.2-9.1z" fill="#fcd80e"/><path d="m-1793.7-3371.1.6 156.6 206.4-.4c6.1 0 11-5 11-11.1v-2.5c-.1-26.4 21.2-47.9 47.7-48h1.5c6.1 0 11-5 11-11.1l-.3-84.1c-.1-35.5-29-64.2-64.5-64l-149.3.1c-35.6.1-64.3 29-64.1 64.5zm172.8 67.3c5.3 9 6.5 19.9 3.6 32.8-2.9 12.7-8.9 23.6-18.3 32.6-9.3 9-19.1 13.6-29.3 13.6h-37.2c-10.2.1-18-4.4-23.3-13.3s-6.5-19.8-3.7-32.4c2.9-12.8 9-23.7 18.3-32.7s19.1-13.5 29.3-13.6l31.9.1-13.2 59.1 5.3-.1c3 0 5.8-1.3 8.4-3.9s4.4-5.7 5.2-9.2c.8-3.7.5-6.8-1-9.4s-3.7-3.9-6.7-3.9l7.4-33c10.3-.2 18 4.3 23.3 13.3zm-80.8-39.8c-5.3-9-6.5-19.8-3.6-32.7 2.8-12.7 8.9-23.5 18.2-32.5s19.1-13.5 29.3-13.4l37.2-.2c10.2 0 17.9 4.5 23.2 13.5s6.5 19.9 3.6 32.6c-2.9 12.9-9 23.8-18.3 32.8s-19.1 13.5-29.3 13.5l7.4-33c3 0 5.8-1.4 8.4-4s4.4-5.8 5.2-9.4c.8-3.5.4-6.6-1-9.2-1.5-2.6-3.7-3.9-6.7-3.9h-5.3l-13.2 59.1-31.9.2c-10.1 0-17.9-4.5-23.2-13.4z" fill="#fcd80e"/><path d="m-1803-3237.3v22.8l-5.3.4-.1-22.9z" fill="#fcd80e"/><path d="m-1839-3216.4-.1-17.7c0-4.5 3.6-8.1 8-8.1l4.7-.2c4.5 0 8.1 3.6 8.1 8l.1 17.7c0 4.5-3.6 8.1-8 8.1l-4.7.2c-4.5 0-8.1-3.6-8.1-8z" fill="#fcd80e"/><path d="m-1196.2-3280.4c-.1-14.6 11.7-26.5 26.3-26.6s26.5 11.7 26.6 26.3-11.7 26.5-26.3 26.6c-14.7.1-26.6-11.7-26.6-26.3z" fill="#fcd80e"/><path d="m-1287.3-3300.9c-2.1 0-3.7-.9-4.7-2.8-1-1.8-1.3-4-.7-6.4.6-2.6 1.8-4.8 3.7-6.6s3.8-2.7 5.9-2.7h3.8l-4.2 18.5z" fill="#fcd80e"/><path d="m-1272.4-3391.1c1.9-1.8 3.8-2.8 5.9-2.8h3.7l-4.2 18.5h-3.7c-2.1 0-3.7-.9-4.7-2.7s-1.3-4-.7-6.6c.6-2.4 1.8-4.6 3.7-6.4z" fill="#fcd80e"/><path d="m-1357.1-3380.9.4 110.3 145.5-.3c4.3 0 7.8-3.5 7.7-7.8v-1.8c-.1-18.6 15-33.8 33.6-33.8h1.1c4.3 0 7.8-3.5 7.7-7.8l-.2-59.3c-.1-25-20.5-45.2-45.5-45.1l-105.2.1c-25 .1-45.2 20.5-45.1 45.5zm121.8 47.4c3.7 6.3 4.6 14 2.5 23.1-2 9-6.3 16.6-12.9 23s-13.4 9.6-20.7 9.6h-26.2c-7.2 0-12.7-3.1-16.4-9.4s-4.6-13.9-2.6-22.9 6.3-16.7 12.9-23 13.4-9.5 20.6-9.6l22.4.1-9.3 41.6h3.7c2.1 0 4.1-.9 5.9-2.8 1.9-1.8 3.1-4 3.6-6.5.6-2.6.3-4.8-.7-6.6s-2.6-2.8-4.7-2.8l5.2-23.3c7.5 0 12.9 3.1 16.7 9.5zm-56.9-28.1c-3.7-6.3-4.6-14-2.6-23 2-8.9 6.3-16.6 12.8-22.9 6.6-6.3 13.4-9.5 20.6-9.5l26.2-.1c7.2 0 12.6 3.2 16.4 9.5 3.7 6.3 4.6 14 2.6 23-2 9.1-6.3 16.8-12.9 23.1-6.6 6.4-13.4 9.5-20.6 9.5l5.2-23.3c2.1 0 4.1-1 5.9-2.8 1.9-1.8 3.1-4.1 3.7-6.6s.3-4.7-.7-6.5-2.6-2.7-4.7-2.7h-3.7l-9.3 41.6-22.5.2c-7.3 0-12.7-3.2-16.4-9.5z" fill="#fcd80e"/><path d="m-1363.7-3286.6.1 16-3.8.3-.1-16.1z" fill="#fcd80e"/><path d="m-1389-3271.9v-12.5c0-3.1 2.5-5.7 5.7-5.7l3.3-.1c3.1 0 5.7 2.5 5.7 5.7v12.5c0 3.1-2.5 5.7-5.7 5.7l-3.3.1c-3.2-.1-5.7-2.6-5.7-5.7z" fill="#fcd80e"/><path d="m-372.3-3296.9c-.1-18.8 15.1-34 33.9-34.1s34 15.1 34.1 33.8c.1 18.8-15.1 34.1-33.8 34.1-18.9.1-34.1-15.1-34.2-33.8z" fill="#fcd80e"/><path d="m-489.4-3323.3c-2.7 0-4.7-1.2-6-3.5s-1.6-5.1-.9-8.3c.7-3.3 2.3-6.1 4.7-8.5s4.9-3.5 7.6-3.5h4.8l-5.3 23.8z" fill="#fcd80e"/><path d="m-470.2-3439.1c2.4-2.3 4.9-3.5 7.6-3.6h4.8l-5.3 23.8h-4.8c-2.7 0-4.7-1.1-6-3.5-1.3-2.3-1.6-5.2-.9-8.5.6-3.1 2.2-5.9 4.6-8.2z" fill="#fcd80e"/><path d="m-579-3426 .6 141.8 186.9-.3c5.5 0 10-4.5 9.9-10v-2.3c-.1-23.9 19.2-43.4 43.1-43.5h1.4c5.5 0 10-4.5 10-10l-.3-76.2c-.1-32.1-26.3-58.1-58.4-58l-135.2.1c-32.2.1-58.2 26.2-58 58.4zm156.5 60.8c4.8 8.1 5.9 18 3.3 29.7-2.6 11.5-8.1 21.4-16.5 29.6s-17.3 12.3-26.5 12.4h-33.7c-9.2.1-16.3-4-21.1-12.1s-5.9-17.9-3.3-29.4c2.6-11.6 8.1-21.5 16.6-29.6 8.4-8.1 17.3-12.2 26.5-12.3l28.8.1-12 53.5h4.8c2.7 0 5.2-1.2 7.6-3.5 2.4-2.4 4-5.1 4.7-8.3.7-3.3.4-6.2-.9-8.5-1.3-2.4-3.3-3.5-6-3.6l6.7-29.9c9.2-.3 16.2 3.8 21 11.9zm-73.2-36c-4.8-8.1-5.9-18-3.3-29.6 2.6-11.5 8.1-21.3 16.5-29.4s17.3-12.2 26.5-12.2l33.7-.2c9.2 0 16.2 4.1 21 12.2s5.9 18 3.3 29.5c-2.6 11.6-8.1 21.6-16.6 29.7-8.4 8.2-17.3 12.2-26.5 12.2l6.7-29.9c2.7 0 5.3-1.2 7.6-3.6 2.4-2.4 4-5.2 4.7-8.5.7-3.2.4-6-.9-8.3-1.3-2.4-3.3-3.5-6-3.5h-4.8l-12 53.5-28.9.2c-9.2.1-16.2-4-21-12.1z" fill="#fcd80e"/><path d="m-587.5-3304.9.1 20.6-4.8.3-.1-20.6z" fill="#fcd80e"/><path d="m-620-3286-.1-16c0-4 3.2-7.3 7.3-7.3l4.3-.2c4 0 7.3 3.2 7.3 7.3l.1 16c0 4-3.2 7.3-7.3 7.3l-4.3.2c-4 0-7.3-3.3-7.3-7.3z" fill="#fcd80e"/><path d="m-966.8-3284.1c-22.6.2-40.7 18.7-40.4 41.3.2 22.6 18.7 40.7 41.3 40.4 22.6-.2 40.7-18.7 40.4-41.3-.2-22.6-18.7-40.7-41.3-40.4z" fill="#fcd80e"/><path d="m-907.3-3418.9c0-3.2-1.4-6.3-4.3-9.1-2.8-2.9-6.3-4.7-10.2-5.6-3.8-.8-7.1-.4-10 1.2-2.8 1.6-4.2 4.1-4.2 7.3l.1 5.8 28.7 6.2z" fill="#fcd80e"/><path d="m-796.6-3403.1c-2.9-2.8-6.2-4.7-10-5.5-4-.9-7.4-.5-10.2 1.1s-4.2 4.1-4.2 7.3v5.8l28.7 6.2v-5.8c0-3.2-1.4-6.2-4.3-9.1z" fill="#fcd80e"/><path d="m-741.2-3302-1.3-162.6c-.4-38.6-32.1-69.7-70.7-69.2l-170.5 1.8 1.9 224.8c.1 6.6 5.5 11.9 12.1 11.9h2.7c28.8-.3 52.4 22.8 52.7 51.5v1.7c.1 6.6 5.5 12 12.1 11.9l91.6-1c38.8-.4 69.8-32.1 69.4-70.8zm-143.9-43.1c-9.8 5.8-21.6 7.2-35.7 4.2-13.9-3-25.8-9.6-35.7-19.6-9.9-10.1-14.9-20.7-15.1-31.8l-.2-40.5c-.2-11.1 4.6-19.6 14.3-25.4s21.5-7.2 35.3-4.2c14 3 25.9 9.6 35.7 19.7 9.9 10.1 14.9 20.7 15 31.8l.1 34.7-64.4-14 .1 5.8c0 3.2 1.4 6.3 4.3 9.1 2.9 2.9 6.2 4.7 10.1 5.6 4 .9 7.4.5 10.2-1.1s4.2-4 4.2-7.3l36 7.8c.3 10.9-4.4 19.4-14.2 25.2zm114.6 24.9c-9.7 5.8-21.6 7.2-35.5 4.2-14-3-26-9.6-35.9-19.7s-14.9-20.7-14.9-31.8l36 7.8c.1 3.3 1.5 6.3 4.4 9.2s6.3 4.7 10.3 5.6c3.9.8 7.2.4 10-1.2s4.2-4.1 4.2-7.3v-5.8l-64.4-14-.5-34.8c-.1-11.1 4.8-19.6 14.5-25.4s21.6-7.2 35.5-4.2c13.8 3 25.7 9.5 35.5 19.6 9.9 10.1 14.8 20.7 14.9 31.8l.5 40.5c0 11.2-4.8 19.7-14.6 25.5z" fill="#fcd80e"/><path d="m-984.5-3671.5h24.9v128.7h-24.9z" fill="#fcd80e" transform="matrix(.9999 -.01059017 .01059017 .9999 38.1459 -10.4964)"/><path d="m-963.2-3682.3c4.9 0 8.8-4 8.7-8.9l-.5-42.5c-.1-4.9-4-8.7-8.9-8.7l-19.3.2c-4.9 0-8.8 4-8.7 8.9l.5 42.5c0 4.9 4 8.8 8.9 8.7z" fill="#fcd80e"/></svg>