<svg enable-background="new 0 0 150 150" viewBox="0 0 150 150" xmlns="http://www.w3.org/2000/svg"><path d="m112.9 28.8c-10.1-10.1-23.6-15.7-37.9-15.7s-27.8 5.6-37.9 15.7-15.6 23.6-15.6 37.9 5.6 27.8 15.7 37.9l28.4 28.4c2.5 2.5 5.9 3.9 9.4 3.9 3.6 0 6.9-1.4 9.4-3.9l28.5-28.5c10.1-10.1 15.6-23.5 15.6-37.8s-5.5-27.8-15.6-37.9zm-37.9 57c-10.6 0-19.2-8.6-19.2-19.2s8.6-19.2 19.2-19.2 19.2 8.6 19.2 19.2-8.6 19.2-19.2 19.2zm0 0" fill="none" stroke="#434343" stroke-linecap="round" stroke-linejoin="round" stroke-width="5.0235"/></svg>