<svg enable-background="new 0 0 892.7 722" viewBox="0 0 892.7 722" xmlns="http://www.w3.org/2000/svg"><path d="m861.9 693.9h-783c-14.9 0-27.1-12.1-27.1-27.1 0-14.9 12.1-27.1 27.1-27.1h783c14.9 0 27.1 12.1 27.1 27.1-.1 15-12.2 27.1-27.1 27.1z" fill="#bce3e1"/><path d="m243.9 227.5c-3.2-9.9-12.5-17.2-23.5-17.2-5.6 0-10.7 1.9-14.9 5-1.9-1.7-4.1-3-6.5-3.9-1.4-13.8-13-24.5-27.2-24.5-1.1 0-2.2.1-3.3.2-7.2-9.9-18.8-16.3-31.9-16.3-4.2 0-8.2.7-12 1.9-6.3-5-14.2-8-22.9-8-15.2 0-28.2 9.2-33.8 22.3-.4 0-.8-.1-1.1-.1-17.9 0-32.6 14.1-33.4 31.9-1.3-.2-2.6-.3-3.9-.3-14.2 0-25.6 11.5-25.6 25.6 0 14.2 11.5 25.6 25.6 25.6 3.1 0 6.1-.6 8.9-1.6 1.5 18.1 16.7 32.4 35.2 32.4 12 0 22.6-6 29-15.2 4.8 2.2 10.1 3.5 15.7 3.5 1.5 0 2.9-.1 4.3-.3 5.7 7.7 14.9 12.7 25.2 12.7 12.7 0 23.7-7.6 28.6-18.4 5.8 3.8 12.7 6.1 20.1 6.1 10.7 0 20.2-4.6 26.9-11.9 2.7.9 5.7 1.5 8.7 1.5 14.8 0 26.8-12 26.8-26.8 0-10.8-6.1-19.9-15-24.2z" fill="#fff"/><path d="m704.3 660.2-470.8-2.2c-12.8-.1-23.2-10.5-23.1-23.3l2.7-583.4c.1-12.8 10.5-23.2 23.3-23.1l470.8 2.2c12.8.1 23.2 10.5 23.1 23.3l-2.7 583.3c0 12.9-10.5 23.2-23.3 23.2z" fill="#a7bfeb"/><path d="m229 56.9h472.8v588.4h-472.8z" fill="#7797c4" transform="matrix(1 .00466333 -.00466333 1 1.6424 -2.1663)"/><path d="m238.9 49.9h462.9v588.4h-462.9z" fill="#fff" transform="matrix(1 .00466339 -.00466339 1 1.6099 -2.1897)"/><path d="m653.6 227.2h-65.3v-65.3h65.3zm-61.4-3.8h57.7v-57.7h-57.7z" fill="#cedcdc"/><path d="m291.2 161.9h135.7v12.7h-135.7z" fill="#a7bfeb"/><g fill="#cedcdc"><path d="m291.2 188.2h259.3v4.3h-259.3z"/><path d="m291.2 205.5h259.3v4.3h-259.3z"/><path d="m291.2 222.9h259.3v4.3h-259.3z"/><path d="m653.6 355.4h-65.3v-65.3h65.3zm-61.4-3.8h57.7v-57.7h-57.7z"/></g><path d="m291.2 290.1h135.7v12.7h-135.7z" fill="#a7bfeb"/><path d="m291.2 316.4h259.3v4.3h-259.3z" fill="#cedcdc"/><path d="m291.2 333.8h259.3v4.3h-259.3z" fill="#cedcdc"/><path d="m291.2 351.1h259.3v4.3h-259.3z" fill="#cedcdc"/><path d="m653.6 483.7h-65.3v-65.3h65.3zm-61.4-3.8h57.7v-57.7h-57.7z" fill="#cedcdc"/><path d="m291.2 418.4h135.7v12.7h-135.7z" fill="#a7bfeb"/><path d="m291.2 444.7h259.3v4.3h-259.3z" fill="#cedcdc"/><path d="m291.2 462h259.3v4.3h-259.3z" fill="#cedcdc"/><path d="m291.2 479.4h259.3v4.3h-259.3z" fill="#cedcdc"/><path d="m586 177.6s21.3 12.6 33.6 37c0 0 28.6-45.7 60.2-56.9l-8.2-10.9s-27.2 16.4-50.6 57.1c0 0-9.4-23.2-26-37z" fill="#006ec5"/><path d="m601 303.4s21.3 12.6 33.6 37c0 0 28.6-45.7 60.2-56.9l-8.2-10.9s-27.2 16.4-50.6 57.1c0 0-9.4-23.2-26-37z" fill="#006ec5"/><path d="m601 435s21.3 12.6 33.6 37c0 0 28.6-45.7 60.2-56.9l-8.2-10.9s-27.2 16.4-50.6 57.1c0 0-9.4-23.2-26-37z" fill="#006ec5"/><path d="m696.2 374.5s-26.6-39.7-40.9-49.4c0 0-7 7.7-9.4 13.7 0 0 26.6 33 32.6 45z" fill="#009ff0"/><path d="m734.7 655.2s-2.4 6.7-9.7 13.4c-7.3 6.8-11.6 12.4-8.2 13.8s30.3-7.4 36.6-10 11.2-2.9-.7-22.1z" fill="#009ff0"/><path d="m704.3 512.4s-11 80 30.4 142.8l17.9-4.9s-30.1-73.9-22.6-117.2l10.8-1.7s20.1 54.4 102.9 54.4v-19.7s-81.9 1.5-81-73.8z" fill="#002b74"/><path d="m741.1 653.4c-39-53-23.3-143.1-23.3-143.1v-2.6l-13.6 4.7s-11 80 30.4 142.8z" fill="#001736"/><path d="m843.7 576.9c-60.5 5.8-93.1-43.5-93.1-43.5 5-7.3 3.5-19.7 3.5-19.7-2.8 8.3-24.2 19.4-24.2 19.4l10.8-1.7s20.1 54.4 102.9 54.4v-8.9z" fill="#001736"/><path d="m698.1 428.4s-21.4 24.1-76.4 46l6.2 12.5s47.3-6.3 70.2-32c0 0-.3 37.2 6.2 57.4 0 0 50.5-5.7 58.4-20 0 0-21.5-58.6-43.7-84.3z" fill="#009ff0"/><circle cx="694.9" cy="397.4" fill="#ffca9b" r="27.2"/><path d="m843.7 585.9s7.5 4.1 14.9 10.1 13.2 14.9 14.8 9.5-9-32.8-10.9-39.3c-1.2-4.2-18.8 0-18.8 0z" fill="#009ff0"/><path d="m668.3 391.3s2.1 6.1 14.3 6.1 20.3 2.6 21.4 8.7c0 0 3.8-5.4 6.2-5.1s2.2 10.3-2.8 11.7l8.2 3.5s11.8-14.9 6.5-32.7c-3.9-13.2-14-13.2-14-13.2s-11.4-8.3-22.1-4.3-20.5 18.2-24 11.2c-.1-.2-1.5 13.9 6.3 14.1z" fill="#002b74"/><path d="m621.7 474.5s-11.3-7.1-16.1-5.3 8 8.4 8 8.4-13.3 9.8-19.8 13.2 16.1 9.8 34-3.8z" fill="#ffca9b"/><path d="m645.9 338.9s-16.7 1-18.6-1.6c-1.9-2.7 6.3-4.6 12.3-4.6 0 0 5.7-23.8 10.7-25.6 10.1-3.7 4.9 18.2 4.9 18.2s-7.9 10.2-9.3 13.6z" fill="#ffca9b"/><path d="m668.3 391.3s2.1 6.1 14.3 6.1 20.3 2.6 21.4 8.7c0 0 3.8-5.4 6.2-5.1s2.2 10.3-2.8 11.7l8.2 3.5s3.7-4.7 6-12c-.3-4.2-.7-8.3-1.4-10.4-1.9-5.6-6.3-3.3-13-3.3s-6.3-9.7-6.3-9.7-8.2 8.5-19.3 8.2c-8.7-.3-15.7-7.3-18.5-10.4-.5-.3-.9-.8-1.2-1.5 0-.1-1.4 14 6.4 14.2z" fill="#001736"/><path d="m705.4 438.1s-3 3.9-30.4 22.1c-16.2 10.7-36.3 17.1-50.2 20.4l3.1 6.3s47.3-6.3 70.2-32c0 0-.3 37.2 6.2 57.4 0 0 5.7-.6 13.6-2-12.2-31.6-12.5-72.2-12.5-72.2z" fill="#006ec5"/><path d="m741.7 664.2c1.7-2.1.9-6.3-.6-10.7l-6.5 1.7s-2.4 6.7-9.7 13.4c-7.3 6.8-11.6 12.4-8.2 13.8 1 .4 3.9 0 7.8-1 4.6-9.4 13.8-13 17.2-17.2z" fill="#006ec5"/><path d="m873.4 605.5c.5-1.6-.1-5.1-1.3-9.5-6.4-5.6-14.8-12.9-18-15.4-1.6-1.3-5.6-2.6-10.4-3.7v9s7.5 4.1 14.9 10.1 13.2 14.9 14.8 9.5z" fill="#006ec5"/></svg>