<svg enable-background="new 0 0 513 806" viewBox="0 0 513 806" xmlns="http://www.w3.org/2000/svg"><path d="m430.6 218.5c-1.8-.1-3.6.1-5.3.6-2.1.7-3.7 2-5.6 2.9-4.5 2.1-9.4 0-13.4-2.2-3.7-2-7.4-4.3-11.7-4.5-2.1-.1-4 .5-6.1.9-3.3.7-6 .3-9-1.2-4.8-2.4-9-5.7-14.4-6.5-4.4-.6-8.8.4-12.1 3.4-.7.6.3 1.7 1 1 4-3.6 9.5-3.8 14.4-2.1 4.4 1.5 7.9 4.6 12.2 6.3s7.7.3 12.1-.2c4.6-.5 8.7 1.9 12.6 4.1 3.1 1.7 6.6 3.4 10.2 3.5 4.1.1 6.6-2.7 10.2-3.9 4.1-1.3 8.5-.3 12.4 1 4.5 1.5 8.8 3.5 12.8 5.9 9.1 5.5-17.4-6.2-12 3 .5.8 1.7.1 1.3-.7-4.7-8.1 22.9 4.3 15.2-1.1-7-5-16.1-9.8-24.8-10.2z"/><ellipse cx="314.5" cy="767.9" fill="#c4cfd1" opacity=".3" rx="169.5" ry="20.4"/><path d="m344.8 664.9c-31.8-5-61.6 16.7-66.6 48.5s16.7 61.6 48.5 66.6 61.6-16.7 66.6-48.5c5.1-31.8-16.7-61.6-48.5-66.6z" fill="#fcd80e"/><path d="m330.6 459.6c.7-4.6-.8-8.3-4.4-11.1-3.6-2.9-8.2-4.1-13.8-3.7-5.8.4-11 2.3-15.6 5.8-4.6 3.4-7.3 7.4-7.9 12l-1.3 8.2 41.7-2.9z" fill="#fcd80e"/><path d="m129.2 462c-4.6 3.4-7.3 7.4-8 12l-1.2 8.1 41.8-2.9 1.2-8.1c.7-4.6-.7-8.3-4.4-11.2-3.6-2.9-8.3-4.1-14.1-3.7-5.6.5-10.7 2.4-15.3 5.8z" fill="#fcd80e"/><path d="m65.6 364-35.3 229.2c-8.5 54.4 28.7 105.5 83.1 114.1l129.1 20.3c9.4 1.5 18.1-4.9 19.6-14.3l.4-2.4c6.4-40.5 44.4-68.2 84.9-61.9l3.8.6c9.4 1.5 18.1-4.9 19.6-14.2l49.1-316.8-240.2-37.7c-54.5-8.5-105.6 28.7-114.1 83.1zm161.5 159.2 52.4-3.6c-.7 4.6.8 8.3 4.5 11.2 3.6 2.9 8.4 4.1 14.2 3.7 5.6-.4 10.7-2.3 15.4-5.8 4.7-3.4 7.3-7.4 8-12l1.3-8.1-93.8 6.5 7.3-48.9c2.5-15.7 11.7-29.6 27.7-41.8s34.2-19 54.5-20.4c20.1-1.4 36.4 3 48.9 13.3 12.5 10.2 17.5 23.2 15 38.8l-8.7 57.1c-2.5 15.7-11.8 29.6-27.8 41.8s-34.2 19-54.4 20.4c-20.4 1.4-36.9-3-49.5-13.2-12.5-10.4-17.5-23.3-15-39zm-11.8-55.7-7.9 48.9-93.8 6.5-1.2 8.1c-.7 4.6.7 8.3 4.4 11.2s8.3 4.1 13.9 3.7c5.8-.4 11-2.3 15.7-5.8 4.6-3.4 7.3-7.4 8.1-12l52.4-3.6c-2.4 15.7-11.6 29.6-27.6 41.8s-34.3 19-54.7 20.4c-20.2 1.4-36.6-3-49.2-13.2s-17.7-23.2-15.3-38.8l9.1-57.1c2.4-15.7 11.5-29.6 27.5-41.8s34-19 54.2-20.3c20.3-1.4 36.8 3 49.3 13.2 12.4 10.2 17.5 23.2 15.1 38.8z" fill="#fcd80e"/><path d="m327.2 192.5h183.4v35.4h-183.4z" fill="#fcd80e" transform="matrix(.155 -.9879 .9879 .155 146.2521 591.4523)"/><path d="m462.4 22.1-27.1-4.3c-6.9-1.1-13.3 3.6-14.3 10.4l-9.4 59.8c-1.1 6.8 3.6 13.3 10.4 14.3l27.2 4.3c6.9 1.1 13.3-3.6 14.3-10.4l9.4-59.8c1-6.8-3.7-13.2-10.5-14.3z" fill="#fcd80e"/><path d="m294.7 216.2-73.1 130.7c0 .1-.1.1-.1.2 0 0-.6 1.7 6.8 5.8l74.8 41.9c5 2.8 6.4.8 6.4.8l72.9-130.3c2.9-5.2-6-36.7-11.3-39.7-1-.6-3-1.7-5.5-3.2-10.4-6.2-32.1-19.1-36.5-18.9-5.8.2-30.3 5.4-34.4 12.7z" fill="#041e4a"/><path d="m349.1 227.7c-1.4 2.4-4.5 3.3-6.9 1.9s-3.3-4.5-1.9-6.9 4.5-3.3 6.9-1.9 3.3 4.5 1.9 6.9zm-7.8-4.3c-1 1.9-.4 4.2 1.5 5.3 1.9 1 4.2.4 5.3-1.5 1-1.9.4-4.2-1.5-5.3s-4.2-.4-5.3 1.5z"/><path d="m312.5 206.7c0 .1 0 .1 0 0-.2 0-.3 0-.4.1-7.2 3.6-10.5.5-15.5 6.7-5.7 7-12.6 23.3-16.7 31.2-9 17.5-18.8 34.3-29.1 51-5.1 8.3-10.3 16.5-15.2 24.9-2.3 3.9-4.6 7.8-6.8 11.8-2.1 3.8-4.5 7.3-6.7 11-3.8 6.2 5.5 9 9.6 11.1 8.4 4.5 16.4 9.7 24.7 14.4 3.9 2.2 8.1 3.8 12 6.1 4.1 2.4 8 5.2 11.9 7.9 6.8 4.6 14.3 8.4 21.3 12.7 2.1 1.3 4.2 2 6.6 1.6 2.1-.3 3.3-3.8 4-5.4 2.2-4.8-6.2-6.9-9.1-8.4-4-2-7.8-4.7-11.5-7.2-3.6-2.4-7.4-4.6-11-7.1-6.7-4.7-12.8-10.6-17.6-17.3-9.5-13.2-9-29.1-4.2-44 2.7-8.4 6.8-16.5 10.5-24.6 4-8.7 8.2-17.2 12.8-25.6 9.5-17.3 20.3-34.2 31.6-50.3.3-.6-.8-1.2-1.2-.6z" fill="#194a91"/><path d="m293.6 215.6-73.1 130.6c0 .1-.1.1-.1.2-.7 1.2 0 3.5 7.2 7.5l74.8 41.9c6.2 3.5 7.9.5 8 .4l72.9-130.3c3.2-5.7-6-38.1-11.8-41.3-1-.6-3-1.7-5.4-3.2-11.3-6.7-32.4-19.2-37.1-19.1-4.8.1-30.8 5.1-35.4 13.3zm71.9 6.8c2.5 1.5 4.4 2.6 5.5 3.2 5.2 2.9 14.2 34.5 11.3 39.7l-72.9 130.3s-1.3 2-6.4-.8l-74.8-41.9c-7.5-4.2-6.8-5.8-6.8-5.8.1 0 .1-.1.1-.2l73.1-130.7c4.1-7.3 28.6-12.5 34.4-12.7 4.4-.2 26.1 12.7 36.5 18.9z"/><path d="m377.1 265.3-3.5 6.3c-.2.3-.5.4-.8.2s-.4-.5-.2-.8l3.5-6.3c.2-.3.5-.4.8-.2s.4.5.2.8zm-7 12.6-3.5 6.3c-.2.3-.5.4-.8.2s-.4-.5-.2-.8l3.5-6.3c.2-.3.5-.4.8-.2.2.2.4.5.2.8zm-7 12.6-3.5 6.3c-.2.3-.5.4-.8.2s-.4-.5-.2-.8l3.5-6.3c.2-.3.5-.4.8-.2.2.1.3.5.2.8zm-7 12.5-3.5 6.3c-.2.3-.5.4-.8.2s-.4-.5-.2-.8l3.5-6.3c.2-.3.5-.4.8-.2.2.1.3.5.2.8zm-7.1 12.5-3.5 6.3c-.2.3-.5.4-.8.2s-.4-.5-.2-.8l3.5-6.3c.2-.3.5-.4.8-.2s.4.5.2.8zm-7 12.6-3.5 6.3c-.2.3-.5.4-.8.2s-.4-.5-.2-.8l3.5-6.3c.2-.3.5-.4.8-.2.3.1.4.5.2.8zm-7 12.5-3.5 6.3c-.2.3-.5.4-.8.2s-.4-.5-.2-.8l3.5-6.3c.2-.3.5-.4.8-.2.3.1.4.5.2.8zm-7 12.5-3.5 6.3c-.2.3-.5.4-.8.2s-.4-.5-.2-.8l3.5-6.3c.2-.3.5-.4.8-.2s.4.5.2.8zm-7 12.5-3.5 6.3c-.2.3-.5.4-.8.2s-.4-.5-.2-.8l3.5-6.3c.2-.3.5-.4.8-.2.2.2.3.6.2.8zm-7 12.6-3.5 6.3c-.2.3-.5.4-.8.2s-.4-.5-.2-.8l3.5-6.3c.2-.3.5-.4.8-.2.2.1.3.5.2.8zm-7.7 11.9c-.1.1-.2.3-.4.3-.8.1-1.7-.1-2.8-.7l-4.1-2.3c-.3-.2-.4-.5-.2-.8s.5-.4.8-.2l4.1 2.3c.8.5 1.5.6 2 .5.3-.1.6.2.7.5 0 .1-.1.3-.1.4zm70.2-131.8c-.1.1-.2.3-.4.3-.3.1-.6-.2-.7-.5-.4-2.1-.9-4.5-1.5-7-.1-.3.1-.6.4-.7s.6.1.7.4c.6 2.5 1.1 5 1.5 7 .1.2.1.4 0 .5zm-3.2-14c-.1.1-.2.2-.4.3-.3.1-.6-.1-.7-.4-.7-2.6-1.4-4.9-2-6.9-.1-.3.1-.6.4-.8.3-.1.6.1.8.4.6 2 1.3 4.3 2 6.9 0 .2 0 .4-.1.5zm-79.8 139.4c-.2.3-.5.4-.8.2l-6.3-3.5c-.3-.2-.4-.5-.2-.8s.5-.4.8-.2l6.3 3.5c.3.2.4.5.2.8zm74.9-152.8c-.2.3-.6.4-.9.2-.4-.2-1.5-.8-3-1.7l-3.1-1.8c-.3-.2-.4-.5-.2-.8.2-.3.5-.4.8-.2l3.1 1.8c1.5.9 2.6 1.5 3 1.7 0 0 .1.1.1.1.3.1.3.4.2.7zm-87.4 145.8c-.2.3-.5.4-.8.2l-6.3-3.5c-.3-.2-.4-.5-.2-.8s.5-.4.8-.2l6.3 3.5c.3.1.4.5.2.8zm74.9-152.9c-.2.3-.5.4-.8.2-2-1.1-4.1-2.3-6.2-3.5-.3-.2-.4-.5-.2-.8.2-.3.5-.4.8-.2 2.1 1.2 4.2 2.4 6.2 3.5.3.2.4.5.2.8zm-87.4 145.9c-.2.3-.5.4-.8.2l-6.3-3.5c-.3-.2-.4-.5-.2-.8s.5-.4.8-.2l6.3 3.5c.2.1.3.5.2.8zm74.9-152.9c-.2.3-.5.4-.8.2-2.3-1.3-4.4-2.4-6.3-3.4-.3-.2-.4-.5-.2-.8.1-.3.5-.4.8-.2 1.9 1 4 2.2 6.3 3.5.3.1.4.4.2.7zm-87.5 145.9c-.2.3-.5.4-.8.2l-6.3-3.5c-.3-.2-.4-.5-.2-.8s.5-.4.8-.2l6.3 3.5c.3.1.4.5.2.8zm74.9-152.5c-.1.2-.4.4-.7.3-.4-.1-2.2 0-6.8 1-.3.1-.6-.1-.7-.5-.1-.3.1-.6.5-.7 2.3-.5 6.2-1.3 7.4-.9.3.1.5.4.4.7 0 0 0 0-.1.1zm-87.4 145.5c-.2.3-.5.4-.8.2l-6.3-3.5c-.3-.2-.4-.5-.2-.8s.5-.4.8-.2l6.3 3.5c.3.1.4.5.2.8zm73.4-142.8c-.1.1-.2.2-.4.3-2.4.7-4.7 1.4-6.8 2.1-.3.1-.7-.1-.8-.4s.1-.7.4-.8c2.1-.7 4.4-1.5 6.9-2.2.3-.1.6.1.7.4s.1.4 0 .6zm-85.8 135.5c0 .1-.1.1-.1.1-.2.2-.6.2-.8 0-1.7-1.8-1.1-3.9-1.1-4v-.1l1.7-3.1c.2-.3.5-.4.8-.2s.4.5.2.8l-1.7 3c-.1.3-.3 1.6.8 2.8.3.2.3.5.2.7zm72.3-130.6c-.1.1-.1.2-.2.2-2.3 1.2-3.1 2-3.4 2.6l-1.3 2.3c-.2.3-.5.4-.8.2s-.4-.5-.2-.8l1.3-2.3c.5-1 1.8-2 3.8-3 .3-.2.7 0 .8.3.1.1.1.3 0 .5zm-8.3 11.3-3.5 6.3c-.2.3-.5.4-.8.2s-.4-.5-.2-.8l3.5-6.3c.2-.3.5-.4.8-.2.2.2.3.5.2.8zm-7.1 12.6-3.5 6.3c-.2.3-.5.4-.8.2s-.4-.5-.2-.8l3.5-6.3c.2-.3.5-.4.8-.2.3.1.4.5.2.8zm-7 12.5-3.5 6.3c-.2.3-.5.4-.8.2s-.4-.5-.2-.8l3.5-6.3c.2-.3.5-.4.8-.2.3.1.4.5.2.8zm-7 12.5-3.5 6.3c-.2.3-.5.4-.8.2s-.4-.5-.2-.8l3.5-6.3c.2-.3.5-.4.8-.2s.4.5.2.8zm-7 12.6-3.5 6.3c-.2.3-.5.4-.8.2s-.4-.5-.2-.8l3.5-6.3c.2-.3.5-.4.8-.2.3.1.4.5.2.8zm-7 12.5-3.5 6.3c-.2.3-.5.4-.8.2s-.4-.5-.2-.8l3.5-6.3c.2-.3.5-.4.8-.2.2.1.3.5.2.8zm-7 12.5-3.5 6.3c-.2.3-.5.4-.8.2s-.4-.5-.2-.8l3.5-6.3c.2-.3.5-.4.8-.2.2.2.3.5.2.8zm-7.1 12.6-3.5 6.3c-.2.3-.5.4-.8.2s-.4-.5-.2-.8l3.5-6.3c.2-.3.5-.4.8-.2.3.1.4.5.2.8zm-7 12.5-3.5 6.3c-.2.3-.5.4-.8.2s-.4-.5-.2-.8l3.5-6.3c.2-.3.5-.4.8-.2.3.1.4.5.2.8z" fill="#fff"/><path d="m444.5 233.2c-10.9-3.5 11.9 12.5 2.5 5.7-6.6-4.7-14.1-13.9-23.3-10.3-1.8.7-3 2.1-4.6 3.2-2.6 1.7-5.5 1-8.2-.1-4.2-1.9-7.9-4.7-12.1-6.7-3.6-1.8-7.5-2.8-11.6-2-4.5.8-8.5 3.4-12.8 5-4.8 1.8-10 2.9-15.1 2.4-5.1-.4-12.3-2.6-13.2-8.5-.1-.9-1.5-.5-1.4.4 1.3 8.4 13 10.1 19.8 9.5 4.4-.4 8.7-1.7 12.8-3.4 4.8-2 9.5-4.9 14.9-4.1 5.1.8 9.4 4 13.8 6.5 3.2 1.9 7.1 4.1 11 3.5 1.8-.3 3-1.3 4.3-2.4 2.5-2 5-2.9 8.2-2.4 5.8.9 9.9 5.4 14.3 8.9 10 7.9-11.7-7.6.3-3.8.9.3 1.3-1.1.4-1.4z"/><g fill="#fcd80e"><path d="m281.8 338.3-12.1-7.6 2.9-4.6c1-1.6 2.1-2.7 3.1-3.1s2.1-.3 3.1.3c.6.4 1 .8 1.2 1.4.3.6.3 1.4.2 2.3.5-.4.9-.7 1.3-.9s.8-.2 1.2-.2.7.1 1 .2.6.3.9.4c1.1.7 1.7 1.6 1.8 2.7s-.4 2.5-1.5 4.2zm-5.5-7.4 1.4-2.2c.1-.2.2-.5.3-.7s.1-.4.1-.7c0-.2-.1-.4-.2-.6s-.3-.3-.5-.5c-.4-.3-.9-.3-1.3-.1s-.8.5-1.1 1l-1.3 2.1zm5.1 3.2 1.3-2.1c.4-.6.5-1.1.4-1.6s-.3-.9-.7-1.1c-.3-.2-.6-.3-.9-.3s-.6.1-.9.3-.5.5-.7.8l-1.4 2.2z"/><path d="m290.6 313.6c1 .6 1.8 1.3 2.3 2.1s.8 1.7.7 2.7-.5 2.1-1.3 3.4-1.6 2.1-2.5 2.6-1.8.6-2.8.5-1.9-.5-3-1.2l-7.3-4.6 1.8-2.9 7.4 4.7c.9.5 1.6.7 2.3.6.6-.2 1.2-.6 1.5-1.2.3-.4.4-.8.4-1.3s-.1-.9-.3-1.3-.7-.8-1.2-1.2l-7.4-4.7 1.8-2.9z"/><path d="m300 309.7c-.4.6-.8 1.2-1.4 1.7-.5.5-1.1.9-1.7 1.2s-1.3.5-1.9.5c-.7 0-1.3-.1-2-.5l1.8-2.9c.4.1.7.2 1.1.1s.7-.2 1-.5.6-.6.9-1c.2-.4.4-.8.6-1.2s.2-.8.1-1.1-.3-.6-.6-.8-.6-.2-.8-.1c-.3.1-.6.2-.9.5s-.6.5-.9.8l-1.6 1.7c-.7.8-1.6 1.3-2.5 1.5s-1.9 0-2.9-.6c-.8-.5-1.3-1.1-1.6-1.9s-.4-1.6-.2-2.6c.2-.9.5-1.8 1.1-2.7.7-1.1 1.4-1.9 2.2-2.4s1.6-.8 2.4-.8 1.6.2 2.3.6l-1.8 2.8c-.4-.2-.8-.3-1.1-.2-.3 0-.7.2-.9.4s-.6.6-.8 1c-.2.3-.3.6-.4.9s-.1.5-.1.8c0 .2.1.4.2.6s.2.3.4.4c.3.2.6.3 1 .2.3-.1.7-.4 1.2-.9l1.6-1.7c.7-.7 1.3-1.2 1.9-1.5s1.2-.4 1.7-.4 1 .1 1.4.3.8.4 1.1.6c.7.4 1.1 1 1.4 1.8s.3 1.6.1 2.6c-.4.9-.8 1.8-1.4 2.8z"/><path d="m292.1 294.9 1.8-2.9 12.1 7.6-1.8 2.9z"/><path d="m300.5 281.6 1.8-2.9 12.1 7.6-1.6 2.6-11.2.5 7.8 4.9-1.8 2.9-12.1-7.6 1.8-2.9 10.6-.5z"/><path d="m316 283.9-12.1-7.6 5.5-8.7 2.4 1.5-3.6 5.8 2.5 1.6 3.1-4.9 2.3 1.5-3.1 4.9 2.5 1.6 3.7-5.8 2.4 1.5z"/><path d="m326.1 268.3c-.4.6-.8 1.2-1.4 1.7-.5.5-1.1.9-1.7 1.2s-1.3.5-1.9.5c-.7 0-1.3-.1-2-.5l1.8-2.9c.4.1.7.2 1.1.1s.7-.2 1-.5c.3-.2.6-.6.9-1 .2-.4.4-.8.6-1.2.1-.4.2-.8.1-1.1s-.3-.6-.6-.8-.6-.2-.8-.1c-.3.1-.6.2-.9.5-.3.2-.6.5-.9.8l-1.6 1.7c-.7.8-1.6 1.3-2.5 1.5s-1.9 0-2.9-.6c-.8-.5-1.3-1.1-1.6-1.9s-.4-1.6-.2-2.6c.2-.9.5-1.8 1.1-2.7.7-1.1 1.4-1.9 2.2-2.4s1.6-.8 2.4-.8 1.6.2 2.3.6l-1.8 2.8c-.4-.2-.8-.3-1.1-.2-.3 0-.7.2-.9.4-.3.2-.6.6-.8 1-.2.3-.3.6-.4.9s-.1.5-.1.8c0 .2.1.4.2.6s.2.3.4.4c.3.2.6.3 1 .2.3-.1.7-.4 1.2-.9l1.6-1.7c.7-.7 1.3-1.2 1.9-1.5s1.2-.4 1.7-.4 1 .1 1.4.3.8.4 1.1.6c.7.4 1.1 1 1.4 1.8s.3 1.6.1 2.6c-.4.9-.8 1.9-1.4 2.8z"/><path d="m333.6 256.4c-.4.6-.8 1.2-1.4 1.7-.5.5-1.1.9-1.7 1.2s-1.3.5-1.9.5c-.7 0-1.3-.1-2-.5l1.8-2.9c.4.1.7.2 1.1.1s.7-.2 1-.5c.3-.2.6-.6.9-1 .2-.4.4-.8.6-1.2.1-.4.2-.8.1-1.1s-.3-.6-.6-.8-.6-.2-.8-.1c-.3.1-.6.2-.9.5-.3.2-.6.5-.9.8l-1.6 1.7c-.7.8-1.6 1.3-2.5 1.5s-1.9 0-2.9-.6c-.8-.5-1.3-1.1-1.6-1.9s-.4-1.6-.2-2.6.5-1.8 1.1-2.7c.7-1.1 1.4-1.9 2.2-2.4s1.6-.8 2.4-.8 1.6.2 2.3.6l-1.8 2.8c-.4-.2-.8-.3-1.1-.2-.3 0-.7.2-.9.4-.3.2-.6.6-.8 1-.2.3-.3.6-.4.9s-.1.5-.1.8c0 .2.1.4.2.6s.2.3.4.4c.3.2.6.3 1 .2.3-.1.7-.4 1.2-.9l1.6-1.7c.7-.7 1.3-1.2 1.9-1.5s1.2-.4 1.7-.4 1 .1 1.4.3.8.4 1.1.6c.7.4 1.1 1 1.4 1.8s.3 1.6.1 2.6c-.4.8-.8 1.8-1.4 2.8z"/><path d="m296.7 318.9c.6-.9 1.3-1.7 2.1-2.2s1.7-.8 2.7-.8c.9 0 1.9.2 2.7.6l-1.9 3c-.4-.2-.9-.3-1.3-.3s-.8.1-1.2.3-.7.5-.9.9c-.3.5-.5 1-.4 1.5 0 .5.2 1.1.7 1.6.4.6 1.1 1.1 2.1 1.7 1.4.9 2.6 1.3 3.5 1.3s1.6-.4 2-1.2c.3-.4.4-.8.4-1.3 0-.4-.1-.8-.3-1.2s-.5-.8-.9-1.1l1.9-3c.5.5 1 1 1.4 1.5s.7 1.1.9 1.8.2 1.4 0 2.1c-.1.8-.5 1.6-1.1 2.5-.7 1.2-1.6 2-2.7 2.5s-2.2.7-3.5.5c-1.2-.1-2.5-.6-3.8-1.4-1.2-.8-2.2-1.7-2.8-2.7s-.9-2.1-.9-3.3c.2-1 .6-2.2 1.3-3.3z"/><path d="m301.4 311.9 1.8-2.9 9.8 6.1 3.2-5.1 2.4 1.5-5 7.9z"/><path d="m319.2 310.4-9.4-12 1.9-3 14.9 3.3-1.8 2.8-3.2-.7-2.6 4.2 2 2.5zm-2.2-7.5 1.8-2.8-5.2-1.3z"/><path d="m330.6 292.8c-.4.6-.8 1.2-1.4 1.7s-1.1.9-1.7 1.2-1.3.5-1.9.5c-.7 0-1.3-.1-2-.5l1.8-2.9c.4.1.7.2 1.1.1s.7-.2 1-.5.6-.6.9-1c.2-.4.4-.8.6-1.2s.2-.8.1-1.1-.3-.6-.6-.8-.6-.2-.8-.1c-.3.1-.6.2-.9.5-.3.2-.6.5-.9.8l-1.6 1.7c-.7.8-1.6 1.3-2.5 1.5s-1.9 0-2.9-.6c-.8-.5-1.3-1.1-1.6-1.9s-.4-1.6-.2-2.6.5-1.8 1.1-2.7c.7-1.1 1.4-1.9 2.2-2.4s1.6-.8 2.4-.8 1.6.2 2.3.6l-1.8 2.8c-.4-.2-.8-.3-1.1-.2-.3 0-.7.2-.9.4-.3.2-.6.6-.8 1-.2.3-.3.6-.4.9s-.1.5-.1.8c0 .2.1.4.2.6s.2.3.4.4c.3.2.6.3 1 .2.3-.1.7-.4 1.2-.9l1.6-1.7c.7-.7 1.3-1.2 1.9-1.5s1.2-.4 1.7-.4 1 .1 1.4.3.8.4 1.1.6c.7.4 1.1 1 1.4 1.8s.3 1.6.1 2.6c-.4.9-.8 1.9-1.4 2.8z"/><path d="m338.1 280.9c-.4.6-.8 1.2-1.4 1.7s-1.1.9-1.7 1.2-1.3.5-1.9.5c-.7 0-1.3-.1-2-.5l1.8-2.9c.4.1.7.2 1.1.1s.7-.2 1-.5.6-.6.9-1c.2-.4.4-.8.6-1.2s.2-.8.1-1.1-.3-.6-.6-.8-.6-.2-.8-.1c-.3.1-.6.2-.9.5-.3.2-.6.5-.9.8l-1.6 1.7c-.7.8-1.6 1.3-2.5 1.5s-1.9 0-2.9-.6c-.8-.5-1.3-1.1-1.6-1.9s-.4-1.6-.2-2.6c.2-.9.5-1.8 1.1-2.7.7-1.1 1.4-1.9 2.2-2.4s1.6-.8 2.4-.8 1.6.2 2.3.6l-1.8 2.8c-.4-.2-.8-.3-1.1-.2-.3 0-.7.2-.9.4-.3.2-.6.6-.8 1-.2.3-.3.6-.4.9s-.1.5-.1.8c0 .2.1.4.2.6s.2.3.4.4c.3.2.6.3 1 .2.3-.1.7-.4 1.2-.9l1.6-1.7c.7-.7 1.3-1.2 1.9-1.5s1.2-.4 1.7-.4 1 .1 1.4.3.8.4 1.1.6c.7.4 1.1 1 1.4 1.8s.3 1.6.1 2.6c-.4.8-.8 1.8-1.4 2.8z"/></g></svg>