<svg enable-background="new 0 0 150 150" viewBox="0 0 150 150" xmlns="http://www.w3.org/2000/svg"><g fill="none" stroke="#434343" stroke-linecap="round" stroke-linejoin="round" stroke-width="5.3192"><path d="m109.6 24.5h5.3c4.4 0 8 3.6 8 8v95.7c0 4.4-3.6 8-8 8h-79.8c-4.4 0-8-3.6-8-8v-95.8c0-4.4 3.6-8 8-8h5.3"/><path d="m83 21.8h14c2.8 0 4.6 1.7 4.6 4.3v6.4"/><path d="m48.4 32.4v-6.4c0-2.6 1.8-4.3 4.6-4.3h14"/><path d="m48.4 32.4h53.2"/><path d="m67 21.8c0-4.4 3.6-8 8-8s8 3.6 8 8"/><path d="m48.4 93.6h53.2"/><path d="m48.4 106.9h53.2"/><path d="m48.4 120.2h29.3"/><path d="m61.7 61.7 10.6 10.6 21.3-21.2"/></g></svg>