<svg enable-background="new 0 0 898.9 610.4" viewBox="0 0 898.9 610.4" xmlns="http://www.w3.org/2000/svg"><path d="m366.2 485.3-124.5 2.6-209.7-65.2 235.8-10.4 66.3-4.7 310.1-21.6 104.6 32.5 83.7 34.2z" fill="#d0d0d0"/><path d="m621 409.4 62.7-4.4-62.7 6z" fill="#a45a47"/><path d="m865 186.4-210.5-65.4-33.5 100.6 210.6 65.5z" fill="#fabd8c"/><path d="m865 186.4-1.7-.5-33.2 100.7 1.5.5z" fill="#a25944"/><path d="m863.3 185.9-210.9 84.7 177.7 16z" fill="#606060" opacity=".27"/><path d="m621 230.1v80.2l-255.8 17.9-209.9-65.3v-.3l-.7-8.4 439.3-30.7z" fill="#db9057"/><path d="m365.2 328.2 255.8-17.9v124.9l-435.6-45.7-20.7-2.2-9.4-124.4z" fill="#db9057"/><path d="m621 221.6v8.5l-27.1-6.6z" fill="#db9057"/><path d="m621 221.6-465.5 198.2 465.5 47.7z" fill="#b7714b" opacity=".3"/><path d="m831.6 295.6.6 95.3-148.5 14.1-62.7 4.4v-187.8l39 12 171.6 53.5z" fill="#a25944"/><path d="m832.5 452.7-192.8 13.5-37.4 2.6-236.1 16.5-1-165.6 237.1-16.6 37.4-2.6 191.9-13.4z" fill="#db9057"/><path d="m639.7 304.4v161.8l-37.4 2.6v-161.9l4.2 3.3 3.3-3.8 4.2 3.3 3.3-3.8 4.3 3.2 3.2-3.8 4.3 3.3 3.2-3.8 4.3 3.2z" fill="#ffdec7"/><path d="m366.2 485.3-105.8-32.9-37.4-11.6-67.5-21-.9-165.6 68.4 21.3 37.4 11.6 104.8 32.6z" fill="#b6704a"/><path d="m260.4 287.1v165.3l-37.4-11.6v-165.3z" fill="#ffdec7" opacity=".6"/><path d="m361.5 239.7-206.9 14.5z" fill="none"/><path d="m621 221.6-259.5 18.1 208.8 65-205.1 15 466.4-32.6z" fill="none"/><path d="m361.5 239.7 259.5-18.1-5.6-73.3-466.4 32.7 5.6 73.2z" fill="#fabd8c"/><path d="m361.5 239.7-206.9 14.5 210.7 65.5 205-15z" fill="#b7714b" opacity=".25"/><path d="m639.8 300.5-.1.1v-.1z" fill="#e9b895"/><path d="m365.2 319.7-45.8-28.9-44.1.9z" fill="#b6704a" opacity=".59"/><path d="m155.5 419.8 209.7-100.1 1 165.6z" fill="#b7714b" opacity=".25"/><path d="m831.6 287.1-466.4 32.6-129.6-81.8 466.4-32.6z" fill="#e3a77b"/><path d="m235.6 237.9v6.3l129.6 75.5z" fill="#a25944"/><path d="m149 181 2.8-.2 5.8 73.2-3 .2z" fill="#a25944"/><path d="m619.5 451.4 5.2 3.1v1.7l-5.2.7v-1.8l3-.2-3-1.7z" fill="#606060"/><path d="m621.2 446.9 3.5.8v1.6l-.5-.1c.3.4.5.9.5 1.4 0 .4-.1.8-.4 1.1-.2.3-.5.4-.9.3l-2.3-.5c-.5-.1-.9-.4-1.2-.9s-.5-1.1-.5-1.7.2-1.1.5-1.5c.4-.5.8-.6 1.3-.5m0 1.6c-.1 0-.3 0-.4.1s-.1.2-.1.4 0 .3.1.5.2.2.4.3l1.8.4c.1 0 .3 0 .4-.1s.1-.2.1-.4 0-.3-.1-.5-.2-.2-.4-.3z" fill="#606060"/><path d="m618.5 444 6.2 1.4v1.6l-6.2-1.4z" fill="#606060"/><g fill="#fcd80e"><path d="m627.6 435.3c-.2 1 .4 1.9 1.4 2.2 1 .2 1.9-.4 2.2-1.4.2-1-.4-1.9-1.4-2.2-1-.2-2 .4-2.2 1.4z"/><path d="m621.2 435.3c-.1 0-.3 0-.4.1s-.1.2-.1.4 0 .3.1.5.2.2.4.3l.3.1v-1.3z"/><path d="m620.9 441.5c.1.1.2.2.4.3l.3.1v-1.3l-.3-.1c-.1 0-.3 0-.4.1s-.1.2-.1.4c-.1.2 0 .4.1.5z"/><path d="m617.7 443.3 7 1.6c1.7.4 3.3-.7 3.7-2.3l.9-4c.1-.3-.1-.6-.4-.6h-.1c-1.2-.3-2-1.5-1.7-2.8v-.1c.1-.3-.1-.6-.4-.6l-9.7-2.2-1.7 7.4c-.3 1.5.7 3.2 2.4 3.6zm5.3-4.7v-1.6c.1 0 .3 0 .4-.1s.1-.3.1-.4c0-.2 0-.3-.1-.5s-.2-.2-.4-.3l-.3-.1v2.9l-1.5-.3c-.5-.1-.9-.4-1.2-1-.3-.5-.5-1.1-.5-1.7s.2-1.1.5-1.5.8-.5 1.2-.4l1.8.4c.5.1.9.4 1.2 1 .3.5.5 1.1.5 1.7s-.2 1.1-.5 1.5-.8.5-1.2.4zm-1.8.3 1.5.3v2.9l.3.1c.1 0 .3 0 .4-.1s.1-.2.1-.4 0-.3-.1-.5-.2-.2-.4-.3v-1.6c.5.1.9.4 1.2.9s.5 1.1.5 1.7-.2 1.1-.5 1.5-.8.5-1.2.4l-1.8-.4c-.5-.1-.9-.4-1.2-.9s-.5-1.1-.5-1.7.2-1.1.5-1.5.7-.6 1.2-.4z"/><path d="m613.1 429.1h1.1v5.7h-1.1z" transform="matrix(.2225 -.9749 .9749 .2225 55.9658 934.1468)"/><path d="m607.9 430.2-.2.8c0 .2.1.4.3.5l1.8.4c.2 0 .4-.1.5-.3l.2-.8c0-.2-.1-.4-.3-.5l-1.8-.4c-.2 0-.4.1-.5.3z"/></g><path d="m619.5 427.6 1.2.3 2.8 3.2v-2.6l1.2.3v4.6l-1.2-.3-2.8-3.2v2.6l-1.2-.3z" fill="#606060"/><path d="m621.2 422.8 1.5.3v2.9l.3.1c.1 0 .3 0 .4-.1s.1-.2.1-.4 0-.3-.1-.5-.2-.2-.4-.3v-1.6c.5.1.9.4 1.2.9s.5 1.1.5 1.7-.2 1.1-.5 1.5-.8.5-1.2.4l-1.8-.4c-.5-.1-.9-.4-1.2-.9s-.5-1.1-.5-1.7.2-1.1.5-1.5.7-.5 1.2-.4m0 1.6c-.1 0-.3 0-.4.1s-.1.3-.1.4c0 .2 0 .3.1.5s.2.2.4.3l.3.1v-1.3z" fill="#606060"/><path d="m237.9 429.2 5.3 3.2v1.6l-5.3.8v-1.8l3.1-.3-3.1-1.7z" fill="#606060"/><path d="m239.7 424.7 3.5.8v1.6l-.5-.1c.3.4.5.9.5 1.4 0 .4-.1.8-.4 1.1-.2.3-.5.4-.9.3l-2.3-.5c-.5-.1-.9-.4-1.2-.9s-.5-1.1-.5-1.7.2-1.1.5-1.5c.4-.4.8-.6 1.3-.5m0 1.7c-.1 0-.3 0-.4.1s-.1.3-.1.4c0 .2 0 .3.1.5s.2.2.4.3l1.8.4c.1 0 .3 0 .4-.1s.1-.2.1-.4 0-.3-.1-.5-.2-.2-.4-.3z" fill="#606060"/><path d="m236.9 421.8 6.3 1.5v1.6l-6.3-1.4z" fill="#606060"/><path d="m246.1 413.1c-.2 1 .4 1.9 1.4 2.2 1 .2 1.9-.4 2.2-1.4.2-1-.4-1.9-1.4-2.2-1-.2-2 .4-2.2 1.4z" fill="#fcd80e"/><path d="m239.7 413.1c-.1 0-.3 0-.4.1s-.1.2-.1.4 0 .3.1.5.2.2.4.3l.3.1v-1.3z" fill="#fcd80e"/><path d="m239.3 419.4c.1.1.2.2.4.3l.3.1v-1.3l-.3-.1c-.1 0-.3 0-.4.1s-.1.2-.1.4 0 .3.1.5z" fill="#fcd80e"/><path d="m236.2 421.1 7 1.6c1.7.4 3.3-.7 3.7-2.3l.9-4c.1-.3-.1-.6-.4-.6h-.1c-1.2-.3-2-1.5-1.7-2.8v-.1c.1-.3-.1-.6-.4-.6l-9.7-2.2-1.7 7.4c-.4 1.6.7 3.2 2.4 3.6zm5.2-4.6v-1.6c.1 0 .3 0 .4-.1s.1-.3.1-.4c0-.2 0-.3-.1-.5s-.2-.2-.4-.3l-.2-.1v2.9l-1.5-.3c-.5-.1-.9-.4-1.2-1-.3-.5-.5-1.1-.5-1.7s.2-1.1.5-1.5.8-.5 1.2-.4l1.8.4c.5.1.9.4 1.2 1s.5 1.1.5 1.7-.2 1.1-.5 1.5-.8.5-1.3.4zm-1.7.2 1.5.3v2.9l.3.1c.1 0 .3 0 .4-.1s.1-.2.1-.4 0-.3-.1-.5-.2-.2-.4-.3v-1.6c.5.1.9.4 1.2.9s.5 1.1.5 1.7-.2 1.1-.5 1.5-.8.5-1.2.4l-1.8-.4c-.5-.1-.9-.4-1.2-.9s-.5-1.1-.5-1.7.2-1.1.5-1.5.7-.5 1.2-.4z" fill="#fcd80e"/><path d="m231.6 407h1.1v5.7h-1.1z" fill="#fcd80e" transform="matrix(.2225 -.9749 .9749 .2225 -219.0749 544.961)"/><path d="m226.4 408.1-.2.8c0 .2.1.4.3.5l1.8.4c.2 0 .4-.1.5-.3l.2-.8c0-.2-.1-.4-.3-.5l-1.8-.4c-.3-.1-.5.1-.5.3z" fill="#fcd80e"/><path d="m237.9 405.5 1.3.3 2.7 3.2v-2.6l1.3.3v4.5l-1.3-.3-2.7-3.2v2.6l-1.3-.3z" fill="#606060"/><path d="m239.7 400.7 1.5.3v2.9l.3.1c.1 0 .3 0 .4-.1s.1-.2.1-.4 0-.3-.1-.5-.2-.2-.4-.3v-1.7c.5.1.9.4 1.2.9s.5 1.1.5 1.7-.2 1.1-.5 1.5-.8.5-1.2.4l-1.8-.4c-.5-.1-.9-.4-1.2-.9s-.5-1.1-.5-1.7.2-1.1.5-1.5c.3-.3.7-.4 1.2-.3m0 1.6c-.1 0-.3 0-.4.1s-.1.3-.1.4c0 .2 0 .3.1.5s.2.2.4.3l.3.1v-1.3z" fill="#606060"/><path d="m237.9 382.5 5.3 3.1v1.6l-5.3.8v-1.8l3.1-.3-3.1-1.6z" fill="#606060"/><path d="m239.7 378 3.5.8v1.6l-.5-.1c.3.4.5.9.5 1.4 0 .4-.1.8-.4 1.1-.2.3-.5.4-.9.3l-2.3-.5c-.5-.1-.9-.4-1.2-.9s-.5-1.1-.5-1.7.2-1.1.5-1.5c.4-.5.8-.6 1.3-.5m0 1.6c-.1 0-.3 0-.4.1s-.1.3-.1.4c0 .2 0 .3.1.5s.2.2.4.3l1.8.4c.1 0 .3 0 .4-.1s.1-.2.1-.4 0-.3-.1-.5-.2-.2-.4-.3z" fill="#606060"/><path d="m236.9 375.1 6.3 1.4v1.6l-6.3-1.4z" fill="#606060"/><path d="m246.1 366.3c-.2 1 .4 1.9 1.4 2.2 1 .2 1.9-.4 2.2-1.4.2-1-.4-1.9-1.4-2.2-1-.2-2 .5-2.2 1.4z" fill="#fcd80e"/><path d="m239.7 366.3c-.1 0-.3 0-.4.1s-.1.2-.1.4 0 .3.1.5.2.2.4.3l.3.1v-1.3z" fill="#fcd80e"/><path d="m239.3 372.6c.1.1.2.2.4.3l.3.1v-1.3l-.3-.1c-.1 0-.3 0-.4.1s-.1.2-.1.4 0 .3.1.5z" fill="#fcd80e"/><path d="m236.2 374.4 7 1.6c1.7.4 3.3-.7 3.7-2.3l.9-4c.1-.3-.1-.6-.4-.6h-.1c-1.2-.3-2-1.5-1.7-2.8v-.1c.1-.3-.1-.6-.4-.6l-9.7-2.2-1.7 7.4c-.4 1.5.7 3.2 2.4 3.6zm5.2-4.7v-1.6c.1 0 .3 0 .4-.1s.1-.3.1-.4c0-.2 0-.3-.1-.5s-.2-.2-.4-.3l-.2-.1v2.9l-1.5-.3c-.5-.1-.9-.4-1.2-1-.3-.5-.5-1.1-.5-1.7s.2-1.1.5-1.5.8-.5 1.2-.4l1.8.4c.5.1.9.4 1.2 1s.5 1.1.5 1.7-.2 1.1-.5 1.5-.8.5-1.3.4zm-1.7.2 1.5.3v2.9l.3.1c.1 0 .3 0 .4-.1s.1-.2.1-.4 0-.3-.1-.5-.2-.2-.4-.3v-1.6c.5.1.9.4 1.2.9s.5 1.1.5 1.7-.2 1.1-.5 1.5-.8.5-1.2.4l-1.8-.4c-.5-.1-.9-.4-1.2-.9s-.5-1.1-.5-1.7.2-1.1.5-1.5c.3-.3.7-.5 1.2-.4z" fill="#fcd80e"/><path d="m231.6 360.2h1.1v5.7h-1.1z" fill="#fcd80e" transform="matrix(.2225 -.9749 .9749 .2225 -173.4796 508.5989)"/><path d="m226.4 361.3-.2.8c0 .2.1.4.3.5l1.8.4c.2 0 .4-.1.5-.3l.2-.8c0-.2-.1-.4-.3-.5l-1.8-.4c-.3 0-.5.1-.5.3z" fill="#fcd80e"/><path d="m237.9 358.7 1.3.3 2.7 3.2v-2.6l1.3.3v4.6l-1.3-.3-2.7-3.2v2.6l-1.3-.3z" fill="#606060"/><path d="m239.7 353.9 1.5.3v2.9l.3.1c.1 0 .3 0 .4-.1s.1-.2.1-.4 0-.3-.1-.5-.2-.2-.4-.3v-1.6c.5.1.9.4 1.2.9s.5 1.1.5 1.7-.2 1.1-.5 1.5-.8.5-1.2.4l-1.8-.4c-.5-.1-.9-.4-1.2-.9s-.5-1.1-.5-1.7.2-1.1.5-1.5.7-.5 1.2-.4m0 1.6c-.1 0-.3 0-.4.1s-.1.3-.1.4c0 .2 0 .3.1.5s.2.2.4.3l.3.1v-1.3z" fill="#606060"/><path d="m237.9 335.7 5.3 3.1v1.7l-5.3.7v-1.7l3.1-.3-3.1-1.7z" fill="#606060"/><path d="m239.7 331.2 3.5.8v1.6l-.5-.1c.3.4.5.9.5 1.4 0 .4-.1.8-.4 1.1-.2.3-.5.4-.9.3l-2.3-.5c-.5-.1-.9-.4-1.2-.9s-.5-1.1-.5-1.7.2-1.1.5-1.5c.4-.5.8-.6 1.3-.5m0 1.6c-.1 0-.3 0-.4.1s-.1.3-.1.4c0 .2 0 .3.1.5s.2.2.4.3l1.8.4c.1 0 .3 0 .4-.1s.1-.2.1-.4 0-.3-.1-.5-.2-.2-.4-.3z" fill="#606060"/><path d="m236.9 328.3 6.3 1.4v1.7l-6.3-1.5z" fill="#606060"/><path d="m246.1 319.6c-.2 1 .4 1.9 1.4 2.2 1 .2 1.9-.4 2.2-1.4.2-1-.4-1.9-1.4-2.2-1-.2-2 .4-2.2 1.4z" fill="#fcd80e"/><path d="m239.7 319.6c-.1 0-.3 0-.4.1s-.1.2-.1.4 0 .3.1.5.2.2.4.3l.3.1v-1.3z" fill="#fcd80e"/><path d="m239.3 325.8c.1.1.2.2.4.3l.3.1v-1.3l-.3-.1c-.1 0-.3 0-.4.1s-.1.2-.1.4 0 .4.1.5z" fill="#fcd80e"/><path d="m236.2 327.6 7 1.6c1.7.4 3.3-.7 3.7-2.3l.9-4c.1-.3-.1-.6-.4-.6h-.1c-1.2-.3-2-1.5-1.7-2.8v-.1c.1-.3-.1-.6-.4-.6l-9.7-2.2-1.7 7.4c-.4 1.5.7 3.2 2.4 3.6zm5.2-4.7v-1.6c.1 0 .3 0 .4-.1s.1-.3.1-.4c0-.2 0-.3-.1-.5s-.2-.2-.4-.3l-.2-.1v2.9l-1.5-.3c-.5-.1-.9-.4-1.2-1-.3-.5-.5-1.1-.5-1.7s.2-1.1.5-1.5.8-.5 1.2-.4l1.8.4c.5.1.9.4 1.2 1s.5 1.1.5 1.7-.2 1.1-.5 1.5-.8.5-1.3.4zm-1.7.3 1.5.3v2.9l.3.1c.1 0 .3 0 .4-.1s.1-.2.1-.4 0-.3-.1-.5-.2-.2-.4-.3v-1.6c.5.1.9.4 1.2.9s.5 1.1.5 1.7-.2 1.1-.5 1.5-.8.5-1.2.4l-1.8-.4c-.5-.1-.9-.4-1.2-.9s-.5-1.1-.5-1.7.2-1.1.5-1.5.7-.5 1.2-.4z" fill="#fcd80e"/><path d="m231.6 313.4h1.1v5.7h-1.1z" fill="#fcd80e" transform="matrix(.2225 -.9749 .9749 .2225 -127.8843 472.2367)"/><path d="m226.4 314.5-.2.8c0 .2.1.4.3.5l1.8.4c.2 0 .4-.1.5-.3l.2-.8c0-.2-.1-.4-.3-.5l-1.8-.4c-.3 0-.5.1-.5.3z" fill="#fcd80e"/><path d="m237.9 311.9 1.3.3 2.7 3.3v-2.6l1.3.2v4.6l-1.3-.3-2.7-3.2v2.6l-1.3-.3z" fill="#606060"/><path d="m239.7 307.1 1.5.3v2.9l.3.1c.1 0 .3 0 .4-.1s.1-.2.1-.4 0-.3-.1-.5-.2-.2-.4-.3v-1.6c.5.1.9.4 1.2.9s.5 1.1.5 1.7-.2 1.1-.5 1.5-.8.5-1.2.4l-1.8-.4c-.5-.1-.9-.4-1.2-.9s-.5-1.1-.5-1.7.2-1.1.5-1.5c.3-.3.7-.5 1.2-.4m0 1.7c-.1 0-.3 0-.4.1s-.1.3-.1.4c0 .2 0 .3.1.5s.2.2.4.3l.3.1v-1.3z" fill="#606060"/><path d="m619.5 404.6 5.2 3.2v1.6l-5.2.8v-1.8l3-.3-3-1.7z" fill="#606060"/><path d="m621.2 400.1 3.5.8v1.6l-.5-.1c.3.4.5.9.5 1.4 0 .4-.1.8-.4 1.1-.2.3-.5.4-.9.3l-2.3-.5c-.5-.1-.9-.4-1.2-.9s-.5-1.1-.5-1.7.2-1.1.5-1.5c.4-.4.8-.6 1.3-.5m0 1.7c-.1 0-.3 0-.4.1s-.1.2-.1.4 0 .3.1.5.2.2.4.3l1.8.4c.1 0 .3 0 .4-.1s.1-.2.1-.4 0-.3-.1-.5-.2-.2-.4-.3z" fill="#606060"/><path d="m618.5 397.2 6.2 1.4v1.7l-6.2-1.4z" fill="#606060"/><path d="m627.6 388.5c-.2 1 .4 1.9 1.4 2.2 1 .2 1.9-.4 2.2-1.4.2-1-.4-1.9-1.4-2.2-1-.2-2 .4-2.2 1.4z" fill="#fcd80e"/><path d="m621.2 388.5c-.1 0-.3 0-.4.1s-.1.2-.1.4 0 .3.1.5.2.2.4.3l.3.1v-1.3z" fill="#fcd80e"/><path d="m620.9 394.7c.1.1.2.2.4.3l.3.1v-1.3l-.3-.1c-.1 0-.3 0-.4.1s-.1.2-.1.4c-.1.2 0 .4.1.5z" fill="#fcd80e"/><path d="m617.7 396.5 7 1.6c1.7.4 3.3-.7 3.7-2.3l.9-4c.1-.3-.1-.6-.4-.6h-.1c-1.2-.3-2-1.5-1.7-2.8v-.1c.1-.3-.1-.6-.4-.6l-9.7-2.2-1.7 7.4c-.3 1.6.7 3.2 2.4 3.6zm5.3-4.7v-1.6c.1 0 .3 0 .4-.1s.1-.3.1-.4c0-.2 0-.3-.1-.5s-.2-.2-.4-.3l-.3-.1v2.9l-1.5-.3c-.5-.1-.9-.4-1.2-1-.3-.5-.5-1.1-.5-1.7s.2-1.1.5-1.5.8-.5 1.2-.4l1.8.4c.5.1.9.4 1.2 1 .3.5.5 1.1.5 1.7s-.2 1.1-.5 1.5-.8.6-1.2.4zm-1.8.3 1.5.3v2.9l.3.1c.1 0 .3 0 .4-.1s.1-.2.1-.4 0-.3-.1-.5-.2-.2-.4-.3v-1.6c.5.1.9.4 1.2.9s.5 1.1.5 1.7-.2 1.1-.5 1.5-.8.5-1.2.4l-1.8-.4c-.5-.1-.9-.4-1.2-.9s-.5-1.1-.5-1.7.2-1.1.5-1.5.7-.5 1.2-.4z" fill="#fcd80e"/><path d="m613.1 382.4h1.1v5.7h-1.1z" fill="#fcd80e" transform="matrix(.2225 -.9749 .9749 .2225 101.5611 897.7847)"/><path d="m607.9 383.5-.2.8c0 .2.1.4.3.5l1.8.4c.2 0 .4-.1.5-.3l.2-.8c0-.2-.1-.4-.3-.5l-1.8-.4c-.2-.1-.4.1-.5.3z" fill="#fcd80e"/><path d="m619.5 380.9 1.2.2 2.8 3.3v-2.6l1.2.3v4.5l-1.2-.3-2.8-3.2v2.6l-1.2-.3z" fill="#606060"/><path d="m621.2 376 1.5.3v2.9l.3.1c.1 0 .3 0 .4-.1s.1-.2.1-.4 0-.3-.1-.5-.2-.2-.4-.3v-1.6c.5.1.9.4 1.2.9s.5 1.1.5 1.7-.2 1.1-.5 1.5-.8.5-1.2.4l-1.8-.4c-.5-.1-.9-.4-1.2-.9s-.5-1.1-.5-1.7.2-1.1.5-1.5c.3-.3.7-.5 1.2-.4m0 1.7c-.1 0-.3 0-.4.1s-.1.3-.1.4c0 .2 0 .3.1.5s.2.2.4.3l.3.1v-1.3z" fill="#606060"/><path d="m619.5 357.9 5.2 3.1v1.6l-5.2.8v-1.8l3-.3-3-1.6z" fill="#606060"/><path d="m621.2 353.4 3.5.8v1.6l-.5-.1c.3.4.5.9.5 1.4 0 .4-.1.8-.4 1.1-.2.3-.5.4-.9.3l-2.3-.5c-.5-.1-.9-.4-1.2-.9s-.5-1.1-.5-1.7.2-1.1.5-1.5c.4-.5.8-.6 1.3-.5m0 1.6c-.1 0-.3 0-.4.1s-.1.2-.1.4 0 .3.1.5.2.2.4.3l1.8.4c.1 0 .3 0 .4-.1s.1-.2.1-.4 0-.3-.1-.5-.2-.2-.4-.3z" fill="#606060"/><path d="m618.5 350.5 6.2 1.4v1.6l-6.2-1.4z" fill="#606060"/><path d="m627.6 341.7c-.2 1 .4 1.9 1.4 2.2 1 .2 1.9-.4 2.2-1.4.2-1-.4-1.9-1.4-2.2-1-.2-2 .4-2.2 1.4z" fill="#fcd80e"/><path d="m621.2 341.7c-.1 0-.3 0-.4.1s-.1.2-.1.4 0 .3.1.5.2.2.4.3l.3.1v-1.3z" fill="#fcd80e"/><path d="m620.9 348c.1.1.2.2.4.3l.3.1v-1.4l-.3-.1c-.1 0-.3 0-.4.1s-.1.2-.1.4c-.1.3 0 .4.1.6z" fill="#fcd80e"/><path d="m617.7 349.7 7 1.6c1.7.4 3.3-.7 3.7-2.3l.9-4c.1-.3-.1-.6-.4-.6h-.1c-1.2-.3-2-1.5-1.7-2.8v-.1c.1-.3-.1-.6-.4-.6l-9.7-2.2-1.7 7.4c-.3 1.6.7 3.3 2.4 3.6zm5.3-4.6v-1.6c.1 0 .3 0 .4-.1s.1-.3.1-.4c0-.2 0-.3-.1-.5s-.2-.2-.4-.3l-.3-.1v2.9l-1.5-.3c-.5-.1-.9-.4-1.2-1-.3-.5-.5-1.1-.5-1.7s.2-1.1.5-1.5.8-.5 1.2-.4l1.8.4c.5.1.9.4 1.2 1 .3.5.5 1.1.5 1.7s-.2 1.1-.5 1.5-.8.5-1.2.4zm-1.8.2 1.5.3v2.9l.3.1c.1 0 .3 0 .4-.1s.1-.2.1-.4 0-.3-.1-.5-.2-.2-.4-.3v-1.6c.5.1.9.4 1.2.9s.5 1.1.5 1.7-.2 1.1-.5 1.5-.8.5-1.2.4l-1.8-.4c-.5-.1-.9-.4-1.2-.9s-.5-1.1-.5-1.7.2-1.1.5-1.5.7-.5 1.2-.4z" fill="#fcd80e"/><path d="m613.1 335.6h1.1v5.7h-1.1z" fill="#fcd80e" transform="matrix(.2225 -.9749 .9749 .2225 147.1563 861.4225)"/><path d="m607.9 336.7-.2.8c0 .2.1.4.3.5l1.8.4c.2 0 .4-.1.5-.3l.2-.8c0-.2-.1-.4-.3-.5l-1.8-.4c-.2 0-.4.1-.5.3z" fill="#fcd80e"/><path d="m619.5 334.1 1.2.3 2.8 3.2v-2.6l1.2.3v4.5l-1.2-.2-2.8-3.3v2.6l-1.2-.2z" fill="#606060"/><path d="m621.2 329.3 1.5.3v2.9l.3.1c.1 0 .3 0 .4-.1s.1-.2.1-.4 0-.3-.1-.5-.2-.2-.4-.3v-1.6c.5.1.9.4 1.2.9s.5 1.1.5 1.7-.2 1.1-.5 1.5-.8.5-1.2.4l-1.8-.4c-.5-.1-.9-.4-1.2-.9s-.5-1.1-.5-1.7.2-1.1.5-1.5.7-.5 1.2-.4m0 1.6c-.1 0-.3 0-.4.1s-.1.3-.1.4c0 .2 0 .3.1.5s.2.2.4.3l.3.1v-1.3z" fill="#606060"/></svg>