<svg enable-background="new 0 0 130.1 123.2" viewBox="0 0 130.1 123.2" xmlns="http://www.w3.org/2000/svg"><g fill="none" stroke="#434343" stroke-width="5.3266"><path d="m126.3 16.3v98.5c0 2.9-2.4 5.3-5.3 5.3h-111.9c-2.9 0-5.3-2.4-5.3-5.3v-98.5c0-2.9 2.4-5.3 5.3-5.3h111.9c2.9 0 5.3 2.4 5.3 5.3z"/><path d="m3.8 32.3h122.5"/><path d="m19.8 48.3h21.3v21.3h-21.3z"/><path d="m54.4 48.3h21.3v21.3h-21.3z"/><path d="m89 48.3h21.3v21.3h-21.3z"/><path d="m19.8 82.9h21.3v21.3h-21.3z"/><path d="m54.4 82.9h21.3v21.3h-21.3z"/><path d="m33.1 3v18.6"/><path d="m97 3v18.6"/></g></svg>