<?xml version="1.0" encoding="utf-8"?>
<!-- Generator: Adobe Illustrator 25.0.1, SVG Export Plug-In . SVG Version: 6.00 Build 0)  -->
<svg version="1.1" id="Layer_1" xmlns="http://www.w3.org/2000/svg" xmlns:xlink="http://www.w3.org/1999/xlink" x="0px" y="0px"
	 viewBox="0 0 130.1 123.2" style="enable-background:new 0 0 130.1 123.2;" xml:space="preserve">
<style type="text/css">
	.st0{fill:none;stroke:#434343;stroke-width:5.3266;}
</style>
<g>
	<line class="st0" x1="84.8" y1="11.8" x2="45.3" y2="11.8"/>
	<path class="st0" d="M102.7,31.7H27.4c-6.7,0-12.2,5.5-12.2,12.2v55.4c0,6.7,5.5,12.2,12.2,12.2h75.3c6.7,0,12.2-5.5,12.2-12.2
		V43.8C114.9,37.1,109.4,31.7,102.7,31.7z"/>
	<path class="st0" d="M84.8,71.5c0,10.9-8.8,19.7-19.7,19.7c-10.9,0-19.7-8.8-19.7-19.7c0-10.9,8.8-19.7,19.7-19.7
		C76,51.8,84.8,60.7,84.8,71.5z"/>
</g>
</svg>
