<?xml version="1.0" encoding="utf-8"?>
<!-- Generator: Adobe Illustrator 25.0.1, SVG Export Plug-In . SVG Version: 6.00 Build 0)  -->
<svg version="1.1" id="Layer_1" xmlns="http://www.w3.org/2000/svg" xmlns:xlink="http://www.w3.org/1999/xlink" x="0px" y="0px"
	 viewBox="0 0 150 150" style="enable-background:new 0 0 150 150;" xml:space="preserve">
<style type="text/css">
	.st0{fill:url(#SVGID_1_);}
	.st1{fill:url(#SVGID_2_);}
	.st2{fill:url(#SVGID_3_);}
</style>
<g>
	<linearGradient id="SVGID_1_" gradientUnits="userSpaceOnUse" x1="7.0419" y1="142.7314" x2="153.678" y2="-30.0897">
		<stop  offset="0" style="stop-color:#56AF00"/>
		<stop  offset="1" style="stop-color:#97CE00"/>
	</linearGradient>
	<path class="st0" d="M120.1,43.7l-0.9-0.9c-1.9-1.9-4.9-1.9-6.8,0L65.8,89.4L43.5,67c-1.9-1.9-4.9-1.9-6.8,0l-0.9,0.9
		c-1.9,1.9-1.9,4.9,0,6.8l30,30l7.7-7.7c0,0,46.6-46.6,46.6-46.6C121.9,48.6,121.9,45.6,120.1,43.7z"/>
	<g>
		<linearGradient id="SVGID_2_" gradientUnits="userSpaceOnUse" x1="13.1405" y1="147.9059" x2="159.7765" y2="-24.9152">
			<stop  offset="0" style="stop-color:#56AF00"/>
			<stop  offset="1" style="stop-color:#97CE00"/>
		</linearGradient>
		<path class="st1" d="M75,148.7c-40.7,0-73.7-33.1-73.7-73.7C1.3,34.3,34.3,1.3,75,1.3c10.6,0,20.9,2.2,30.5,6.6
			c2.1,1,3.1,3.5,2.1,5.6c-1,2.1-3.5,3.1-5.6,2.1c-8.5-3.9-17.6-5.8-27-5.8C39,9.7,9.7,39,9.7,75S39,140.3,75,140.3
			S140.3,111,140.3,75c0-4.1-0.4-8.2-1.1-12.2c-0.4-2.3,1.1-4.5,3.4-4.9c2.3-0.4,4.5,1.1,4.9,3.4c0.9,4.5,1.3,9.1,1.3,13.8
			C148.7,115.7,115.7,148.7,75,148.7z"/>
	</g>
	<g>
		<linearGradient id="SVGID_3_" gradientUnits="userSpaceOnUse" x1="24.1694" y1="157.2638" x2="170.8055" y2="-15.5573">
			<stop  offset="0" style="stop-color:#56AF00"/>
			<stop  offset="1" style="stop-color:#97CE00"/>
		</linearGradient>
		<path class="st2" d="M133.1,35.4c0,3.1-2.5,5.5-5.5,5.5c-3.1,0-5.5-2.5-5.5-5.5c0-3.1,2.5-5.5,5.5-5.5
			C130.6,29.8,133.1,32.3,133.1,35.4z"/>
	</g>
</g>
</svg>
