<?xml version="1.0" encoding="utf-8"?>
<!-- Generator: Adobe Illustrator 25.0.1, SVG Export Plug-In . SVG Version: 6.00 Build 0)  -->
<svg version="1.1" id="Layer_1" xmlns="http://www.w3.org/2000/svg" xmlns:xlink="http://www.w3.org/1999/xlink" x="0px" y="0px"
	 viewBox="0 0 960 843.3" style="enable-background:new 0 0 960 843.3;" xml:space="preserve">
<style type="text/css">
	.st0{fill:#EBF1FF;}
	.st1{opacity:0.3;fill:none;stroke:#606060;stroke-width:6;stroke-miterlimit:10;}
	.st2{fill:#FCD80E;}
	.st3{opacity:0.5;clip-path:url(#SVGID_2_);}
	.st4{fill:#FFFFFF;}
	.st5{opacity:0.5;clip-path:url(#SVGID_5_);}
	.st6{opacity:0.5;clip-path:url(#SVGID_8_);}
	.st7{fill:url(#SVGID_9_);}
	.st8{fill:url(#SVGID_10_);}
	.st9{fill:url(#SVGID_11_);}
	.st10{fill:url(#SVGID_12_);}
	.st11{fill:url(#SVGID_13_);}
	.st12{opacity:0.3;fill:url(#SVGID_14_);}
	.st13{fill:url(#SVGID_15_);}
	.st14{fill:url(#SVGID_16_);}
	.st15{fill:url(#SVGID_17_);}
	.st16{opacity:0.3;fill:url(#SVGID_18_);}
	.st17{fill:url(#SVGID_19_);}
	.st18{fill:url(#SVGID_20_);}
	.st19{fill:url(#SVGID_21_);}
	.st20{fill:url(#SVGID_22_);}
	.st21{fill:url(#SVGID_23_);}
	.st22{fill:url(#SVGID_24_);}
	.st23{opacity:0.3;fill:url(#SVGID_25_);}
	.st24{fill:url(#SVGID_26_);}
	.st25{fill:url(#SVGID_27_);}
	.st26{fill:url(#SVGID_28_);}
	.st27{fill:url(#SVGID_29_);}
	.st28{fill:url(#SVGID_30_);}
	.st29{fill:#D889E1;}
	.st30{fill:url(#SVGID_31_);}
	.st31{opacity:0.2;}
	.st32{clip-path:url(#SVGID_33_);}
	.st33{clip-path:url(#SVGID_33_);fill:#FFFFFF;}
	.st34{fill:url(#SVGID_34_);}
	.st35{fill:#F4F7FA;}
	.st36{fill:url(#SVGID_35_);}
	.st37{fill:url(#SVGID_36_);}
	.st38{fill:url(#SVGID_37_);}
	.st39{fill:url(#SVGID_38_);}
	.st40{fill:#F1F2F2;}
	.st41{fill:#F6EAE5;}
</style>
<path class="st0" d="M983.4-2760.5H-627.2c-31.7,0-50.2-35.8-31.9-61.7l44.6-62.9c7.3-10.3,19.2-16.5,31.8-16.5l1566-1
	c23.1,0,44.8,11.2,58.1,30.1l0,0C1074.6-2825.3,1040.9-2760.5,983.4-2760.5z"/>
<line class="st1" x1="-569.1" y1="-2877.3" x2="-622.8" y2="-2791.5"/>
<line class="st1" x1="-508.1" y1="-2877.3" x2="-561.8" y2="-2791.5"/>
<line class="st1" x1="-447.1" y1="-2877.3" x2="-500.8" y2="-2791.5"/>
<line class="st1" x1="-386.1" y1="-2877.3" x2="-439.8" y2="-2791.5"/>
<line class="st1" x1="-325.1" y1="-2877.3" x2="-378.8" y2="-2791.5"/>
<line class="st1" x1="-264.1" y1="-2877.3" x2="-317.8" y2="-2791.5"/>
<line class="st1" x1="-203.1" y1="-2877.3" x2="-256.8" y2="-2791.5"/>
<line class="st1" x1="-142.1" y1="-2877.3" x2="-195.8" y2="-2791.5"/>
<line class="st1" x1="-81.1" y1="-2877.3" x2="-134.8" y2="-2791.5"/>
<line class="st1" x1="-20.1" y1="-2877.3" x2="-73.8" y2="-2791.5"/>
<line class="st1" x1="40.9" y1="-2877.3" x2="-12.8" y2="-2791.5"/>
<line class="st1" x1="101.9" y1="-2877.3" x2="48.2" y2="-2791.5"/>
<line class="st1" x1="162.9" y1="-2877.3" x2="109.2" y2="-2791.5"/>
<line class="st1" x1="223.9" y1="-2877.3" x2="170.2" y2="-2791.5"/>
<line class="st1" x1="284.9" y1="-2877.3" x2="231.2" y2="-2791.5"/>
<line class="st1" x1="345.9" y1="-2877.3" x2="292.2" y2="-2791.5"/>
<line class="st1" x1="406.9" y1="-2877.3" x2="353.2" y2="-2791.5"/>
<line class="st1" x1="467.9" y1="-2877.3" x2="414.2" y2="-2791.5"/>
<line class="st1" x1="528.9" y1="-2877.3" x2="475.2" y2="-2791.5"/>
<line class="st1" x1="589.9" y1="-2877.3" x2="536.2" y2="-2791.5"/>
<line class="st1" x1="650.9" y1="-2877.3" x2="597.2" y2="-2791.5"/>
<line class="st1" x1="711.9" y1="-2877.3" x2="658.2" y2="-2791.5"/>
<line class="st1" x1="772.9" y1="-2877.3" x2="719.2" y2="-2791.5"/>
<line class="st1" x1="833.9" y1="-2877.3" x2="780.2" y2="-2791.5"/>
<line class="st1" x1="894.9" y1="-2877.3" x2="841.2" y2="-2791.5"/>
<line class="st1" x1="955.9" y1="-2877.3" x2="902.2" y2="-2791.5"/>
<line class="st1" x1="1016.9" y1="-2877.3" x2="963.2" y2="-2791.5"/>
<g>
	<path class="st2" d="M-280.9-2835.4c-0.1-20.7,16.7-37.6,37.4-37.7c20.7-0.1,37.6,16.6,37.7,37.4c0.1,20.7-16.7,37.6-37.4,37.7
		C-263.9-2797.9-280.8-2814.7-280.9-2835.4z"/>
	<path class="st2" d="M-410.1-2864.5c-3,0-5.2-1.3-6.7-3.9c-1.5-2.6-1.8-5.6-1-9.1c0.8-3.6,2.5-6.8,5.2-9.4c2.6-2.6,5.4-3.9,8.4-3.9
		l5.3-0.1l-5.9,26.3L-410.1-2864.5z"/>
	<path class="st2" d="M-389-2992.4c2.6-2.6,5.4-3.9,8.4-3.9l5.3,0l-5.9,26.3l-5.3,0c-3,0-5.2-1.3-6.7-3.9c-1.5-2.6-1.8-5.7-1-9.4
		C-393.3-2986.8-391.6-2989.8-389-2992.4z"/>
	<path class="st2" d="M-509.2-2978l0.6,156.6l206.4-0.4c6.1,0,11-5,11-11.1l0-2.5c-0.1-26.4,21.2-47.9,47.7-48l1.5,0
		c6.1,0,11-5,11-11.1l-0.3-84.1c-0.1-35.5-29-64.2-64.5-64l-149.3,0.1C-480.7-3042.4-509.3-3013.5-509.2-2978z M-336.3-2910.8
		c5.3,9,6.5,19.9,3.6,32.8c-2.9,12.7-8.9,23.6-18.3,32.6c-9.3,9-19.1,13.6-29.3,13.6l-37.2,0c-10.2,0.1-18-4.4-23.3-13.3
		c-5.3-8.9-6.5-19.8-3.7-32.4c2.9-12.8,9-23.7,18.3-32.7c9.3-9,19.1-13.5,29.3-13.6l31.9,0.1l-13.2,59.1l5.3-0.1
		c3,0,5.8-1.3,8.4-3.9c2.6-2.6,4.4-5.7,5.2-9.2c0.8-3.7,0.5-6.8-1-9.4c-1.5-2.6-3.7-3.9-6.7-3.9l7.4-33
		C-349.4-2924.2-341.6-2919.8-336.3-2910.8z M-417.1-2950.6c-5.3-9-6.5-19.8-3.6-32.7c2.8-12.7,8.9-23.5,18.2-32.5
		c9.3-9,19.1-13.5,29.3-13.4l37.2-0.2c10.2,0,17.9,4.5,23.2,13.5c5.3,9,6.5,19.9,3.6,32.6c-2.9,12.9-9,23.8-18.3,32.8
		c-9.3,9-19.1,13.5-29.3,13.5l7.4-33c3,0,5.8-1.4,8.4-4c2.6-2.6,4.4-5.8,5.2-9.4c0.8-3.5,0.4-6.6-1-9.2c-1.5-2.6-3.7-3.9-6.7-3.9
		l-5.3,0l-13.2,59.1l-31.9,0.2C-404.1-2937.1-411.8-2941.6-417.1-2950.6z"/>
	<polygon class="st2" points="-518.5,-2844.2 -518.4,-2821.4 -523.7,-2821.1 -523.8,-2843.9 	"/>
	<path class="st2" d="M-554.4-2823.3l-0.1-17.7c0-4.5,3.6-8.1,8-8.1l4.7-0.2c4.5,0,8.1,3.6,8.1,8l0.1,17.7c0,4.5-3.6,8.1-8,8.1
		l-4.7,0.2C-550.8-2815.3-554.4-2818.9-554.4-2823.3z"/>
	<path class="st2" d="M-359.6-2924.2"/>
</g>
<g>
	<path class="st2" d="M88.3-2887.4c-0.1-14.6,11.7-26.5,26.3-26.6c14.6-0.1,26.5,11.7,26.6,26.3c0.1,14.6-11.7,26.5-26.3,26.6
		C100.3-2860.9,88.4-2872.7,88.3-2887.4z"/>
	<path class="st2" d="M-2.8-2907.9c-2.1,0-3.7-0.9-4.7-2.8c-1-1.8-1.3-4-0.7-6.4c0.6-2.6,1.8-4.8,3.7-6.6c1.9-1.8,3.8-2.7,5.9-2.7
		l3.8,0L1-2907.9L-2.8-2907.9z"/>
	<path class="st2" d="M12.1-2998c1.9-1.8,3.8-2.8,5.9-2.8l3.7,0l-4.2,18.5l-3.7,0c-2.1,0-3.7-0.9-4.7-2.7c-1-1.8-1.3-4-0.7-6.6
		C9.1-2994,10.3-2996.2,12.1-2998z"/>
	<path class="st2" d="M-72.6-2987.8l0.4,110.3l145.5-0.3c4.3,0,7.8-3.5,7.7-7.8l0-1.8c-0.1-18.6,15-33.8,33.6-33.8l1.1,0
		c4.3,0,7.8-3.5,7.7-7.8l-0.2-59.3c-0.1-25-20.5-45.2-45.5-45.1l-105.2,0.1C-52.5-3033.2-72.7-3012.8-72.6-2987.8z M49.2-2940.5
		c3.7,6.3,4.6,14,2.5,23.1c-2,9-6.3,16.6-12.9,23c-6.6,6.4-13.4,9.6-20.7,9.6l-26.2,0c-7.2,0-12.7-3.1-16.4-9.4
		c-3.7-6.3-4.6-13.9-2.6-22.9c2-9,6.3-16.7,12.9-23c6.6-6.3,13.4-9.5,20.6-9.6l22.4,0.1l-9.3,41.6l3.7,0c2.1,0,4.1-0.9,5.9-2.8
		c1.9-1.8,3.1-4,3.6-6.5c0.6-2.6,0.3-4.8-0.7-6.6c-1-1.8-2.6-2.8-4.7-2.8l5.2-23.3C40-2949.9,45.5-2946.8,49.2-2940.5z M-7.7-2968.5
		c-3.7-6.3-4.6-14-2.6-23c2-8.9,6.3-16.6,12.8-22.9c6.6-6.3,13.4-9.5,20.6-9.5l26.2-0.1c7.2,0,12.6,3.2,16.4,9.5
		c3.7,6.3,4.6,14,2.6,23c-2,9.1-6.3,16.8-12.9,23.1c-6.6,6.4-13.4,9.5-20.6,9.5l5.2-23.3c2.1,0,4.1-1,5.9-2.8
		c1.9-1.8,3.1-4.1,3.7-6.6c0.6-2.5,0.3-4.7-0.7-6.5c-1-1.8-2.6-2.7-4.7-2.7l-3.7,0l-9.3,41.6L8.7-2959C1.5-2959-4-2962.2-7.7-2968.5
		z"/>
	<polygon class="st2" points="-79.1,-2893.6 -79.1,-2877.5 -82.8,-2877.3 -82.9,-2893.3 	"/>
	<path class="st2" d="M-104.5-2878.9l0-12.5c0-3.1,2.5-5.7,5.7-5.7l3.3-0.1c3.1,0,5.7,2.5,5.7,5.7l0,12.5c0,3.1-2.5,5.7-5.7,5.7
		l-3.3,0.1C-101.9-2873.2-104.5-2875.7-104.5-2878.9z"/>
	<path class="st2" d="M32.8-2949.9"/>
</g>
<g>
	<path class="st2" d="M912.3-2903.9c-0.1-18.8,15.1-34,33.9-34.1c18.8-0.1,34,15.1,34.1,33.8c0.1,18.8-15.1,34.1-33.8,34.1
		C927.6-2869.9,912.3-2885.1,912.3-2903.9z"/>
	<path class="st2" d="M795.2-2930.2c-2.7,0-4.7-1.2-6-3.5c-1.3-2.3-1.6-5.1-0.9-8.3c0.7-3.3,2.3-6.1,4.7-8.5
		c2.4-2.4,4.9-3.5,7.6-3.5l4.8,0l-5.3,23.8L795.2-2930.2z"/>
	<path class="st2" d="M814.3-3046c2.4-2.3,4.9-3.5,7.6-3.6l4.8,0l-5.3,23.8l-4.8,0c-2.7,0-4.7-1.1-6-3.5c-1.3-2.3-1.6-5.2-0.9-8.5
		C810.4-3040.9,812-3043.7,814.3-3046z"/>
	<path class="st2" d="M705.5-3032.9l0.6,141.8l186.9-0.3c5.5,0,10-4.5,9.9-10l0-2.3c-0.1-23.9,19.2-43.4,43.1-43.5l1.4,0
		c5.5,0,10-4.5,10-10l-0.3-76.2c-0.1-32.1-26.3-58.1-58.4-58l-135.2,0.1C731.4-3091.2,705.4-3065.1,705.5-3032.9z M862-2972.1
		c4.8,8.1,5.9,18,3.3,29.7c-2.6,11.5-8.1,21.4-16.5,29.6s-17.3,12.3-26.5,12.4l-33.7,0c-9.2,0.1-16.3-4-21.1-12.1
		c-4.8-8.1-5.9-17.9-3.3-29.4c2.6-11.6,8.1-21.5,16.6-29.6c8.4-8.1,17.3-12.2,26.5-12.3l28.8,0.1l-12,53.5l4.8,0
		c2.7,0,5.2-1.2,7.6-3.5c2.4-2.4,4-5.1,4.7-8.3c0.7-3.3,0.4-6.2-0.9-8.5c-1.3-2.4-3.3-3.5-6-3.6l6.7-29.9
		C850.2-2984.3,857.2-2980.2,862-2972.1z M788.9-3008.1c-4.8-8.1-5.9-18-3.3-29.6c2.6-11.5,8.1-21.3,16.5-29.4
		c8.4-8.1,17.3-12.2,26.5-12.2l33.7-0.2c9.2,0,16.2,4.1,21,12.2c4.8,8.1,5.9,18,3.3,29.5c-2.6,11.6-8.1,21.6-16.6,29.7
		c-8.4,8.2-17.3,12.2-26.5,12.2l6.7-29.9c2.7,0,5.3-1.2,7.6-3.6c2.4-2.4,4-5.2,4.7-8.5c0.7-3.2,0.4-6-0.9-8.3
		c-1.3-2.4-3.3-3.5-6-3.5l-4.8,0l-12,53.5l-28.9,0.2C800.7-2995.9,793.7-3000,788.9-3008.1z"/>
	<polygon class="st2" points="697.1,-2911.8 697.2,-2891.2 692.4,-2890.9 692.3,-2911.5 	"/>
	<path class="st2" d="M664.6-2892.9l-0.1-16c0-4,3.2-7.3,7.3-7.3l4.3-0.2c4,0,7.3,3.2,7.3,7.3l0.1,16c0,4-3.2,7.3-7.3,7.3l-4.3,0.2
		C667.9-2885.6,664.6-2888.9,664.6-2892.9z"/>
	<path class="st2" d="M841-2984.2"/>
</g>
<g>
	<path class="st2" d="M317.8-2891c-22.6,0.2-40.7,18.7-40.4,41.3c0.2,22.6,18.7,40.7,41.3,40.4c22.6-0.2,40.7-18.7,40.4-41.3
		C358.9-2873.2,340.4-2891.3,317.8-2891z"/>
	<path class="st2" d="M377.2-3025.8c0-3.2-1.4-6.3-4.3-9.1c-2.8-2.9-6.3-4.7-10.2-5.6c-3.8-0.8-7.1-0.4-10,1.2
		c-2.8,1.6-4.2,4.1-4.2,7.3l0.1,5.8l28.7,6.2L377.2-3025.8z"/>
	<path class="st2" d="M488-3010c-2.9-2.8-6.2-4.7-10-5.5c-4-0.9-7.4-0.5-10.2,1.1c-2.8,1.6-4.2,4.1-4.2,7.3l0,5.8l28.7,6.2l0-5.8
		C492.3-3004.1,490.8-3007.1,488-3010z"/>
	<path class="st2" d="M543.4-2908.9l-1.3-162.6c-0.4-38.6-32.1-69.7-70.7-69.2l-170.5,1.8l1.9,224.8c0.1,6.6,5.5,11.9,12.1,11.9
		l2.7,0c28.8-0.3,52.4,22.8,52.7,51.5l0,1.7c0.1,6.6,5.5,12,12.1,11.9l91.6-1C512.8-2838.5,543.8-2870.2,543.4-2908.9z M399.5-2952
		c-9.8,5.8-21.6,7.2-35.7,4.2c-13.9-3-25.8-9.6-35.7-19.6c-9.9-10.1-14.9-20.7-15.1-31.8l-0.2-40.5c-0.2-11.1,4.6-19.6,14.3-25.4
		c9.7-5.8,21.5-7.2,35.3-4.2c14,3,25.9,9.6,35.7,19.7c9.9,10.1,14.9,20.7,15,31.8l0.1,34.7l-64.4-14l0.1,5.8c0,3.2,1.4,6.3,4.3,9.1
		c2.9,2.9,6.2,4.7,10.1,5.6c4,0.9,7.4,0.5,10.2-1.1c2.8-1.6,4.2-4,4.2-7.3l36,7.8C414-2966.3,409.2-2957.8,399.5-2952z
		 M514.1-2927.1c-9.7,5.8-21.6,7.2-35.5,4.2c-14-3-26-9.6-35.9-19.7c-9.9-10.1-14.9-20.7-14.9-31.8l36,7.8c0.1,3.3,1.5,6.3,4.4,9.2
		c2.9,2.9,6.3,4.7,10.3,5.6c3.9,0.8,7.2,0.4,10-1.2c2.8-1.6,4.2-4.1,4.2-7.3l0-5.8l-64.4-14l-0.5-34.8c-0.1-11.1,4.8-19.6,14.5-25.4
		c9.7-5.8,21.6-7.2,35.5-4.2c13.8,3,25.7,9.5,35.5,19.6c9.9,10.1,14.8,20.7,14.9,31.8l0.5,40.5
		C528.7-2941.4,523.8-2932.9,514.1-2927.1z"/>
	
		<rect x="300.1" y="-3278.4" transform="matrix(0.9999 -1.059017e-02 1.059017e-02 0.9999 34.055 3.1293)" class="st2" width="24.9" height="128.7"/>
	<path class="st2" d="M321.3-3289.2c4.9,0,8.8-4,8.7-8.9l-0.5-42.5c-0.1-4.9-4-8.7-8.9-8.7l-19.3,0.2c-4.9,0-8.8,4-8.7,8.9l0.5,42.5
		c0,4.9,4,8.8,8.9,8.7L321.3-3289.2z"/>
</g>
<g>
	<g>
		<g>
			<defs>
				<path id="SVGID_1_" d="M418.7,735.1c-62.8-35.4-137.8-89.4-194.4-167.7c-14.5-20-103.7-143.4-58.1-190.1
					c16.1-16.5,35.3-9.5,57.2-31.1c25.9-25.6,15.5-51.8,24-97.4c5.1-27.2,19.9-106.8,80.6-120.8c36.3-8.4,87.4,7.1,117.2,34.8
					c43.7,40.6,32.9,99.6,13,199c-17.6,88.2-34.4,102.7-46,166.4C403.5,575.5,398.7,644.6,418.7,735.1z"/>
			</defs>
			<use xlink:href="#SVGID_1_"  style="overflow:visible;fill:#D8DEE8;"/>
			<clipPath id="SVGID_2_">
				<use xlink:href="#SVGID_1_"  style="overflow:visible;"/>
			</clipPath>
			<g class="st3">
				<g>
					<path class="st4" d="M425.3,743.5c14.4,19.7,30.5,37.9,48.4,54.8c54.7,51.6,122.7,88.5,202.2,109.6l0.9-3.6
						c-78.9-20.9-146.4-57.5-200.6-108.7C282.2,612.5,346.8,310,371.2,221.6c13.8-50.1,43.7-97.3,88.7-140.2l-2.5-2.7
						c-45.5,43.4-75.7,91.1-89.7,141.9c-20.1,72.8-40.9,184.3-25.7,302.5C352.9,609.1,380.9,682.9,425.3,743.5z"/>
				</g>
				<g>
					<path class="st4" d="M341,372.2l1.5-0.6c1.2-0.5,120.4-48,150.1-158.6l-3.6-1c-27.4,102-132.4,149.5-146.3,155.5
						c-83-161.9-25.4-259.6-5.7-285.7c0.5-0.7,0.9-1.2,1-1.4l-3.2-1.8c-0.1,0.2-0.4,0.5-0.7,1c-20.1,26.7-79,126.4,6.1,291.2
						L341,372.2z"/>
				</g>
				<g>
					<path class="st4" d="M201.6,421.3c24,32.7,66.5,72.1,141.2,101.4l0.9,0.4l0.8-0.6c0.8-0.6,80.6-56.9,132.5-165.9l52.3-109.8
						l-3.3-1.6L473.7,355C425,457.2,351.6,512.7,343.2,518.9c-87.4-34.5-130-82.9-150.3-117.5c-22-37.5-23.3-67-23.3-67.3l-3.7,0.1
						c0,1.2,1.3,30.8,23.8,69C193.1,409,197,415,201.6,421.3z"/>
				</g>
			</g>
		</g>
	</g>
	<g>
		<g>
			<g>
				<defs>
					<path id="SVGID_3_" d="M514.2,733.4c24.1-18.6,56.5-49.3,74.3-95.6c23.4-60.7,1.1-94.7,14.3-200c8.3-66.6,14.8-113,50.9-134.6
						c28.3-16.9,71.4-16.7,95.5,4c20.1,17.2,29.4,50.4,31,73.6c1.3,18.9-2.5,32.2,7.2,43.1c10,11.1,22.4,6.6,31.9,15
						c19.3,17.1,2.4,65.8-0.3,73.7c-30.4,87.5-118.9,139.9-157.8,162.3C629.1,693.2,579.9,717.3,514.2,733.4z"/>
				</defs>
				<linearGradient id="SVGID_4_" gradientUnits="userSpaceOnUse" x1="514.2137" y1="512.1603" x2="828.592" y2="512.1603">
					<stop  offset="0" style="stop-color:#AA80F9"/>
					<stop  offset="0.9964" style="stop-color:#6165D7"/>
				</linearGradient>
				<use xlink:href="#SVGID_3_"  style="overflow:visible;fill:url(#SVGID_4_);"/>
				<clipPath id="SVGID_5_">
					<use xlink:href="#SVGID_3_"  style="overflow:visible;"/>
				</clipPath>
				<g class="st5">
					<g>
						<path class="st4" d="M487.5,747.8l-0.6-2.4c69.8-19,158.7-57.6,185.4-133.7c9.8-28,10.2-57.9,10.8-99.4
							c0.5-33.1-2.2-56.6-4.6-77.3c-3.1-27.1-5.5-48.6,0.6-78.7c6.2-30.6,19.4-60.4,39.2-88.4l2,1.4c-19.6,27.8-32.7,57.2-38.8,87.5
							c-6,29.8-3.6,51.1-0.6,78c2.4,20.8,5,44.4,4.6,77.6c-0.6,40.1-1,71.8-10.9,100.2c-12.7,36.3-40.8,67.5-83.5,93
							C562.2,722.7,527.4,736.9,487.5,747.8z"/>
					</g>
					<g>
						<path class="st4" d="M684.6,489.5l-1.2-0.7c-0.2-0.1-21.2-12-40.9-36.6c-18.2-22.8-39-61.4-34.9-116.4l2.5,0.2
							c-4,54.1,16.5,92.2,34.4,114.7c16.7,20.9,34.3,32.5,38.9,35.3c23.8-57.6,59.3-91.7,85-110.2c28.1-20.2,50.9-26.7,51.1-26.8
							l0.7,2.4c-0.2,0.1-22.7,6.5-50.4,26.5c-25.6,18.5-61.1,52.6-84.6,110.4L684.6,489.5z"/>
					</g>
					<g>
						<path class="st4" d="M680.5,578.8l-0.4-0.8c-0.2-0.3-18.7-33.9-43.9-63.9c-25-29.8-88.8-45.6-89.5-45.7l0.6-2.4
							c2.7,0.6,65.3,16.1,90.8,46.5c23.2,27.6,40.7,58.3,43.7,63.5c69.9-14.4,157.9-166.2,158.8-167.7l2.1,1.2
							c-0.2,0.4-22.7,39.3-53.5,79.3c-41.6,53.9-77.8,84.1-107.8,89.8L680.5,578.8z"/>
					</g>
					<g>
						<path class="st4" d="M601.7,698.5l1.4-2c20.3-28.4,20.8-60.3,1.7-94.8c-14.4-25.8-35-43.4-35.2-43.6l1.6-1.9
							c0.2,0.2,21.2,18.1,35.8,44.3c19,34,18.8,67-0.4,95.4c8.4-0.4,37.5-2.4,74.6-11.4c40.4-9.8,98.7-30.2,147.1-71.8l93.9-80.8
							l1.6,1.9l-93.9,80.8c-48.7,41.9-107.4,62.5-148.1,72.4c-44.1,10.7-77.1,11.5-77.5,11.5L601.7,698.5z"/>
					</g>
				</g>
			</g>
		</g>
		<g>
			<g>
				<defs>
					<path id="SVGID_6_" d="M603.8,755.6c47.7,5.7,109.2,6.2,170.5-13.6c15.6-5,112.2-36.2,106.1-79.3c-2.2-15.2-15.2-19-18.5-39.2
						c-3.8-24,12.1-33.9,25.5-61.7c8-16.6,31.4-65.2,4.2-96.6c-16.2-18.8-49.7-30.6-76.6-27.4c-39.4,4.6-56.9,40.5-85.3,101.8
						c-25.2,54.3-21.9,68.7-40.8,107.5C674.8,675.9,650.2,714.9,603.8,755.6z"/>
				</defs>
				<linearGradient id="SVGID_7_" gradientUnits="userSpaceOnUse" x1="846.7394" y1="433.1071" x2="735.5459" y2="731.5742">
					<stop  offset="3.597120e-03" style="stop-color:#E38DDD"/>
					<stop  offset="1" style="stop-color:#9571F6"/>
				</linearGradient>
				<use xlink:href="#SVGID_6_"  style="overflow:visible;fill:url(#SVGID_7_);"/>
				<clipPath id="SVGID_8_">
					<use xlink:href="#SVGID_6_"  style="overflow:visible;"/>
				</clipPath>
				<g class="st6">
					<g>
						<path class="st4" d="M597,757.5c-15.5,4.9-31.3,8.4-47.6,10.4c-49.7,6.2-100.7-0.8-151.8-20.7l0.9-2.3
							c50.6,19.8,101.3,26.7,150.6,20.6c176.3-22,260.7-209.9,282.4-267c12.3-32.4,14.8-69.4,7.5-110.2l2.4-0.4
							c7.4,41.2,4.8,78.8-7.6,111.5c-17.8,47-50.6,115.1-105.3,172.6C688.8,713.8,644.7,742.5,597,757.5z"/>
					</g>
					<g>
						<path class="st4" d="M788.4,591.3l-0.6-0.9c-0.5-0.7-45.8-73.2-18.2-144.3l2.3,0.9c-25.5,65.6,12.2,132.4,17.4,141.1
							c108.3-54.3,115.8-129.5,115.5-151.3c0-0.6,0-1,0-1.1l2.4,0.3c0,0.1,0,0.4,0,0.8c0.3,22.2-7.3,99-117.9,154L788.4,591.3z"/>
					</g>
					<g>
						<path class="st4" d="M843.9,672.5c-25.7,8.1-64.1,12.6-115.7-1.1l-0.6-0.2l-0.2-0.6c-0.2-0.6-20.9-62.3-5.9-141.3l15.1-79.6
							l2.4,0.5l-15.1,79.6c-14.1,74.1,3.5,132.8,5.6,139.4c60.6,15.9,102.4,6.6,126.9-3.9c26.6-11.5,38.9-26.8,39-27l1.9,1.5
							c-0.5,0.6-12.8,16-40,27.7C853.4,669.2,848.9,670.9,843.9,672.5z"/>
					</g>
				</g>
			</g>
		</g>
	</g>
	<g>
		
			<linearGradient id="SVGID_9_" gradientUnits="userSpaceOnUse" x1="2728.8567" y1="728.1514" x2="2764.6252" y2="728.1514" gradientTransform="matrix(-0.9989 4.640000e-02 4.640000e-02 0.9989 2931.1128 -54.0564)">
			<stop  offset="0" style="stop-color:#444B8C"/>
			<stop  offset="0.9964" style="stop-color:#26264F"/>
		</linearGradient>
		<path class="st7" d="M209.5,782.8c-6.4,5.1-6.7,8.8-6.5,10.6c0.3,2.9,2.5,4,7.7,9.4c7,7.3,5.9,8.3,9.5,11c7.9,5.9,19,5.5,19.7,3.5
			c0.5-1.4-4.6-2.5-10.3-9.2c-5.3-6.1-7.1-12.2-7.6-14c-0.9-3.2-1.1-6-1.1-8L209.5,782.8z"/>
		
			<linearGradient id="SVGID_10_" gradientUnits="userSpaceOnUse" x1="2756.6572" y1="685.3729" x2="2738.6899" y2="718.2399" gradientTransform="matrix(-0.9989 4.640000e-02 4.640000e-02 0.9989 2931.1128 -54.0564)">
			<stop  offset="0" style="stop-color:#FFC444"/>
			<stop  offset="0.9964" style="stop-color:#F36F56"/>
		</linearGradient>
		<path class="st8" d="M230.8,767.1L218.2,789c-3,1.3-5.9,0.7-8.6-3.2l4.9-26.5L230.8,767.1z"/>
		
			<linearGradient id="SVGID_11_" gradientUnits="userSpaceOnUse" x1="2689.6262" y1="723.6396" x2="2752.8809" y2="447.7406" gradientTransform="matrix(-0.9989 4.640000e-02 4.640000e-02 0.9989 2931.1128 -54.0564)">
			<stop  offset="0" style="stop-color:#AA80F9"/>
			<stop  offset="0.9964" style="stop-color:#6165D7"/>
		</linearGradient>
		<path class="st9" d="M246,487.1c12.2,20.6,32,60.4,36,114.2c4,53.1-9.4,93.5-15,108.6c-10.5,28.3-28.8,58-39.4,72.1
			c-7.2-3-11.4-7.7-18.5-10.7c1.1-3.9,4.4-16.8,6.5-24.4c1.6-5.9,4.6-16.9,5.2-19.3c5.1-19.7,1.1-34.4,2.5-58.7
			c1.7-28.4,8.1-25.1,7.2-42.1c-1.5-25.4-15.9-31.4-32.4-68.2c-11.3-25.2-23.2-51.6-12.3-66.1C199.4,474.3,241.3,485.7,246,487.1z"
			/>
		
			<linearGradient id="SVGID_12_" gradientUnits="userSpaceOnUse" x1="2832.2146" y1="814.3777" x2="2881.4353" y2="814.3777" gradientTransform="matrix(-1 0 0 1 3034.0911 0)">
			<stop  offset="0" style="stop-color:#444B8C"/>
			<stop  offset="0.9964" style="stop-color:#26264F"/>
		</linearGradient>
		<path class="st10" d="M157.6,802.8c-3.8,2.4-6.1,8.2-4.4,11.8c1.7,3.6,6.1,2.4,16.7,5.7c11.3,3.5,13.6,7,21.9,7
			c3.4,0,9.5-0.6,10-2.9c0.4-1.6-2.2-3.2-10.8-8.9c-12.1-8.2-12-8.4-14.7-9.6C169.5,802.7,162.7,799.6,157.6,802.8z"/>
		
			<linearGradient id="SVGID_13_" gradientUnits="userSpaceOnUse" x1="2859.001" y1="811.8782" x2="2877.9695" y2="772.6177" gradientTransform="matrix(-1 0 0 1 3034.0911 0)">
			<stop  offset="0" style="stop-color:#FFC444"/>
			<stop  offset="0.9964" style="stop-color:#F36F56"/>
		</linearGradient>
		<path class="st11" d="M175.8,785.5l-4.7,21.3c-0.6,1-7.3,3.2-11.9,0l1.7-21.3H175.8z"/>
		
			<linearGradient id="SVGID_14_" gradientUnits="userSpaceOnUse" x1="2690.5022" y1="723.8405" x2="2753.7568" y2="447.9415" gradientTransform="matrix(-0.9989 4.640000e-02 4.640000e-02 0.9989 2931.1128 -54.0564)">
			<stop  offset="0" style="stop-color:#AA80F9"/>
			<stop  offset="0.9964" style="stop-color:#6165D7"/>
		</linearGradient>
		<path class="st12" d="M185.7,492.5c13.8-18.2,55.6-6.8,60.3-5.4c5,8.5,11.3,20.2,17.3,34.8c-14.8-2.9-21.3-0.3-24.3,3.2
			c-11.6,13.7,24.8,43.8,17.3,89.6c-2.9,17.9-10.6,25.9-9.2,47.8c1,16.3,6.1,24.5,9.6,36.4c2.1,7.1,3.7,15.9,3.8,26.5
			c-10.5,23.1-24.3,45-32.9,56.5c-7.2-3-11.4-7.7-18.5-10.7c1.1-3.9,4.4-16.8,6.5-24.4c1.6-5.9,4.6-16.9,5.2-19.3
			c5.1-19.7,1.1-34.4,2.5-58.7c1.7-28.4,8.1-25.1,7.2-42.1c-1.5-25.4-15.9-31.4-32.4-68.2C186.6,533.4,174.8,507,185.7,492.5z"/>
		
			<linearGradient id="SVGID_15_" gradientUnits="userSpaceOnUse" x1="2829.9736" y1="674.4518" x2="2941.7175" y2="498.2909" gradientTransform="matrix(-1 0 0 1 3034.0911 0)">
			<stop  offset="0" style="stop-color:#AA80F9"/>
			<stop  offset="0.9964" style="stop-color:#6165D7"/>
		</linearGradient>
		<path class="st13" d="M213.3,498.2c1.2,47.4-0.6,102.4-8.4,163c-6.4,49.3-15.6,93.8-25.8,132.8c-1.4,0.8-6.3,3.4-12.7,2.2
			c-4.5-0.8-7.5-3.2-8.8-4.3c1.1-8,2.2-20,1.3-34.6c-1.6-25.1-7.5-30.2-10-56.1c-2.2-22.7,0.1-41.3,1.3-49.9
			c3.5-26.5,8.2-27.1,8.3-42.9c0.1-24.5-11-33.2-17.2-56.5c-4.1-15.5-6.3-38.7,4-70.6C168,486.8,190.6,492.5,213.3,498.2z"/>
		
			<linearGradient id="SVGID_16_" gradientUnits="userSpaceOnUse" x1="2746.0317" y1="289.1966" x2="2782.3376" y2="417.9689" gradientTransform="matrix(-1 0 0 1 3034.0911 0)">
			<stop  offset="0" style="stop-color:#311944"/>
			<stop  offset="1" style="stop-color:#893976"/>
		</linearGradient>
		<path class="st14" d="M237.5,309c8.3,4.7,19.9,12.4,30.6,24.7c24.8,28.4,40.2,75.2,24.2,90.5c-10.9,10.4-36.6,7.3-45.5-5.1
			c-6.5-9.1-1.8-20.3,0.4-36.1C249.7,366,249.6,341.2,237.5,309z"/>
		
			<linearGradient id="SVGID_17_" gradientUnits="userSpaceOnUse" x1="2808.7349" y1="271.7858" x2="2880.0454" y2="524.7148" gradientTransform="matrix(-1 0 0 1 3034.0911 0)">
			<stop  offset="0" style="stop-color:#311944"/>
			<stop  offset="1" style="stop-color:#893976"/>
		</linearGradient>
		<path class="st15" d="M141.1,492.6c9.2-121.2,38.5-170.8,35.9-185.5c3.7-2.7,18.3-6.9,51.3-2.5c2.8,1,10.4,4.1,17.8,10.9
			c0,0,1.7,1.6,4.1,4.4c-23.2,4.4-46.8,17.6-55.3,36.3c-14.7,35.8,12.6,75.8,0,107.3c-6.6,16.6-17.3,31.3-29.9,45
			C150.5,504.9,140.5,499.6,141.1,492.6z"/>
		
			<linearGradient id="SVGID_18_" gradientUnits="userSpaceOnUse" x1="2844.3679" y1="683.5827" x2="2956.1118" y2="507.4216" gradientTransform="matrix(-1 0 0 1 3034.0911 0)">
			<stop  offset="0" style="stop-color:#AA80F9"/>
			<stop  offset="0.9964" style="stop-color:#6165D7"/>
		</linearGradient>
		<path class="st16" d="M145.4,481.1c6.6,1.7,13.3,3.3,19.9,5c-3.5,11.9-6.8,29.9-2.8,50.2c5.5,28.1,19.8,34.3,21.9,59.6
			c1.9,22.8-8.9,27.4-14,57.8c-5.3,31.2,2.7,45.8,4.4,71.9c1.1,17.8-0.7,41.2-11.6,69.6c-2.7-1.1-4.6-2.5-5.5-3.4
			c1.1-8,2.2-20,1.3-34.6c-1.6-25.1-7.5-30.2-10-56.1c-2.2-22.7,0.1-41.3,1.3-49.9c3.5-26.5,8.2-27.1,8.3-42.9
			c0.1-24.5-11-33.2-17.2-56.5C137.2,536.2,135,513,145.4,481.1z"/>
		
			<linearGradient id="SVGID_19_" gradientUnits="userSpaceOnUse" x1="2767.7371" y1="248.3727" x2="2839.0493" y2="501.3081" gradientTransform="matrix(-1 0 0 1 3034.0911 0)">
			<stop  offset="0" style="stop-color:#311944"/>
			<stop  offset="1" style="stop-color:#893976"/>
		</linearGradient>
		<path class="st17" d="M246.1,315.4c0,0,8.8,8,13.9,19.7c7.7,17.7-0.6,32.9-3.1,61.8c-2.7,31.7,1.1,84.5,10.1,103.4
			c0.2,0.3,0.5,1.3,0.4,2.5c-2.4,18.3-128.1,14.1-126.3-10.3c9.2-121.2,38.5-170.8,35.9-185.5c3.7-2.7,18.3-6.9,51.3-2.5
			C231.1,305.6,238.6,308.6,246.1,315.4z"/>
		<g>
			
				<linearGradient id="SVGID_20_" gradientUnits="userSpaceOnUse" x1="-511.9096" y1="827.0488" x2="-509.6324" y2="766.3931" gradientTransform="matrix(0.917 0.3988 -0.3988 0.917 999.5955 -232.1789)">
				<stop  offset="0" style="stop-color:#FFC444"/>
				<stop  offset="0.9964" style="stop-color:#F36F56"/>
			</linearGradient>
			<path class="st18" d="M208.7,274.1c0,0-8.1,25.5-10.7,28.6c-2.6,3.1,10.6,11.1,20.7,7.5c9.3-3.3,0-17.5,0-17.5L208.7,274.1z"/>
			<g>
				
					<linearGradient id="SVGID_21_" gradientUnits="userSpaceOnUse" x1="2788.874" y1="250.9111" x2="2818.1912" y2="288.1519" gradientTransform="matrix(-1 0 0 1 3034.0911 0)">
					<stop  offset="0" style="stop-color:#444B8C"/>
					<stop  offset="0.9964" style="stop-color:#26264F"/>
				</linearGradient>
				<path class="st19" d="M240.8,288c5.5-2.3,9.8-9.4,8.9-16c-0.8-5.7-5.3-9-8-11c-7.8-5.8-20.4-8.4-28.6-2.9
					c-4.8,3.3-5.6,15.5-5.9,17.7c-0.3,2.4,0.9,4,1.4,6.2c0.8,3.1,2,8.1,3.8,16.4c1.3-1.4,3-3,5.2-4.6c0.8-0.6,4.1-3,7.8-4.4
					C232.9,286.6,235.6,290.2,240.8,288z"/>
				
					<linearGradient id="SVGID_22_" gradientUnits="userSpaceOnUse" x1="-374.8182" y1="805.1243" x2="-376.1363" y2="911.3258" gradientTransform="matrix(0.8962 0.4436 -0.4436 0.8962 918.8586 -275.725)">
					<stop  offset="0" style="stop-color:#FFC444"/>
					<stop  offset="0.9964" style="stop-color:#F36F56"/>
				</linearGradient>
				<path class="st20" d="M208,289.8c0,0,0.3,12.2,11.7,17.9c10.2,5,24.4-16.1,20.8-24.4c-1.2-2.8-5-5.8-9-6.9
					c-2.3-0.6-3.5-0.2-7.3-1.2c-3.5-1-4.2-1.8-5.5-1.6c-1.7,0.3-3.9,2.2-5.7,9.7c-0.8-3-2.6-5-4.6-5.2c-0.3,0-1.3,0-2,0.5
					C203.4,280.3,203.8,284.9,208,289.8z"/>
				
					<linearGradient id="SVGID_23_" gradientUnits="userSpaceOnUse" x1="2784.9502" y1="253.9999" x2="2814.2673" y2="291.2408" gradientTransform="matrix(-1 0 0 1 3034.0911 0)">
					<stop  offset="0" style="stop-color:#444B8C"/>
					<stop  offset="0.9964" style="stop-color:#26264F"/>
				</linearGradient>
				<path class="st21" d="M219,272c0.3,0.6-2.2,1.6-3.8,4c-3,4.7-1.5,13.4,3.2,16.8c2.8,2,4.6,0.7,9.8,3c3.2,1.4,5.5,3.3,6.9,4.5
					c-1.5,6.2-6.1,10.7-11,11.1c-5.4,0.4-9.3-4-11-5.9c-1.1-1.2-4.7-5.2-4.6-10.6c0-5.6,3.8-6.7,2.7-11.2c-0.6-2.2-2-3.9-2.2-7.7
					c0-1,0-1.9,0.1-2.4C213.3,272.4,218.6,271,219,272z"/>
				
					<linearGradient id="SVGID_24_" gradientUnits="userSpaceOnUse" x1="1505.4972" y1="879.4635" x2="1506.9891" y2="892.7643" gradientTransform="matrix(-0.8674 -0.4976 -0.4976 0.8674 1973.4121 282.1646)">
					<stop  offset="0" style="stop-color:#FFC444"/>
					<stop  offset="1" style="stop-color:#F36F56"/>
				</linearGradient>
				<path class="st22" d="M230.5,300.2c0,0-2.8-0.1-6.3-2.4c-0.2-0.1-0.4-0.2-0.5-0.1c-0.3,0.3,1.2,3.2,3.7,3.9
					c1.8,0.5,3.8-0.3,3.8-0.8C231.2,300.5,230.9,300.3,230.5,300.2z"/>
			</g>
		</g>
		
			<linearGradient id="SVGID_25_" gradientUnits="userSpaceOnUse" x1="2775.4368" y1="246.2022" x2="2846.7493" y2="499.1377" gradientTransform="matrix(-1 0 0 1 3034.0911 0)">
			<stop  offset="0" style="stop-color:#311944"/>
			<stop  offset="1" style="stop-color:#893976"/>
		</linearGradient>
		<path class="st23" d="M176.5,385.6c13.7,4.8,31.9,18.4,33.1,35.7c1.9,26.6-37.8,41.3-32.5,59.9c1.4,5.1,6,9.7,35.7,20.4
			c12,4.3,23.2,7.9,33.3,10.8c-36.3,5.4-106.5-1.6-105.1-19.8c3.5-46.4,10-82.3,16.5-109.7C164.1,382.6,170.5,383.5,176.5,385.6z"/>
		
			<linearGradient id="SVGID_26_" gradientUnits="userSpaceOnUse" x1="3468.7959" y1="-412.7023" x2="3521.0583" y2="-227.334" gradientTransform="matrix(-0.9424 0.3345 0.3345 0.9424 3559.626 -510.6455)">
			<stop  offset="0" style="stop-color:#311944"/>
			<stop  offset="1" style="stop-color:#893976"/>
		</linearGradient>
		<path class="st24" d="M219.7,440.1c-22.3,22.7-54.2,29.8-78.7,18.5c-34-15.7-39.3-60.4-31.3-88.3c13.2-46.6,71-73.8,89.1-61.4
			c13.1,9,13,43.7-2.6,61.1c-14.1,15.6-35.7,11.7-41.6,27.6c-4.4,11.9,4.1,24,4.8,25c9.5,13,30.1,17.4,49.6,8.5
			C212.6,434,216.2,437.1,219.7,440.1z"/>
		
			<linearGradient id="SVGID_27_" gradientUnits="userSpaceOnUse" x1="2783.396" y1="424.528" x2="2785.0083" y2="381.5785" gradientTransform="matrix(-1 0 0 1 3034.0911 0)">
			<stop  offset="0" style="stop-color:#FFC444"/>
			<stop  offset="0.9964" style="stop-color:#F36F56"/>
		</linearGradient>
		<path class="st25" d="M263.9,401c-1.8-5.8-7.7-8.8-12.4-9.5c-4.5-0.6-12,0.4-15,6.3c-2.8,5.6-0.6,13.3,5.8,17.6
			c0.9-2.2,2.5-5.2,5.4-6.1c5.2-1.6,9.8,5.2,13.7,3.4C264.4,411.4,265.2,405.3,263.9,401z"/>
		<path class="st4" d="M242.5,436.4l-17.2,3c-3.3,0.6-6.2-2.4-5.5-5.7l6.2-29.1c0.5-2.1,2.3-3.6,4.4-3.8l20.6-1.1
			c3.4-0.2,5.9,3.1,4.7,6.3l-9.6,27.2C245.6,434.9,244.2,436.1,242.5,436.4z"/>
		
			<linearGradient id="SVGID_28_" gradientUnits="userSpaceOnUse" x1="2805.0376" y1="447.7226" x2="2806.4065" y2="411.2579" gradientTransform="matrix(-1 0 0 1 3034.0911 0)">
			<stop  offset="0" style="stop-color:#FFC444"/>
			<stop  offset="0.9964" style="stop-color:#F36F56"/>
		</linearGradient>
		<path class="st26" d="M212.5,433.9c1.4-10.1,5.7-12.8,7.2-13.5c2.6-1.3,3.9-0.3,12.9-0.4c8.1-0.1,10-1,11,0.4
			c1.9,2.6-2,9.5-6.5,13.5c-6.3,5.6-14.1,6.1-17.4,6.1L212.5,433.9z"/>
	</g>
	<g>
		<g>
			<g>
				
					<linearGradient id="SVGID_29_" gradientUnits="userSpaceOnUse" x1="2692.7261" y1="409.7732" x2="2557.8923" y2="424.4823" gradientTransform="matrix(-1 0 0 1 3231.0066 0)">
					<stop  offset="0" style="stop-color:#444B8C"/>
					<stop  offset="0.9964" style="stop-color:#26264F"/>
				</linearGradient>
				<path class="st27" d="M377.3,70.1l-82.1,682.8c-1.2,10.2,5.8,19.4,15.7,20.4L653,810.8c21,1.3,32.4-9.4,33.7-20.3L773,64.6
					c1.3-10.8-9-20.6-30-20.6l-345.2,7.3C387.7,51.4,378.5,59.9,377.3,70.1z"/>
				
					<linearGradient id="SVGID_30_" gradientUnits="userSpaceOnUse" x1="2811.5273" y1="69.8979" x2="2478.1228" y2="1204.9479" gradientTransform="matrix(-1 0 0 1 3231.0066 0)">
					<stop  offset="0" style="stop-color:#444B8C"/>
					<stop  offset="0.9964" style="stop-color:#26264F"/>
				</linearGradient>
				<path class="st28" d="M361.9,68.9l-82.6,686.2c-1.2,10.3,5.8,19.5,15.8,20.5l354.7,35.3c11.1,1.1,21.3-6.9,22.6-17.9l86.7-729.6
					c1.3-10.9-6.9-19.6-18.1-19.4L382.3,50C372.3,50.1,363.1,58.7,361.9,68.9z"/>
				<path class="st29" d="M368.6,106.7L292.1,743c-1.2,9.6,5.5,18.2,14.8,19.1l333.6,32.4c10.3,1,19.8-6.5,21-16.7l80.1-674
					c1.2-10.1-6.4-18.3-16.8-18.2l-337,3.6C378.4,89.3,369.8,97.2,368.6,106.7z"/>
				
					<linearGradient id="SVGID_31_" gradientUnits="userSpaceOnUse" x1="2686.5928" y1="41.9407" x2="2294.752" y2="1103.1764" gradientTransform="matrix(-1 0 0 1 3231.0066 0)">
					<stop  offset="0" style="stop-color:#FFC444"/>
					<stop  offset="0.9964" style="stop-color:#F36F56"/>
				</linearGradient>
				<path class="st30" d="M547.5,68.4c-0.4,3.7,2.2,6.6,5.9,6.5c3.7,0,7-3.1,7.5-6.7c0.4-3.7-2.2-6.6-5.9-6.5
					C551.3,61.8,547.9,64.8,547.5,68.4z"/>
				<g class="st31">
					<path class="st4" d="M426.3,533.8c68.3-126.3,170.3-164.1,201-294.2c16.6-70.3,5.3-137.7-13.8-193.6L741,43.9
						c11.2-0.2,19.4,8.6,18.1,19.4L672.4,793c-1.3,10.9-11.5,19-22.6,17.9l-278.8-27.8C368.9,670,395.8,590.1,426.3,533.8z"/>
				</g>
			</g>
		</g>
		<g>
			<defs>
				<path id="SVGID_32_" d="M663.6,779.3c-1.1,9.8-7.6,18.3-16.2,17.6l-341.1-28.3c-7.8-0.6-14.1-9.8-13.1-19.1l76-643.7
					c1.1-9,9.1-15.4,16.9-15.4l340.4-4.1c8.6-0.1,13.3,6.4,12.3,15.9L663.6,779.3z"/>
			</defs>
			<clipPath id="SVGID_33_">
				<use xlink:href="#SVGID_32_"  style="overflow:visible;"/>
			</clipPath>
			<g class="st32">
				<g>
					<path class="st4" d="M616.8,834.6C616.8,834.6,616.8,834.6,616.8,834.6L616.8,834.6c-0.4-0.8-29-65.4-130.6-204.5
						c-41.4-56.7-22.3-161.4-2.1-272c20.6-112.7,41.8-229-3.6-288.8c-20.9-27.6-54.1-41-101.1-41.1l1.5-11
						c50,0.1,85.6,14.6,108.3,44.5c48.2,63.4,26.5,182.3,5.5,297.6C475,467.4,456.3,569.9,495,622.7
						c103,140.6,131.1,204.1,132.2,206.7L616.8,834.6z"/>
				</g>
				<g>
					<polygon class="st4" points="650.3,276.7 306.4,272.1 307.7,261.1 644.8,265 770,65.6 779.5,70.9 					"/>
				</g>
				<g>
					<polygon class="st4" points="368.9,872.6 358.3,871.6 375.5,723.5 564.5,737.8 588.6,524.7 278.1,510.1 279.4,499 601.1,513.5 
						574.4,750.4 384.8,735.7 					"/>
				</g>
				<g>
					<polygon class="st4" points="775.9,426.8 624.9,421.9 641.9,270.8 653.2,270.9 637.5,410.6 777.2,414.9 					"/>
				</g>
			</g>
			<path class="st33" d="M522.8,269.9c-1.2,10.9-10.6,19.6-20.9,19.4c-10.3-0.2-17.6-9.1-16.3-19.9c1.2-10.8,10.6-19.5,20.8-19.4
				C516.7,250.2,524,259.1,522.8,269.9z"/>
			<path class="st33" d="M650.4,416.3c-1.2,11.1-11,19.9-21.7,19.5c-10.7-0.4-18.3-9.7-17-20.7c1.3-11.1,10.9-19.8,21.6-19.5
				C643.9,395.9,651.6,405.2,650.4,416.3z"/>
			<path class="st33" d="M486.1,513.6c-1.3,11-10.6,19.4-20.9,18.9c-10.3-0.5-17.5-9.7-16.3-20.6c1.3-10.9,10.6-19.4,20.8-18.9
				C480,493.4,487.4,502.7,486.1,513.6z"/>
			<path class="st33" d="M585.8,738.9c-1.3,11.2-10.9,19.7-21.6,18.8c-10.6-0.8-18.2-10.6-16.9-21.7c1.3-11.2,10.9-19.6,21.5-18.8
				C579.5,717.9,587.1,727.7,585.8,738.9z"/>
		</g>
		<g>
			
				<linearGradient id="SVGID_34_" gradientUnits="userSpaceOnUse" x1="2909.5947" y1="221.6639" x2="2974.1619" y2="221.6639" gradientTransform="matrix(-1 0 0 1 3449.9651 0)">
				<stop  offset="0" style="stop-color:#AB316D"/>
				<stop  offset="1" style="stop-color:#792D3D"/>
			</linearGradient>
			<path class="st34" d="M483.4,181.6c9.1-9.5,23.6-8.2,28.4-7.7c5.6,0.5,16.4,1.5,23.1,9.9c11.3,14.2,2.4,38.7-0.7,47.1
				c-7.5,20.6-21.4,32.8-29.4,38.6c-1.2,0.1-3.6,0.9-4.8-0.3c-6.4-6.3-13.5-19.6-18.6-35C479.3,228,468.9,196.8,483.4,181.6z"/>
			<g>
				<path class="st2" d="M500.3,269.5c8-5.9,21.9-18.1,29.4-38.6c3-8.4,12-32.9,0.7-47.1c-6.7-8.4-17.5-9.4-23.1-9.9
					c-4.7-0.4-19.2-1.8-28.4,7.7c-14.5,15.2-4.1,46.4-2,52.7C483,252.4,493.9,263.8,500.3,269.5z"/>
				<path class="st35" d="M487,208.9c0,10.3,7.7,18.6,17.2,18.5c9.5-0.1,17.3-8.6,17.3-18.9s-7.7-18.6-17.3-18.5
					C494.7,190.1,487,198.6,487,208.9z"/>
			</g>
		</g>
		<g>
			
				<linearGradient id="SVGID_35_" gradientUnits="userSpaceOnUse" x1="2779.4409" y1="372.6851" x2="2844.0081" y2="372.6851" gradientTransform="matrix(-1 0 0 1 3449.9651 0)">
				<stop  offset="0" style="stop-color:#AB316D"/>
				<stop  offset="1" style="stop-color:#792D3D"/>
			</linearGradient>
			<path class="st36" d="M613.6,332.6c9.1-9.5,23.6-8.2,28.4-7.7c5.6,0.5,16.4,1.5,23.1,9.9c11.3,14.2,2.4,38.7-0.7,47.1
				c-7.5,20.6-21.4,32.8-29.4,38.6c-1.2,0.1-3.6,0.9-4.8-0.3c-6.4-6.3-13.5-19.6-18.6-35C609.4,379,599,347.8,613.6,332.6z"/>
			<g>
				<path class="st2" d="M630.4,420.5c8-5.9,21.9-18.1,29.4-38.6c3-8.4,12-32.9,0.7-47.1c-6.7-8.4-17.5-9.4-23.1-9.9
					c-4.7-0.4-19.2-1.8-28.4,7.7c-14.5,15.2-4.1,46.4-2,52.7C613.1,403.4,624,414.8,630.4,420.5z"/>
				<path class="st35" d="M617.2,359.9c0,10.3,7.7,18.6,17.2,18.5c9.5-0.1,17.3-8.6,17.3-18.9c0-10.3-7.7-18.6-17.3-18.5
					C624.9,341.2,617.2,349.6,617.2,359.9z"/>
			</g>
		</g>
		<g>
			
				<linearGradient id="SVGID_36_" gradientUnits="userSpaceOnUse" x1="2944.1196" y1="479.5885" x2="3008.6868" y2="479.5885" gradientTransform="matrix(-1 0 0 1 3449.9651 0)">
				<stop  offset="0" style="stop-color:#AB316D"/>
				<stop  offset="1" style="stop-color:#792D3D"/>
			</linearGradient>
			<path class="st37" d="M448.9,439.5c9.1-9.5,23.6-8.2,28.4-7.7c5.6,0.5,16.4,1.5,23.1,9.9c11.3,14.2,2.4,38.7-0.7,47.1
				c-7.5,20.6-21.4,32.8-29.4,38.6c-1.2,0.1-3.6,0.9-4.8-0.3c-6.4-6.3-13.5-19.6-18.6-35C444.8,485.9,434.3,454.7,448.9,439.5z"/>
			<g>
				<path class="st2" d="M465.8,527.4c8-5.9,21.9-18.1,29.4-38.6c3-8.4,12-32.9,0.7-47.1c-6.7-8.4-17.5-9.4-23.1-10
					c-4.7-0.4-19.2-1.8-28.4,7.7c-14.5,15.2-4.1,46.4-2,52.7C448.4,510.3,459.4,521.7,465.8,527.4z"/>
				<path class="st35" d="M452.5,466.8c0,10.3,7.7,18.6,17.2,18.5c9.5-0.1,17.3-8.6,17.3-18.9c0-10.3-7.7-18.6-17.3-18.5
					C460.2,448.1,452.5,456.5,452.5,466.8z"/>
			</g>
		</g>
		<g>
			
				<linearGradient id="SVGID_37_" gradientUnits="userSpaceOnUse" x1="2850.4238" y1="690.9788" x2="2914.9907" y2="690.9788" gradientTransform="matrix(-1 0 0 1 3449.9651 0)">
				<stop  offset="0" style="stop-color:#AB316D"/>
				<stop  offset="1" style="stop-color:#792D3D"/>
			</linearGradient>
			<path class="st38" d="M542.6,650.9c9.1-9.5,23.6-8.2,28.4-7.7c5.6,0.5,16.4,1.5,23.1,9.9c11.3,14.2,2.4,38.7-0.7,47.1
				c-7.5,20.6-21.4,32.8-29.4,38.6c-1.2,0.1-3.6,0.9-4.8-0.3c-6.4-6.3-13.5-19.6-18.6-35C538.5,697.3,528,666.1,542.6,650.9z"/>
			<g>
				
					<linearGradient id="SVGID_38_" gradientUnits="userSpaceOnUse" x1="3027.1326" y1="413.0245" x2="2764.6978" y2="911.8142" gradientTransform="matrix(-1 0 0 1 3449.9651 0)">
					<stop  offset="0" style="stop-color:#FFC444"/>
					<stop  offset="0.9964" style="stop-color:#F36F56"/>
				</linearGradient>
				<path class="st39" d="M559.5,738.8c8-5.9,21.9-18.1,29.4-38.6c3-8.4,12-32.9,0.7-47.1c-6.7-8.4-17.5-9.4-23.1-9.9
					c-4.7-0.4-19.2-1.8-28.4,7.7c-14.5,15.2-4.1,46.4-2,52.7C542.1,721.7,553.1,733.1,559.5,738.8z"/>
				<path class="st35" d="M546.2,678.2c0,10.3,7.7,18.6,17.2,18.5c9.5-0.1,17.3-8.6,17.3-18.9s-7.7-18.6-17.3-18.5
					C553.9,659.4,546.2,667.9,546.2,678.2z"/>
			</g>
		</g>
	</g>
	<g>
		<path class="st40" d="M144.5,774.5c-13.1-2.1-25.4,6.9-27.5,20c-2.1,13.1,6.9,25.4,20,27.4c13.1,2.1,25.4-6.9,27.5-20
			C166.5,788.8,157.6,776.5,144.5,774.5z"/>
		<path class="st40" d="M138.6,689.9c0.3-1.9-0.3-3.4-1.8-4.6c-1.5-1.2-3.4-1.7-5.7-1.5c-2.4,0.2-4.5,1-6.4,2.4
			c-1.9,1.4-3,3.1-3.3,4.9l-0.5,3.4l17.2-1.2L138.6,689.9z"/>
		<path class="st40" d="M55.6,690.9c-1.9,1.4-3,3.1-3.3,5l-0.5,3.4L69,698l0.5-3.4c0.3-1.9-0.3-3.4-1.8-4.6
			c-1.5-1.2-3.4-1.7-5.8-1.5C59.6,688.7,57.5,689.5,55.6,690.9z"/>
		<path class="st40" d="M29.4,650.5l-14.5,94.4c-3.5,22.4,11.8,43.5,34.2,47l53.2,8.4c3.9,0.6,7.5-2,8.1-5.9l0.2-1
			c2.6-16.7,18.3-28.1,35-25.5l1.6,0.2c3.9,0.6,7.5-2,8.1-5.9l20.2-130.5l-99-15.5C54,612.7,32.9,628.1,29.4,650.5z M96,716.1
			l21.6-1.5c-0.3,1.9,0.3,3.4,1.8,4.6c1.5,1.2,3.5,1.7,5.9,1.5c2.3-0.2,4.4-1,6.3-2.4c1.9-1.4,3-3.1,3.3-4.9l0.5-3.4l-38.6,2.7
			l3-20.2c1-6.5,4.8-12.2,11.4-17.2c6.6-5,14.1-7.8,22.5-8.4c8.3-0.6,15,1.3,20.2,5.5c5.1,4.2,7.2,9.5,6.2,16l-3.6,23.5
			c-1,6.5-4.9,12.2-11.5,17.2c-6.6,5-14.1,7.8-22.4,8.4c-8.4,0.6-15.2-1.2-20.4-5.4C97,727.9,94.9,722.5,96,716.1z M91.1,693.2
			l-3.2,20.2L49.2,716l-0.5,3.4c-0.3,1.9,0.3,3.4,1.8,4.6c1.5,1.2,3.4,1.7,5.7,1.5c2.4-0.2,4.6-1,6.5-2.4c1.9-1.4,3-3.1,3.3-5
			l21.6-1.5c-1,6.4-4.8,12.2-11.4,17.2c-6.6,5-14.1,7.8-22.5,8.4c-8.3,0.6-15.1-1.2-20.3-5.5c-5.2-4.2-7.3-9.5-6.3-16l3.7-23.5
			c1-6.4,4.7-12.2,11.3-17.2c6.6-5,14-7.8,22.3-8.4c8.4-0.6,15.1,1.2,20.3,5.4C90,681.4,92.1,686.7,91.1,693.2z"/>
		
			<rect x="137.2" y="579.8" transform="matrix(0.155 -0.9879 0.9879 0.155 -432.1804 668.9756)" class="st40" width="75.6" height="14.6"/>
		<path class="st40" d="M192.9,509.6l-11.2-1.8c-2.8-0.4-5.5,1.5-5.9,4.3l-3.9,24.6c-0.4,2.8,1.5,5.5,4.3,5.9l11.2,1.8
			c2.8,0.4,5.5-1.5,5.9-4.3l3.9-24.6C197.6,512.7,195.7,510.1,192.9,509.6z"/>
		<path class="st41" d="M96,716.1"/>
	</g>
	<g>
		
			<image style="overflow:visible;opacity:0.36;" width="161" height="458" xlink:href="37E105B5BB99B788.png"  transform="matrix(1 0 0 1 333.5625 363.4893)">
		</image>
		<g>
			<path class="st40" d="M347.5,811.2l0.2-31.8l-11-0.1l0.1-20.8l11,0.1l0.1-17.8l6.7,0l0.1-15.3l6.1,0l7.4-9.2l0-6.1l4.3-5.5
				l-2.7-6.8l4.3-5.8l-3.3-17.5l5.3-17.7l-2.4-4.9l4-12.5l0.1-20.8c0,0-7-12.3-4.2-18.7c2.8-6.4,4.3-10.4,4.3-10.4
				s-11-12.9-6.9-21.8c4-8.9,7.1-14.4,7.1-14.4l-7.3-17.2l2.8-3.7l-2.4-4.9l4.3-3.3c0,0-8.9-2.8-5.4-14.7
				c-10.1-1.6-10.9-16.6,2-32.1c-2.4-4-0.6-8.9-0.6-8.9s-3.7-0.6-2-35.2c-2.7-2.8-4-2.8-0.9-6.1c-0.6-1.5-6.7-6.5-2.4-10.1
				c-3.1,0-2.7-4.2-0.8-5c-2-2.2-1.5-3.5,0.9-5.5c-1.9-1.3-3-2.9-1.2-5.1c-1.7,0-8-2.3-4.7-5.4c0.1-1.2,0.2-3.6,0.2-3.6l-3.3-3.9
				l4.3,1l0.2-3l2.8,2l1-3.3l2.5,3.1l1-1c0,0-6.2-4.5-0.7-10.9c-1.3-3-1.9-4.9-1.9-4.9l4.6,2.2l5.1-6.7l0.7,6.3l5.3-6.3l-2,8.6
				l3.5,1.8l-6.4,9.3l3.4-1l0.2,3.3l3.9-2.2l-0.8,3.1l4.1,0l-2.6,3.4l-0.1,2.8c0,0,6.1,4.5-6,7.1c0.2,1.5,1.6,3.1-0.8,4.4
				c1.2,0.9,7.3,6.1,1.7,21.5c0.3,11.5,6,33.4,6,33.4l0.9,4.3l12.2,1.3l1.7-2.2l-10.4-14.4l14.5,11.7l5.8-1.4l2.4-17.9l2.7,18.2
				l4.7,1.8l16.2-12.5l-12.2,15.3l1.5,1.7l19.4-2.6l-17.6,6.9l0.5,2.2l19.1,3.1l-19.7,1.7l-0.9,2.6c0,0,3.8,2.8-0.2,5.7
				c0,0,1.1,3.7,2.6,6.9c1.5,3.2,0.7,4.3-2,6.7c0.8,1.6,1.5,10,1.5,10s11.8,5.1,12.8,8.1c1,3.1,2.6,21.3,8.3,25.5
				c2.5-0.2,4.1,0.7,4.3,2.5c1.3-3.2,5.9-11.5,7.8-10.9c1.9,0.6,19.7,9.3,19.7,9.3s3.7,1.1,1.9,4.2c-1.8,3.1-4.1,6.5-4.1,6.5
				s4.8,4.6,2.8,7.8c-2,3.2-9.3,11.7-9.3,11.7s-4,4-9.5,3.7c-0.2,4.3,1.2,20.5-7.7,24.9c1.2,9.7,4.3,39.3,4.3,39.3s-0.3,5.1-6.6,10
				c0,3.6,2.2,30.2,2.2,30.2s-3.9,5.3-6.6,5.7c0.6,6.2,3.1,37.2,3.1,37.2l9.6,0.2l-0.1,13.8l6.4,0l-0.1,17.5l10.9,0.1l-0.1,22
				l-11.1-0.1l-0.2,31.2L347.5,811.2z"/>
		</g>
	</g>
	<g>
		
			<image style="overflow:visible;opacity:0.36;" width="220" height="467" xlink:href="37E105B5BB99B789.png"  transform="matrix(1 0 0 1 426.5625 358.4893)">
		</image>
		<g>
			<path class="st40" d="M591.1,738.4c-0.9-13,0.1-22.9,0.1-22.9l-10-0.1c0,0-13.3-34-19.6-66.4l4,0l1.6-11.5l-5.5,0l0-5.5l-3.5,0
				c0,0-10.4-92.5-14.8-204.1l5-5.5l-1.9-22.5l-9.2-7l0.2-31.5l-0.7,0l-0.7,0l-0.7,0l-0.2,31.5L526,400l-2.1,22.4l5,5.5
				c-5.6,111.5-17.1,203.9-17.1,203.9l-3.5,0l0,5.5l-5.5,0l1.4,11.5l4,0c-6.7,32.4-20.3,66.2-20.3,66.2l-10-0.1c0,0,0.9,10-0.1,22.9
				c-1.1,13-47.3,76.8-47.3,76.8l33.4,0.2c0,0,1.5,0,13.2-5.2c13.4-45.8,47.2-49.2,56.1-49.3l0,0c0,0,0.4,0,1.1,0c0.7,0,1.1,0,1.1,0
				l0,0c9,0.2,42.7,4.1,55.6,50c11.7,5.3,13.2,5.3,13.2,5.3l33.4,0.2C637.5,815.8,592,751.4,591.1,738.4z M516.3,714.1l8.7-45.3
				l20.9,0.1l6.7,45.4L516.3,714.1z"/>
		</g>
	</g>
	<g>
		
			<image style="overflow:visible;opacity:0.36;" width="352" height="268" xlink:href="37E105B5BB99B78F.png"  transform="matrix(1 0 0 1 596.5625 556.4893)">
		</image>
		<g>
			<g>
				<path class="st40" d="M803.5,705.6l-67-0.3L736,810.1l67,0.3L803.5,705.6z M791.5,808.6l-43.1-0.2l0.3-49.7
					c0.1-11.9,9.8-21.5,21.7-21.4c11.9,0.1,21.5,9.8,21.4,21.7L791.5,808.6z"/>
				<path class="st40" d="M934.7,809.4l-1.8-41.5l2.4,0l0-5.8l-2.6,0l-2-44.7l4,0l0-4.8l-4.3,0l-1.8-40.4l3.4,0l0-5.2l-3.7,0l-0.3,0
					l0-9.1l2,0l0-2.4l-1.2,0c-0.3-4.4-4-7.9-8.4-7.9c-4.5,0-8.2,3.4-8.5,7.8l-0.8,0l0,2.4l1.6,0l0,9.1l-4.4,0l0,5.2l4.2,0l-2.4,40.4
					l-4,0l0,4.8l3.8,0l-2.7,44.6l-2.9,0l0,5.8l2.6,0l-2.5,41.5l-3.6,0l0.3-64.5l-38.5-0.2l0.1-17.6l-9.4,0l0.1-19.6l4.3,0l0-5.1
					l-2.6,0c-0.6-9.5-8.6-17.1-18.2-17.1c-9.7-0.1-17.7,7.4-18.5,16.9l-1.8,0l0,5.1l3.5,0l-0.1,19.6l-7.8,0l0.1-28.3l-7.6,0
					l0.1-19.3l2.3,0l0-7.5c0,0,22-8.7,18.4-30.9c-1.2-7.7-5.4-14.5-10.9-20c-13.5-13.4-31.9-25.6-40.3-30.8l-2.7-29.8l-3.2,0
					l-2,29.2c-7.9,4.8-27.4,17.1-41.5,30.9c-5.6,5.4-9.8,12.3-11.1,19.9c-3.8,22.2,18.1,31.1,18.1,31.1l0,7.5l3.5,0l-0.1,19.3
					l-6.6,0l-0.1,28.3l-7.8,0l0.1-19.6l3.5,0l0-5.1l-1.8,0c-0.6-9.5-8.6-17.1-18.3-17.1c-9.6-0.1-17.6,7.4-18.4,16.9l-2.6,0l0,5.1
					l4.3,0l-0.1,19.6l-9.4,0l-0.1,17.6l-38.5-0.2l-0.3,64.5l-3.6,0l-2.1-41.5l2.6,0l0-5.8l-2.9,0l-2.2-44.7l3.8,0l0-4.8l-4,0
					l-2-40.4l4.2,0l0-5.2l-4.4,0l0-9.1l1.6,0l0-2.4l-0.8,0c-0.3-4.4-4-7.9-8.5-7.9c-4.5,0-8.2,3.4-8.5,7.8l-1.2,0l0,2.4l2,0l0,9.1
					l-0.3,0l-3.7,0l0,5.2l3.4,0l-2.2,40.4l-4.3,0l0,4.8l4,0l-2.5,44.6l-2.6,0l0,5.8l2.4,0l-2.3,41.5l-4.6,0l0,5.9l4.3,0l31.1,0.2
					l3.3,0l38.5,0.2l50.4,0.3l83.6,0.4l50.4,0.3l38.5,0.2l3.3,0l31.1,0.2l4.3,0l0-5.9L934.7,809.4z M666.7,780.4l-17.1-0.1l0.1-16.2
					c0-4.7,3.9-8.5,8.6-8.5c4.7,0,8.5,3.9,8.5,8.6L666.7,780.4z M712.9,808.2l-21.5-0.1l0.1-18.5c0-5.9,4.9-10.7,10.8-10.7
					c5.9,0,10.7,4.9,10.7,10.8L712.9,808.2z M713.1,773l-21.5-0.1l0.1-18.5c0-5.9,4.9-10.7,10.8-10.7c5.9,0,10.7,4.9,10.7,10.8
					L713.1,773z M805.4,812.9l-71.9-0.4l0.6-109.8l71.9,0.4L805.4,812.9z M848.5,808.9l-21.5-0.1l0.1-18.5c0-5.9,4.9-10.7,10.8-10.7
					c5.9,0,10.7,4.9,10.7,10.8L848.5,808.9z M848.7,773.7l-21.5-0.1l0.1-18.5c0-5.9,4.9-10.7,10.8-10.7c5.9,0,10.7,4.9,10.7,10.8
					L848.7,773.7z M890.6,781.6l-17.1-0.1l0.1-16.2c0-4.7,3.9-8.5,8.6-8.5s8.5,3.9,8.5,8.6L890.6,781.6z"/>
			</g>
		</g>
	</g>
</g>
</svg>
