<svg enable-background="new 0 0 898.9 610.4" viewBox="0 0 898.9 610.4" xmlns="http://www.w3.org/2000/svg"><g fill="#fff"><path d="m602.5 570.3c-5.7 25.1-30.7 40.7-55.7 35-25.1-5.7-40.7-30.7-35-55.7 5.7-25.1 30.7-40.7 55.7-35 25.1 5.7 40.8 30.7 35 55.7"/><path d="m570.4 502.1 3 .7c7.4 1.7 14.7-2.9 16.4-10.3l56.4-249.6-189.2-43.2c-42.9-9.8-85.6 17-95.4 59.9l-40.7 180.6c-9.8 42.9 17 85.6 59.9 95.4l101.7 23.2c7.4 1.7 14.7-2.9 16.4-10.3l.4-1.9c7.3-31.8 39.1-51.8 71.1-44.5"/><path d="m578.2 142.3h146.5v28.3h-146.5z" transform="matrix(.2225 -.9749 .9749 .2225 353.9387 756.7643)"/><path d="m675 4.1 21.4 4.9c5.4 1.2 8.8 6.6 7.5 12l-10.8 47.1c-1.2 5.4-6.6 8.8-12 7.5l-21.4-4.9c-5.4-1.2-8.8-6.6-7.5-12l10.8-47.1c1.2-5.4 6.6-8.7 12-7.5"/></g><path d="m153.5 305.3-80.7 135h-41.9l-19.6-135h46l7.4 78.7 42.8-78.7z" fill="#1d1e1c"/><path d="m268.8 350.3-20.4 90h-41.9l3.1-12.9c-10.3 8.6-22.4 12.9-36.5 12.9-11.5 0-20.6-3.1-27.4-9.4-6.7-6.2-9.1-13.8-7-22.7l13.2-57.8c2.7-12.3 10.8-22.9 24.2-31.8 13.4-8.8 28.2-13.2 44.3-13.2 16.3 0 29.1 4.4 38.5 13.2 9.3 8.8 12.7 19.4 9.9 31.7m-41.9 0c.8-3.6-.1-6.6-2.9-9.1-2.7-2.5-6.4-3.7-11-3.7-4.5 0-8.6 1.2-12.5 3.7s-6.2 5.5-7.1 9.1l-10.1 45c-.8 3.6.1 6.7 2.8 9.1 2.7 2.5 6.3 3.7 10.8 3.7 4.6 0 8.9-1.3 12.7-3.7 3.9-2.5 6.2-5.5 7.1-9.1z" fill="#1d1e1c"/><path d="m343.2 279.6-36.2 160.7h-41.9l36.4-160.7z" fill="#1d1e1c"/><path d="m475.2 350.3-8.9 38.6h-75.1l-1.4 6.4c-.8 3.6.1 6.7 2.9 9.1 2.8 2.5 6.4 3.7 10.9 3.7 4.7 0 8.9-1.3 12.8-3.7 3.9-2.5 6.2-5.5 7.1-9.1h41.9c-2.7 12.3-10.8 22.9-24.3 31.8-13.4 8.8-28.4 13.2-44.7 13.2-16.2 0-29-4.4-38.4-13.2-9.5-8.8-12.8-19.4-10.1-31.8l10.3-45c2.7-12.3 10.8-22.9 24.2-31.8 13.4-8.8 28.1-13.2 44.3-13.2 16.3 0 29.1 4.4 38.5 13.2 9.4 8.9 12.7 19.5 10 31.8m-41.9 0c.8-3.6-.1-6.6-2.9-9.1-2.7-2.5-6.4-3.7-11.1-3.7-4.5 0-8.6 1.2-12.5 3.7-3.8 2.5-6.2 5.5-7.1 9.1l-1.4 6.4h33.4z" fill="#fcd80e"/><path d="m516.5 318.5c13.4-8.8 28.2-13.2 44.5-13.2 16.1 0 28.9 4.4 38.3 13.2s12.7 19.4 9.8 31.7l-10 45c-2.9 12.3-11 22.9-24.5 31.8-13.4 8.8-28.3 13.2-44.4 13.2-16.3 0-29.2-4.4-38.7-13.2s-12.7-19.4-9.9-31.8h41.9c-.8 3.6.2 6.7 3 9.1 2.7 2.5 6.5 3.7 11.1 3.7 4.5 0 8.7-1.3 12.6-3.7 3.9-2.5 6.2-5.5 7-9.1l1.5-6.4h-75.1l8.5-38.6c2.8-12.2 10.9-22.8 24.4-31.7m16 38.2h33.4l1.5-6.4c.8-3.6-.2-6.6-2.9-9.1s-6.3-3.7-10.8-3.7c-4.6 0-8.9 1.2-12.7 3.7-3.9 2.5-6.2 5.5-7 9.1z" fill="#fcd80e"/><path d="m763.1 305.3-7.3 32.1-82.8 70.7h66.8l-7.2 32.2h-117l7.3-32.3 82.7-70.6h-66.7l7.2-32.1z" fill="#1d1e1c"/><path d="m886.7 350.3-8.9 38.6h-75.1l-1.4 6.4c-.8 3.6.1 6.7 2.9 9.1 2.8 2.5 6.4 3.7 10.9 3.7 4.7 0 8.9-1.3 12.8-3.7 3.9-2.5 6.2-5.5 7.1-9.1h41.9c-2.7 12.3-10.8 22.9-24.3 31.8-13.4 8.8-28.4 13.2-44.7 13.2-16.2 0-29-4.4-38.4-13.2-9.5-8.8-12.8-19.4-10-31.8l10.3-45c2.7-12.3 10.8-22.9 24.2-31.8 13.4-8.8 28.1-13.2 44.3-13.2 16.3 0 29.1 4.4 38.5 13.2 9.3 8.9 12.6 19.5 9.9 31.8m-41.9 0c.8-3.6-.1-6.6-2.8-9.1s-6.4-3.7-11.1-3.7c-4.5 0-8.6 1.2-12.5 3.7s-6.2 5.5-7 9.1l-1.4 6.4h33.4z" fill="#1d1e1c"/></svg>