<svg enable-background="new 0 0 130.1 123.2" viewBox="0 0 130.1 123.2" xmlns="http://www.w3.org/2000/svg"><g fill="#fcd815"><path d="m73.6 15.5c-2.9 0-5.8.3-8.5.8-2.8-.5-5.6-.8-8.5-.8-25.5 0-46.1 20.7-46.1 46.1 0 25.5 20.7 46.1 46.1 46.1 2.9 0 5.8-.3 8.5-.8 2.8.5 5.6.8 8.5.8 25.5 0 46.1-20.7 46.1-46.1 0-25.5-20.6-46.1-46.1-46.1zm-17.1 82c-5.8 0-11.2-1.4-16.1-3.8-11.8-5.9-19.9-18.1-19.9-32.1s8.1-26.2 19.9-32.1c4.8-2.4 10.3-3.8 16.1-3.8 2.9 0 5.8.4 8.5 1 15.7 3.8 27.4 18 27.4 34.9s-11.7 31.1-27.4 34.9c-2.7.7-5.5 1-8.5 1zm33.1-3.8c8.1-8.3 13-19.6 13-32.1s-5-23.8-13-32.1c11.8 5.9 19.9 18.1 19.9 32.1s-8.1 26.2-19.9 32.1z"/><path d="m71.2 69.8c0-2.6-.4-4.6-1.3-6.2-.9-1.5-2-2.8-3.4-3.8s-2.8-1.7-4.4-2.2c-1.5-.5-3-1.1-4.4-1.7s-2.5-1.3-3.4-2.1-1.3-1.9-1.3-3.3c0-.9.3-1.8.8-2.5.6-.8 1.4-1.2 2.6-1.2 1.1 0 1.9.4 2.4 1.3s.8 1.9.8 3.1v.9h10.4c0-4.1-.9-7.1-2.7-9.1s-4.7-3.2-8.6-3.6v-3.5h-5.5v3.5c-7.2 1.3-10.8 5.6-10.8 13.1 0 2.4.4 4.4 1.3 5.9s1.9 2.7 3.2 3.7c1.3.9 2.7 1.7 4.2 2.3s2.9 1.2 4.2 1.7c1.3.6 2.4 1.3 3.2 2.1.9.8 1.3 1.9 1.3 3.2 0 1.1-.3 2-.9 2.7-.6.8-1.5 1.1-2.7 1.1-1.1 0-2-.3-2.7-1s-1-1.9-1-3.7v-1.1h-10.7v1.6c0 3.8 1 6.5 2.9 8.3 1.9 1.7 4.8 2.8 8.6 3.2v5.4h5.5v-5.4c4.1-.4 7.2-1.6 9.3-3.6s3.1-5 3.1-9.1z"/></g></svg>