<svg enable-background="new 0 0 898.9 610.4" viewBox="0 0 898.9 610.4" xmlns="http://www.w3.org/2000/svg"><path d="m13.8 550.5h871.2c2.2 0 4-2.6 4-5.9 0-3.2-1.8-5.9-4-5.9h-871.2c-2.2 0-4 2.6-4 5.9s1.8 5.9 4 5.9z" fill="#fe978e"/><path d="m235.9 502.2s-5 4.9-5.1 6.8c-.1 1.8-.4 21.2 1.6 23s8 3.1 6.1 5.1c-1.5 1.5-12.7 1.2-20.1.8-2.2-.1-4.9-17.6-5.7-20.2-1.2-3.7-5.2-13.1-4-15.8.6-1.3 4.1-2.9 7.8-5.3 3.9-2.6 7.7-8.3 7.7-8.3z" fill="#f7a491"/><path d="m302.8 514.3s-4.5 12.8-4.5 12.8c-.3 2-1.6 7-1.6 8.9 0 6.9 30.8-5.9 23.9-8.9-.6-.3-2.6-2.5-2.8-4.9-.3-3.6 2.6-8.2 2.6-8.2z" fill="#f7a491"/><path d="m300.2 286.2-15.9 18.6-15.6 97.3-49.2 90.8s7.4 11.4 15.3 13.1l69.9-91.8 37.9-114.9-1.3-25.5z" fill="#184655"/><path d="m340.1 268.2 11 34s9.7 101.3 8.3 108.3c-3.4 17-37.4 109.7-37.4 109.7l-21.8-2.8 23.9-109.6-39.9-102.9z" fill="#355389"/><path d="m376.5 293.4c-7.4-1.9-7.5-.6-8.5-.9-1.1-.3-10.9-12.1-10.9-12.1s-29.1-34.4-30.6-36.3l-12.1-45.2-24.8.5s14.5 48.8 15.8 51.2c1.2 2.4 46.3 44.2 50.1 48 0 0 2.8 6.3 4.7 10.2s5.5 6.7 6.2 7.7c.1.1 2.7 3.3 6.9 6.4 3.7 2.6 1.5-1.6 1.5-1.6s-5.9-6.1-5.3-6.5c.5-.3 3.4 3.2 7.5 6.2 1 .8 2.1 1.5 3 2.2 2.5 1.8 4.4.7 2.1-1.5-.8-.8-2.2-2.1-3.3-2.9-1.2-.9-2-2-2.9-2.9-1.8-1.7-3.1-3-3-3 .2 0 .1-.6 1.2.1 1.4.9 3.8 3.6 5.9 4.8 1.2.7 3.6 2.3 3.6 2.3s4.4 2.4 4.7 1.8c.7-1.4-1.8-3.4-3.6-4.1-.9-1-3.4-2.6-3.4-2.6s-4.4-4.4-3.8-5.1c.3-.3 3.3 1.6 6.6 3.4 3.5 1.8 6.1 3 6.6 2.4.8-1-1.9-2.7-1.9-2.7s-2.4-1.5-3.1-2c-.9-.6-3.4-2.8-3.4-2.8s-8.2-7.9-7.6-8.4c.7-.6 2.9-1.4 3.6-1.1s1.6 1.5 2.3 1.8 2.2.8 2.7 0-2.6-4.3-2.6-4.3-2-2.4-4.2-3z" fill="#f8a492"/><path d="m319.6 213.9s-9.3 3.1-13 3.9c-3 .6-16.6 1.1-16.6 1.1s-3.7-22-4.9-32.7c-1.4-13 1.2-30.2 2.8-30 4.5.5 10.2 2.2 14.2 6.7 13.9 15.5 17.5 51 17.5 51z" fill="#3c8f7c"/><path d="m351.5 301.5c-20.2 8-67.7 3.4-67.7 3.4s3-20.7 4.1-34.7-7.8-36.2-11.6-74.6c-.8-8.2 2.4-30.2 13.8-37.1 4-2.4 6.5-2.7 6.5-2.7.1 0 15.7-3.2 23.7-.7 2.3 2 9.3 7.8 13.4 14.7 5.3 9 9.7 19.4 10.7 22.9 4.6 15.2 6.6 59.4 6.6 67.7 0 8.1.5 41.1.5 41.1z" fill="#50bfa5"/><path d="m333.6 169.6c-7.8 2.4-37.1-13.8-37.1-13.8v-.1l3.6-23.2s18.3-4.3 17.2 2.3 2.5 19.8 2.5 19.8c.1.1.3.3.5.4 2.2 2 9.3 7.8 13.3 14.6z" fill="#f7a491"/><path d="m317.3 134.8c1.1-6.6-17.2-2.3-17.2-2.3l-.3 1.9c.5 1.3 1.2 2.4 2 3.2 4.1 4.4 10.5 7 16 7.2-.6-3.5-.9-7.3-.5-10z" fill="#fe875e"/><path d="m296.6 96.8c-.6-.2-4.5 28.7 3 36.7s22 10.6 27.2 4.3c5.8-6.9 5.5-38-6.1-46.2-11.7-8.3-24.1 5.2-24.1 5.2z" fill="#f7a491"/><path d="m316.2 76c-9 1.8-14.8 7.2-16.9 9.6-4.1.5-9.6 2.7-15.3 12.1-7 11.5-1.8 24.3 6.3 30.6 8.2 6.3 8.1 13.6 8.1 13.6s13.8-7.1 12.5-18c-.6-4.6-2.6-5.6-1.1-9.2 1.5-3.7.4-9.5.7-14.6l.8-3.2s5.8-4.5 11.5-3.2c5.7 1.2 4.9-20-6.6-17.7z" fill="#13375b"/><path d="m312.1 117.6c.1 3.5-.7 6.4-2.7 6.4-2.1 0-2.6-1.3-4.3-6.3-1.6-4.7.3-6.4 2.4-6.5 2 0 4.6 2.9 4.6 6.4z" fill="#f7a491"/><path d="m216.7 496.5s10.4 32 14.9 33.6c1.2.4 8 2.3 9.1 4.9 0 .1 0 .1.1.2.3 1.6-1 3.1-2.7 3.1h-21.4s-3-14.5-4.2-20.8c0 0-6.4-15.5-5.6-17 .7-1.3 9.8-4 9.8-4z" fill="#3c8f7c"/><path d="m294.9 538.3 3.5-11.3s7.4 3.2 11.1 2.6c3.7-.5 10.9-2.6 10.9-2.6 14.8 4.9 26.9 7.3 24.7 11.3z" fill="#3c8f7c"/><path d="m341.5 320.9c-7-3.8-7.2-3.2-8.1-3.7-1-.6-8.6-14.9-8.6-14.9s-22.4-42.1-23.6-44.4l-3.7-48.7-24.5-5.8s5.4 52.9 6.2 55.7c.8 2.7 37.6 56.3 40.7 61.1 0 0 1.6 7 2.8 11.4s4.2 8.1 4.7 9.3c.1.2 2 4.1 5.7 8.2 3.1 3.6 1.8-1.2 1.8-1.2s-4.6-7.7-4-7.9c.5-.2 2.8 4.1 6.2 8.2.9 1 1.8 2 2.6 3 2.1 2.4 4.2 1.9 2.3-1-.6-1-1.8-2.7-2.7-3.8-1-1.2-1.6-2.6-2.3-3.7-1.4-2.2-2.4-3.7-2.3-3.7.2 0 .1-.8 1.1.3 1.2 1.3 3.1 4.5 4.9 6.3 1.1 1 3.1 3.2 3.1 3.2s3.6 2 3.8 1.8c1.2-.9-.6-2.7-2.2-3.8-.7-1.3-2.9-3.5-2.9-3.5s-3.5-5.6-2.8-6.1c.3-.2 2.4 3 5.5 5.8 3.5 3.2 5.8 3.1 6.4 2.6 1-.8-1.3-2.4-1.3-2.4s-3.1-2.2-3.8-3c-.7-.9-8.5-13.6-7.7-14s2.5.3 3.1.7c.6.5 1.7 1.5 2.3 2s2.2.2 2.8-.6c.6-.7-1.4-3.3-1.4-3.3s-2.1-3-4.1-4.1z" fill="#f8a492"/><path d="m262.7 224.4s13.8 2 19.1 2.4c10.4.7 21.2.1 21.2.1s-.1-27.8-.5-38c-1.6-37.2-23.6-23.5-27.8-19.3-9.4 9.5-12 54.8-12 54.8z" fill="#96d9c9"/><g fill="#fcd80e"><path d="m726.5 501.7c-9.4 3.2-14.3 13.5-11.1 22.8 3.2 9.4 13.5 14.3 22.8 11.1 9.4-3.2 14.3-13.5 11.1-22.8-3.2-9.4-13.4-14.4-22.8-11.1z"/><path d="m732.5 437.3c-.5-1.3-1.5-2.4-3.1-3.2s-3.3-1.1-5-.9-3 .8-4 1.9c-.9 1.1-1.2 2.3-.7 3.6l.8 2.4 12.8-1.4z"/><path d="m780.9 428.5c-1.6-.8-3.2-1.1-4.9-.9-1.8.2-3.1.8-4.1 1.9-.9 1.1-1.2 2.3-.7 3.6l.8 2.4 12.8-1.4-.8-2.4c-.5-1.3-1.6-2.4-3.1-3.2z"/><path d="m818 462.9-23.1-67.6c-5.5-16-23-24.6-39.1-19l-70.8 24.5 32 93.4c.9 2.7 3.9 4.2 6.7 3.3l1.1-.4c11.9-4.1 25 2.2 29.1 14.2l.2.7c.9 2.8 3.9 4.2 6.7 3.3l38-13.1c16.2-5.7 24.7-23.2 19.2-39.3zm-66 2c-3.3 3.8-8 6-14.3 6.7-6.2.7-12.1-.4-17.6-3.2s-9.1-6.5-10.7-11.2l-5.7-16.8c-1.6-4.6-.8-8.8 2.4-12.6s7.9-6 14.1-6.7 12.1.4 17.6 3.2 9.1 6.5 10.7 11.2l4.9 14.4-28.8 3.1.8 2.4c.5 1.3 1.5 2.4 3.1 3.2s3.2 1.1 5 .9 3.2-.8 4.1-1.9c1-1.1 1.2-2.3.8-3.6l16.1-1.7c1.6 4.7.8 8.9-2.5 12.6zm51.2-5.5c-3.3 3.8-8 6-14.2 6.7-6.3.7-12.2-.4-17.7-3.2s-9.1-6.5-10.6-11.2l16.1-1.7c.5 1.3 1.5 2.4 3.1 3.2s3.3 1.1 5.1.9c1.7-.2 3.1-.8 4-1.9 1-1.1 1.2-2.3.7-3.6l-.8-2.4-28.8 3.1-5-14.4c-1.6-4.6-.7-8.8 2.5-12.6s8-6 14.2-6.7 12 .4 17.5 3.2 9 6.6 10.6 11.2l5.8 16.8c1.6 4.6.8 8.8-2.5 12.6z"/><path d="m674 339.6h10.9v56.5h-10.9z" transform="matrix(.9452 -.3263 .3263 .9452 -82.858 241.8743)"/><path d="m672.7 335.4c2-.7 3.1-2.9 2.4-4.9l-6.1-17.6c-.7-2-2.9-3.1-4.9-2.4l-8 2.8c-2 .7-3.1 2.9-2.4 4.9l6.1 17.6c.7 2 2.9 3.1 4.9 2.4z"/></g><path d="m676.2 503.2s5.3 5.2 5.4 7.1.5 22.4-1.7 24.4c-2.2 1.9-8.5 3.3-6.4 5.4 1.5 1.6 13.4 1.3 21.2.8 2.3-.1 5.2-18.6 6.1-21.4 1.3-4 6.1-12.6 4.9-15.3-.6-1.3-4.9-4.4-8.8-7-4.1-2.7-8.1-8.7-8.1-8.7z" fill="#f7a491"/><path d="m605.6 516s4.1 11.7 4.7 13.4c0 .1 1.8 7.6 1.8 9.6 0 7.3-32.6-6.2-25.3-9.5.7-.3 2.7-2.6 2.9-5.1.3-3.8-2.7-8.7-2.7-8.7z" fill="#f7a491"/><path d="m560.7 259.2-11.8 30.5s-7.7 72.9-3.2 116.5c1.9 18.2 42.4 115.9 42.4 115.9l20.1-2.9-27-115.6 9.9-44.2 14-87.4z" fill="#b75742"/><path d="m616.2 260.8 10.1 34 15.4 102.6 52 96s-7.8 12-16.2 13.9l-73.8-97-40-121.4 1.4-27z" fill="#f47458"/><path d="m568.4 238.1c1-2.6 11-55.1 11-55.1l-24.9 2.6-7.3 44.4c-8.8-4-16.2-7.4-16.2-7.4s-14.6-6.6-15.2-7.6c-.5-.9.8-1.3-3.2-8-1.2-2-4-3.6-4-3.6s-3.5-1.9-4.2-1.3c-.7.7-.6 1.9-.1 2.5s2 1.2 2.5 1.8.3 3-.1 3.8-10.7-5.2-10.7-5.2-2.9-1.9-3.8-2.6c-.8-.6-2.9-2.5-2.9-2.5s-3.8-2.9-4.6-1.9c-.9 1.2 11.2 11.5 10.8 12.2-.5.8-6.2-2.4-6.2-2.4s-2.3-2.1-3.6-2.7c-1.2-1.5-4.3-3.4-5.2-2.1-.2.2 3.2 3.8 3.2 3.8s2.3 1.9 3.3 2.9c1.8 1.7 5.1 3.4 6.5 4.5 1.1.9.5 1 .5 1.1s-1.6-.9-3.9-2.2c-1.1-.7-2.6-1.2-3.8-2.1-1.1-.9-2.8-1.9-3.9-2.5-3-1.6-3.5.5-1 2.4 1 .8 2 1.6 3.1 2.4 4.1 3.2 8.5 5.2 8.4 5.7-.2.7-8.1-3.5-8.1-3.5s-4.9-1.1-1.2 1.8c4.3 3.4 8.2 5.1 8.4 5.1 1.2.4 5 3.2 9.5 4.1s11.6 2 11.6 2c3.5 2 32.2 19.4 49.4 29.6l12.7-15.4c-1.4-.6-4.2-1.9-7.7-3.5.5-.4.8-.9.9-1.1z" fill="#f8a492"/><path d="m549.4 200.7 28.7 3s1.3-23.9 1.3-35.2c0-13.8-1.8-31-3.5-30.6-4.6 1.1-10.2 3.1-13.9 8.2-12.7 17.8-12.6 54.6-12.6 54.6z" fill="#fcc332"/><path d="m696.5 497.2s-11.1 34.1-15.9 35.8c-1.3.4-8.4 2.2-9.5 5 0 .1-.1.1-.1.2-.4 1.7 1.1 3.3 2.8 3.3h22.6s3.2-15.3 4.5-22c0 0 6.7-16.4 6-17.9-.7-1.6-10.4-4.4-10.4-4.4z" fill="#184655"/><path d="m614 541.4-3.7-12s-7.9 3.4-11.8 2.8-11.6-2.8-11.6-2.8c-15.6 5.2-28.4 7.7-26.1 11.9h53.2z" fill="#3c8f7c"/><path d="m612.6 136.2s15.2 2.1 19.2 5c4.5 3.3 12.9 16.5 12.9 16.5s-23.5 85.4-22.4 100.2 4.3 36.7 4.3 36.7-56.4 3.6-77.7-4.9c0 0 6.7-33.5 6.7-42.3s3.8-96.8 6.5-101.4 8.1-7.2 18.4-9.5c10.4-2.2 32.1-.3 32.1-.3z" fill="#fcd815"/><path d="m608.4 112.4 3.8 24.6s-13.1 21-21.3 18.5c-6.9-2.1-3.2-19.8-3.2-19.8s1.3-4.9 2.2-10.3c.6-3.7.9-7.8.5-10.6-1.3-6.9 18-2.4 18-2.4z" fill="#f7a491"/><path d="m590.2 114.9c-1.1-7 18.2-2.4 18.2-2.4l.3 2c-.6 1.4-1.3 2.5-2.1 3.4-4.3 4.6-11.1 7.4-16.9 7.6.6-3.8 1-7.8.5-10.6z" fill="#f47458"/><path d="m611.6 77.6c.5-.2 4.4 28-2.9 35.8s-21.4 10.3-26.5 4.2c-5.6-6.8-5.3-37.1 6-45.1s23.4 5.1 23.4 5.1z" fill="#f7a491"/><path d="m595.9 60.1c8.7 1.8 22.4 9.3 28 18.5 6.8 11.3 1.8 23.7-6.2 29.9-8 6.1-7.9 13.2-7.9 13.2l-1.2-3.7c-.9-2.8-1.3-5.7-1-8.6.2-1.7.6-3.6 1.3-5.2 1.9-4.1-4.1-6.8-5.8-10.2-1.3-2.6-1.4-8.6-3.4-12.9l-2.5-3.3s-5.5-3.3-11.2-3.1c-3.4-.1-1.3-16.9 9.9-14.6z" fill="#f47458"/><path d="m603.4 98.9c-.1 3.4 1.5 6.3 3.5 6.3s3.7-2.7 3.7-6.2c.1-3.4-1.5-6.3-3.5-6.3s-3.6 2.8-3.7 6.2z" fill="#f7a491"/><path d="m631.1 195.5s19.8 34.6 20.7 43.8c1 9.2 4 64.2 4 64.2s-4 23.7-2 25.7 7.6 1.3 9.2 1.6c1.2.2 5.2-.2 7.1-.5.7-.1 1.4-.3 2.1-.6l2.7-1.3s-5.7-22.4-5.5-24 4.8-62.9 2.1-75c-2.6-12.2-20.4-53-20.4-53z" fill="#f8a492"/><path d="m664.7 198.2-26.5 13.8s-8.6-20.1-14.3-32c-5.7-12 2.2-40.3 8.3-38.6 13.6 3.6 32.5 56.8 32.5 56.8z" fill="#fcc332"/><path d="m593.5 283.9c.3 4.5.5 9 .7 13.4.4 6.6-5.9 12.4-14 12.4-10.5 0-21-.7-31.3-2.2-8-1.1-13-7.7-11.4-14.1 1-4.4 2-8.7 3-13.1 1.5-6.4 7.8-10.5 14.2-9.6 8.6 1.2 17.3 1.8 26 1.7 6.6 0 12.4 4.9 12.8 11.5z" fill="#184655"/><path d="m625.1 277.6s-22.3 6.3-33.4 8.1l.8 11.3 34.2-2.3z" fill="#184655"/><path d="m589.6 283.9c.3 4.5.5 9 .7 13.4.4 6.6-5.9 12.4-14 12.4-10.5 0-21-.7-31.3-2.2-8-1.1-13-7.7-11.4-14.1 1-4.4 2-8.7 3-13.1 1.5-6.4 7.8-10.5 14.2-9.6 8.6 1.2 17.3 1.8 26 1.7 6.5 0 12.3 4.9 12.8 11.5z" fill="#3c8f7c"/><path d="m565.1 287.4c-12.9 0-23.8-3.6-24.4-3.8l.8-2.3c.2.1 22.3 7.4 40.6 1.1l.8 2.2c-5.9 2.1-12 2.8-17.8 2.8z" fill="#184655"/><path d="m575.6 286.9-1.7.3c-.5.1-1-.3-1.1-.8l-.2-1c-.1-.5.3-1 .8-1.1l1.7-.3c.5-.1 1 .3 1.1.8l.2 1c.1.5-.3 1-.8 1.1z" fill="#355389"/><path d="m575.2 285.5-1.2.2-.2 4.9 3.7-.5zm-.4 1 1.5 3.1-1.7.2z" fill="#13375b"/></svg>