<svg enable-background="new 0 0 960 843.3" viewBox="0 0 960 843.3" xmlns="http://www.w3.org/2000/svg" xmlns:xlink="http://www.w3.org/1999/xlink"><defs><path id="a" d="m418.7 735.1c-62.8-35.4-137.8-89.4-194.4-167.7-14.5-20-103.7-143.4-58.1-190.1 16.1-16.5 35.3-9.5 57.2-31.1 25.9-25.6 15.5-51.8 24-97.4 5.1-27.2 19.9-106.8 80.6-120.8 36.3-8.4 87.4 7.1 117.2 34.8 43.7 40.6 32.9 99.6 13 199-17.6 88.2-34.4 102.7-46 166.4-8.7 47.3-13.5 116.4 6.5 206.9z"/><clipPath id="b"><use xlink:href="#a"/></clipPath><linearGradient id="c"><stop offset="0" stop-color="#aa80f9"/><stop offset=".9964" stop-color="#6165d7"/></linearGradient><linearGradient id="d" gradientUnits="userSpaceOnUse" x1="514.2137" x2="828.592" xlink:href="#c" y1="512.1603" y2="512.1603"/><clipPath id="e"><use xlink:href="#O"/></clipPath><linearGradient id="f" gradientUnits="userSpaceOnUse" x1="846.7394" x2="735.5459" y1="433.1071" y2="731.5742"><stop offset=".00359712" stop-color="#e38ddd"/><stop offset="1" stop-color="#9571f6"/></linearGradient><clipPath id="g"><use xlink:href="#P"/></clipPath><linearGradient id="h"><stop offset="0" stop-color="#444b8c"/><stop offset=".9964" stop-color="#26264f"/></linearGradient><linearGradient id="i" gradientTransform="matrix(-.9989 .0464 .0464 .9989 2931.1128 -54.0564)" gradientUnits="userSpaceOnUse" x1="2728.8567" x2="2764.6252" xlink:href="#h" y1="728.1514" y2="728.1514"/><linearGradient id="j"><stop offset="0" stop-color="#ffc444"/><stop offset=".9964" stop-color="#f36f56"/></linearGradient><linearGradient id="k" gradientTransform="matrix(-.9989 .0464 .0464 .9989 2931.1128 -54.0564)" gradientUnits="userSpaceOnUse" x1="2756.6572" x2="2738.6899" xlink:href="#j" y1="685.3729" y2="718.2399"/><linearGradient id="l" gradientTransform="matrix(-.9989 .0464 .0464 .9989 2931.1128 -54.0564)" gradientUnits="userSpaceOnUse" x1="2689.6262" x2="2752.8809" xlink:href="#c" y1="723.6396" y2="447.7406"/><linearGradient id="m" gradientTransform="matrix(-1 0 0 1 3034.0911 0)" gradientUnits="userSpaceOnUse" x1="2832.2146" x2="2881.4353" xlink:href="#h" y1="814.3777" y2="814.3777"/><linearGradient id="n" gradientTransform="matrix(-1 0 0 1 3034.0911 0)" gradientUnits="userSpaceOnUse" x1="2859.001" x2="2877.9695" xlink:href="#j" y1="811.8782" y2="772.6177"/><linearGradient id="o" gradientTransform="matrix(-.9989 .0464 .0464 .9989 2931.1128 -54.0564)" gradientUnits="userSpaceOnUse" x1="2690.5022" x2="2753.7568" xlink:href="#c" y1="723.8405" y2="447.9415"/><linearGradient id="p" gradientTransform="matrix(-1 0 0 1 3034.0911 0)" gradientUnits="userSpaceOnUse" x1="2829.9736" x2="2941.7175" xlink:href="#c" y1="674.4518" y2="498.2909"/><linearGradient id="q"><stop offset="0" stop-color="#311944"/><stop offset="1" stop-color="#893976"/></linearGradient><linearGradient id="r" gradientTransform="matrix(-1 0 0 1 3034.0911 0)" gradientUnits="userSpaceOnUse" x1="2746.0317" x2="2782.3376" xlink:href="#q" y1="289.1966" y2="417.9689"/><linearGradient id="s" gradientTransform="matrix(-1 0 0 1 3034.0911 0)" gradientUnits="userSpaceOnUse" x1="2808.7349" x2="2880.0454" xlink:href="#q" y1="271.7858" y2="524.7148"/><linearGradient id="t" gradientTransform="matrix(-1 0 0 1 3034.0911 0)" gradientUnits="userSpaceOnUse" x1="2844.3679" x2="2956.1118" xlink:href="#c" y1="683.5827" y2="507.4216"/><linearGradient id="u" gradientTransform="matrix(-1 0 0 1 3034.0911 0)" gradientUnits="userSpaceOnUse" x1="2767.7371" x2="2839.0493" xlink:href="#q" y1="248.3727" y2="501.3081"/><linearGradient id="v" gradientTransform="matrix(.917 .3988 -.3988 .917 999.5955 -232.1789)" gradientUnits="userSpaceOnUse" x1="-511.9096" x2="-509.6324" xlink:href="#j" y1="827.0488" y2="766.3931"/><linearGradient id="w" gradientTransform="matrix(-1 0 0 1 3034.0911 0)" gradientUnits="userSpaceOnUse" x1="2788.874" x2="2818.1912" xlink:href="#h" y1="250.9111" y2="288.1519"/><linearGradient id="x" gradientTransform="matrix(.8962 .4436 -.4436 .8962 918.8586 -275.725)" gradientUnits="userSpaceOnUse" x1="-374.8182" x2="-376.1363" xlink:href="#j" y1="805.1243" y2="911.3258"/><linearGradient id="y" gradientTransform="matrix(-1 0 0 1 3034.0911 0)" gradientUnits="userSpaceOnUse" x1="2784.9502" x2="2814.2673" xlink:href="#h" y1="253.9999" y2="291.2408"/><linearGradient id="z" gradientTransform="matrix(-.8674 -.4976 -.4976 .8674 1973.4121 282.1646)" gradientUnits="userSpaceOnUse" x1="1505.4972" x2="1506.9891" y1="879.4635" y2="892.7643"><stop offset="0" stop-color="#ffc444"/><stop offset="1" stop-color="#f36f56"/></linearGradient><linearGradient id="A" gradientTransform="matrix(-1 0 0 1 3034.0911 0)" gradientUnits="userSpaceOnUse" x1="2775.4368" x2="2846.7493" xlink:href="#q" y1="246.2022" y2="499.1377"/><linearGradient id="B" gradientTransform="matrix(-.9424 .3345 .3345 .9424 3559.626 -510.6455)" gradientUnits="userSpaceOnUse" x1="3468.7959" x2="3521.0583" xlink:href="#q" y1="-412.7023" y2="-227.334"/><linearGradient id="C" gradientTransform="matrix(-1 0 0 1 3034.0911 0)" gradientUnits="userSpaceOnUse" x1="2783.396" x2="2785.0083" xlink:href="#j" y1="424.528" y2="381.5785"/><linearGradient id="D" gradientTransform="matrix(-1 0 0 1 3034.0911 0)" gradientUnits="userSpaceOnUse" x1="2805.0376" x2="2806.4065" xlink:href="#j" y1="447.7226" y2="411.2579"/><linearGradient id="E" gradientTransform="matrix(-1 0 0 1 3231.0066 0)" gradientUnits="userSpaceOnUse" x1="2692.7261" x2="2557.8923" xlink:href="#h" y1="409.7732" y2="424.4823"/><linearGradient id="F" gradientTransform="matrix(-1 0 0 1 3231.0066 0)" gradientUnits="userSpaceOnUse" x1="2811.5273" x2="2478.1228" xlink:href="#h" y1="69.8979" y2="1204.9479"/><linearGradient id="G" gradientTransform="matrix(-1 0 0 1 3231.0066 0)" gradientUnits="userSpaceOnUse" x1="2686.5928" x2="2294.752" xlink:href="#j" y1="41.9407" y2="1103.1764"/><clipPath id="H"><path d="m663.6 779.3c-1.1 9.8-7.6 18.3-16.2 17.6l-341.1-28.3c-7.8-.6-14.1-9.8-13.1-19.1l76-643.7c1.1-9 9.1-15.4 16.9-15.4l340.4-4.1c8.6-.1 13.3 6.4 12.3 15.9z"/></clipPath><linearGradient id="I"><stop offset="0" stop-color="#ab316d"/><stop offset="1" stop-color="#792d3d"/></linearGradient><linearGradient id="J" gradientTransform="matrix(-1 0 0 1 3449.9651 0)" gradientUnits="userSpaceOnUse" x1="2909.5947" x2="2974.1619" xlink:href="#I" y1="221.6639" y2="221.6639"/><linearGradient id="K" gradientTransform="matrix(-1 0 0 1 3449.9651 0)" gradientUnits="userSpaceOnUse" x1="2779.4409" x2="2844.0081" xlink:href="#I" y1="372.6851" y2="372.6851"/><linearGradient id="L" gradientTransform="matrix(-1 0 0 1 3449.9651 0)" gradientUnits="userSpaceOnUse" x1="2944.1196" x2="3008.6868" xlink:href="#I" y1="479.5885" y2="479.5885"/><linearGradient id="M" gradientTransform="matrix(-1 0 0 1 3449.9651 0)" gradientUnits="userSpaceOnUse" x1="2850.4238" x2="2914.9907" xlink:href="#I" y1="690.9788" y2="690.9788"/><linearGradient id="N" gradientTransform="matrix(-1 0 0 1 3449.9651 0)" gradientUnits="userSpaceOnUse" x1="3027.1326" x2="2764.6978" xlink:href="#j" y1="413.0245" y2="911.8142"/><path id="O" d="m514.2 733.4c24.1-18.6 56.5-49.3 74.3-95.6 23.4-60.7 1.1-94.7 14.3-200 8.3-66.6 14.8-113 50.9-134.6 28.3-16.9 71.4-16.7 95.5 4 20.1 17.2 29.4 50.4 31 73.6 1.3 18.9-2.5 32.2 7.2 43.1 10 11.1 22.4 6.6 31.9 15 19.3 17.1 2.4 65.8-.3 73.7-30.4 87.5-118.9 139.9-157.8 162.3-32.1 18.3-81.3 42.4-147 58.5z"/><path id="P" d="m603.8 755.6c47.7 5.7 109.2 6.2 170.5-13.6 15.6-5 112.2-36.2 106.1-79.3-2.2-15.2-15.2-19-18.5-39.2-3.8-24 12.1-33.9 25.5-61.7 8-16.6 31.4-65.2 4.2-96.6-16.2-18.8-49.7-30.6-76.6-27.4-39.4 4.6-56.9 40.5-85.3 101.8-25.2 54.3-21.9 68.7-40.8 107.5-14.1 28.8-38.7 67.8-85.1 108.5z"/></defs><path d="m983.4-2760.5h-1610.6c-31.7 0-50.2-35.8-31.9-61.7l44.6-62.9c7.3-10.3 19.2-16.5 31.8-16.5l1566-1c23.1 0 44.8 11.2 58.1 30.1 33.2 47.2-.5 112-58 112z" fill="#ebf1ff"/><g fill="none" stroke="#606060" stroke-miterlimit="10" stroke-width="6"><path d="m-569.1-2877.3-53.7 85.8" opacity=".3"/><path d="m-508.1-2877.3-53.7 85.8" opacity=".3"/><path d="m-447.1-2877.3-53.7 85.8" opacity=".3"/><path d="m-386.1-2877.3-53.7 85.8" opacity=".3"/><path d="m-325.1-2877.3-53.7 85.8" opacity=".3"/><path d="m-264.1-2877.3-53.7 85.8" opacity=".3"/><path d="m-203.1-2877.3-53.7 85.8" opacity=".3"/><path d="m-142.1-2877.3-53.7 85.8" opacity=".3"/><path d="m-81.1-2877.3-53.7 85.8" opacity=".3"/><path d="m-20.1-2877.3-53.7 85.8" opacity=".3"/><path d="m40.9-2877.3-53.7 85.8" opacity=".3"/><path d="m101.9-2877.3-53.7 85.8" opacity=".3"/><path d="m162.9-2877.3-53.7 85.8" opacity=".3"/><path d="m223.9-2877.3-53.7 85.8" opacity=".3"/><path d="m284.9-2877.3-53.7 85.8" opacity=".3"/><path d="m345.9-2877.3-53.7 85.8" opacity=".3"/><path d="m406.9-2877.3-53.7 85.8" opacity=".3"/><path d="m467.9-2877.3-53.7 85.8" opacity=".3"/><path d="m528.9-2877.3-53.7 85.8" opacity=".3"/><path d="m589.9-2877.3-53.7 85.8" opacity=".3"/><path d="m650.9-2877.3-53.7 85.8" opacity=".3"/><path d="m711.9-2877.3-53.7 85.8" opacity=".3"/><path d="m772.9-2877.3-53.7 85.8" opacity=".3"/><path d="m833.9-2877.3-53.7 85.8" opacity=".3"/><path d="m894.9-2877.3-53.7 85.8" opacity=".3"/><path d="m955.9-2877.3-53.7 85.8" opacity=".3"/><path d="m1016.9-2877.3-53.7 85.8" opacity=".3"/></g><path d="m-280.9-2835.4c-.1-20.7 16.7-37.6 37.4-37.7s37.6 16.6 37.7 37.4c.1 20.7-16.7 37.6-37.4 37.7s-37.6-16.7-37.7-37.4z" fill="#fcd80e"/><path d="m-410.1-2864.5c-3 0-5.2-1.3-6.7-3.9s-1.8-5.6-1-9.1c.8-3.6 2.5-6.8 5.2-9.4 2.6-2.6 5.4-3.9 8.4-3.9l5.3-.1-5.9 26.3z" fill="#fcd80e"/><path d="m-389-2992.4c2.6-2.6 5.4-3.9 8.4-3.9h5.3l-5.9 26.3h-5.3c-3 0-5.2-1.3-6.7-3.9s-1.8-5.7-1-9.4c.9-3.5 2.6-6.5 5.2-9.1z" fill="#fcd80e"/><path d="m-509.2-2978 .6 156.6 206.4-.4c6.1 0 11-5 11-11.1v-2.5c-.1-26.4 21.2-47.9 47.7-48h1.5c6.1 0 11-5 11-11.1l-.3-84.1c-.1-35.5-29-64.2-64.5-64l-149.3.1c-35.6.1-64.2 29-64.1 64.5zm172.9 67.2c5.3 9 6.5 19.9 3.6 32.8-2.9 12.7-8.9 23.6-18.3 32.6-9.3 9-19.1 13.6-29.3 13.6h-37.2c-10.2.1-18-4.4-23.3-13.3s-6.5-19.8-3.7-32.4c2.9-12.8 9-23.7 18.3-32.7s19.1-13.5 29.3-13.6l31.9.1-13.2 59.1 5.3-.1c3 0 5.8-1.3 8.4-3.9s4.4-5.7 5.2-9.2c.8-3.7.5-6.8-1-9.4s-3.7-3.9-6.7-3.9l7.4-33c10.2-.1 18 4.3 23.3 13.3zm-80.8-39.8c-5.3-9-6.5-19.8-3.6-32.7 2.8-12.7 8.9-23.5 18.2-32.5s19.1-13.5 29.3-13.4l37.2-.2c10.2 0 17.9 4.5 23.2 13.5s6.5 19.9 3.6 32.6c-2.9 12.9-9 23.8-18.3 32.8s-19.1 13.5-29.3 13.5l7.4-33c3 0 5.8-1.4 8.4-4s4.4-5.8 5.2-9.4c.8-3.5.4-6.6-1-9.2-1.5-2.6-3.7-3.9-6.7-3.9h-5.3l-13.2 59.1-31.9.2c-10.2.1-17.9-4.4-23.2-13.4z" fill="#fcd80e"/><path d="m-518.5-2844.2.1 22.8-5.3.3-.1-22.8z" fill="#fcd80e"/><path d="m-554.4-2823.3-.1-17.7c0-4.5 3.6-8.1 8-8.1l4.7-.2c4.5 0 8.1 3.6 8.1 8l.1 17.7c0 4.5-3.6 8.1-8 8.1l-4.7.2c-4.5 0-8.1-3.6-8.1-8z" fill="#fcd80e"/><path d="m88.3-2887.4c-.1-14.6 11.7-26.5 26.3-26.6s26.5 11.7 26.6 26.3-11.7 26.5-26.3 26.6c-14.6.2-26.5-11.6-26.6-26.3z" fill="#fcd80e"/><path d="m-2.8-2907.9c-2.1 0-3.7-.9-4.7-2.8-1-1.8-1.3-4-.7-6.4.6-2.6 1.8-4.8 3.7-6.6s3.8-2.7 5.9-2.7h3.8l-4.2 18.5z" fill="#fcd80e"/><path d="m12.1-2998c1.9-1.8 3.8-2.8 5.9-2.8h3.7l-4.2 18.5h-3.7c-2.1 0-3.7-.9-4.7-2.7s-1.3-4-.7-6.6c.7-2.4 1.9-4.6 3.7-6.4z" fill="#fcd80e"/><path d="m-72.6-2987.8.4 110.3 145.5-.3c4.3 0 7.8-3.5 7.7-7.8v-1.8c-.1-18.6 15-33.8 33.6-33.8h1.1c4.3 0 7.8-3.5 7.7-7.8l-.2-59.3c-.1-25-20.5-45.2-45.5-45.1l-105.2.1c-25 .1-45.2 20.5-45.1 45.5zm121.8 47.3c3.7 6.3 4.6 14 2.5 23.1-2 9-6.3 16.6-12.9 23s-13.4 9.6-20.7 9.6h-26.2c-7.2 0-12.7-3.1-16.4-9.4s-4.6-13.9-2.6-22.9 6.3-16.7 12.9-23 13.4-9.5 20.6-9.6l22.4.1-9.3 41.6h3.7c2.1 0 4.1-.9 5.9-2.8 1.9-1.8 3.1-4 3.6-6.5.6-2.6.3-4.8-.7-6.6s-2.6-2.8-4.7-2.8l5.2-23.3c7.5.1 13 3.2 16.7 9.5zm-56.9-28c-3.7-6.3-4.6-14-2.6-23 2-8.9 6.3-16.6 12.8-22.9 6.6-6.3 13.4-9.5 20.6-9.5l26.2-.1c7.2 0 12.6 3.2 16.4 9.5 3.7 6.3 4.6 14 2.6 23-2 9.1-6.3 16.8-12.9 23.1-6.6 6.4-13.4 9.5-20.6 9.5l5.2-23.3c2.1 0 4.1-1 5.9-2.8 1.9-1.8 3.1-4.1 3.7-6.6s.3-4.7-.7-6.5-2.6-2.7-4.7-2.7h-3.7l-9.3 41.6-22.5.2c-7.2 0-12.7-3.2-16.4-9.5z" fill="#fcd80e"/><path d="m-79.1-2893.6v16.1l-3.7.2-.1-16z" fill="#fcd80e"/><path d="m-104.5-2878.9v-12.5c0-3.1 2.5-5.7 5.7-5.7l3.3-.1c3.1 0 5.7 2.5 5.7 5.7v12.5c0 3.1-2.5 5.7-5.7 5.7l-3.3.1c-3.1 0-5.7-2.5-5.7-5.7z" fill="#fcd80e"/><path d="m912.3-2903.9c-.1-18.8 15.1-34 33.9-34.1s34 15.1 34.1 33.8c.1 18.8-15.1 34.1-33.8 34.1-18.9.2-34.2-15-34.2-33.8z" fill="#fcd80e"/><path d="m795.2-2930.2c-2.7 0-4.7-1.2-6-3.5s-1.6-5.1-.9-8.3c.7-3.3 2.3-6.1 4.7-8.5s4.9-3.5 7.6-3.5h4.8l-5.3 23.8z" fill="#fcd80e"/><path d="m814.3-3046c2.4-2.3 4.9-3.5 7.6-3.6h4.8l-5.3 23.8h-4.8c-2.7 0-4.7-1.1-6-3.5-1.3-2.3-1.6-5.2-.9-8.5.7-3.1 2.3-5.9 4.6-8.2z" fill="#fcd80e"/><path d="m705.5-3032.9.6 141.8 186.9-.3c5.5 0 10-4.5 9.9-10v-2.3c-.1-23.9 19.2-43.4 43.1-43.5h1.4c5.5 0 10-4.5 10-10l-.3-76.2c-.1-32.1-26.3-58.1-58.4-58l-135.2.1c-32.1.1-58.1 26.2-58 58.4zm156.5 60.8c4.8 8.1 5.9 18 3.3 29.7-2.6 11.5-8.1 21.4-16.5 29.6s-17.3 12.3-26.5 12.4h-33.7c-9.2.1-16.3-4-21.1-12.1s-5.9-17.9-3.3-29.4c2.6-11.6 8.1-21.5 16.6-29.6 8.4-8.1 17.3-12.2 26.5-12.3l28.8.1-12 53.5h4.8c2.7 0 5.2-1.2 7.6-3.5 2.4-2.4 4-5.1 4.7-8.3.7-3.3.4-6.2-.9-8.5-1.3-2.4-3.3-3.5-6-3.6l6.7-29.9c9.2-.3 16.2 3.8 21 11.9zm-73.1-36c-4.8-8.1-5.9-18-3.3-29.6 2.6-11.5 8.1-21.3 16.5-29.4s17.3-12.2 26.5-12.2l33.7-.2c9.2 0 16.2 4.1 21 12.2s5.9 18 3.3 29.5c-2.6 11.6-8.1 21.6-16.6 29.7-8.4 8.2-17.3 12.2-26.5 12.2l6.7-29.9c2.7 0 5.3-1.2 7.6-3.6 2.4-2.4 4-5.2 4.7-8.5.7-3.2.4-6-.9-8.3-1.3-2.4-3.3-3.5-6-3.5h-4.8l-12 53.5-28.9.2c-9.2.1-16.2-4-21-12.1z" fill="#fcd80e"/><path d="m697.1-2911.8.1 20.6-4.8.3-.1-20.6z" fill="#fcd80e"/><path d="m664.6-2892.9-.1-16c0-4 3.2-7.3 7.3-7.3l4.3-.2c4 0 7.3 3.2 7.3 7.3l.1 16c0 4-3.2 7.3-7.3 7.3l-4.3.2c-4 0-7.3-3.3-7.3-7.3z" fill="#fcd80e"/><path d="m317.8-2891c-22.6.2-40.7 18.7-40.4 41.3.2 22.6 18.7 40.7 41.3 40.4 22.6-.2 40.7-18.7 40.4-41.3-.2-22.6-18.7-40.7-41.3-40.4z" fill="#fcd80e"/><path d="m377.2-3025.8c0-3.2-1.4-6.3-4.3-9.1-2.8-2.9-6.3-4.7-10.2-5.6-3.8-.8-7.1-.4-10 1.2-2.8 1.6-4.2 4.1-4.2 7.3l.1 5.8 28.7 6.2z" fill="#fcd80e"/><path d="m488-3010c-2.9-2.8-6.2-4.7-10-5.5-4-.9-7.4-.5-10.2 1.1s-4.2 4.1-4.2 7.3v5.8l28.7 6.2v-5.8c0-3.2-1.5-6.2-4.3-9.1z" fill="#fcd80e"/><path d="m543.4-2908.9-1.3-162.6c-.4-38.6-32.1-69.7-70.7-69.2l-170.5 1.8 1.9 224.8c.1 6.6 5.5 11.9 12.1 11.9h2.7c28.8-.3 52.4 22.8 52.7 51.5v1.7c.1 6.6 5.5 12 12.1 11.9l91.6-1c38.8-.4 69.8-32.1 69.4-70.8zm-143.9-43.1c-9.8 5.8-21.6 7.2-35.7 4.2-13.9-3-25.8-9.6-35.7-19.6-9.9-10.1-14.9-20.7-15.1-31.8l-.2-40.5c-.2-11.1 4.6-19.6 14.3-25.4s21.5-7.2 35.3-4.2c14 3 25.9 9.6 35.7 19.7 9.9 10.1 14.9 20.7 15 31.8l.1 34.7-64.4-14 .1 5.8c0 3.2 1.4 6.3 4.3 9.1 2.9 2.9 6.2 4.7 10.1 5.6 4 .9 7.4.5 10.2-1.1s4.2-4 4.2-7.3l36 7.8c.3 10.9-4.5 19.4-14.2 25.2zm114.6 24.9c-9.7 5.8-21.6 7.2-35.5 4.2-14-3-26-9.6-35.9-19.7s-14.9-20.7-14.9-31.8l36 7.8c.1 3.3 1.5 6.3 4.4 9.2s6.3 4.7 10.3 5.6c3.9.8 7.2.4 10-1.2s4.2-4.1 4.2-7.3v-5.8l-64.4-14-.5-34.8c-.1-11.1 4.8-19.6 14.5-25.4s21.6-7.2 35.5-4.2c13.8 3 25.7 9.5 35.5 19.6 9.9 10.1 14.8 20.7 14.9 31.8l.5 40.5c0 11.2-4.9 19.7-14.6 25.5z" fill="#fcd80e"/><path d="m300.1-3278.4h24.9v128.7h-24.9z" fill="#fcd80e" transform="matrix(.9999 -.01059017 .01059017 .9999 34.055 3.1293)"/><path d="m321.3-3289.2c4.9 0 8.8-4 8.7-8.9l-.5-42.5c-.1-4.9-4-8.7-8.9-8.7l-19.3.2c-4.9 0-8.8 4-8.7 8.9l.5 42.5c0 4.9 4 8.8 8.9 8.7z" fill="#fcd80e"/><use fill="#d8dee8" xlink:href="#a"/><g clip-path="url(#b)" fill="#fff" opacity=".5"><path d="m425.3 743.5c14.4 19.7 30.5 37.9 48.4 54.8 54.7 51.6 122.7 88.5 202.2 109.6l.9-3.6c-78.9-20.9-146.4-57.5-200.6-108.7-194-183.1-129.4-485.6-105-574 13.8-50.1 43.7-97.3 88.7-140.2l-2.5-2.7c-45.5 43.4-75.7 91.1-89.7 141.9-20.1 72.8-40.9 184.3-25.7 302.5 10.9 86 38.9 159.8 83.3 220.4z"/><path d="m341 372.2 1.5-.6c1.2-.5 120.4-48 150.1-158.6l-3.6-1c-27.4 102-132.4 149.5-146.3 155.5-83-161.9-25.4-259.6-5.7-285.7.5-.7.9-1.2 1-1.4l-3.2-1.8c-.1.2-.4.5-.7 1-20.1 26.7-79 126.4 6.1 291.2z"/><path d="m201.6 421.3c24 32.7 66.5 72.1 141.2 101.4l.9.4.8-.6c.8-.6 80.6-56.9 132.5-165.9l52.3-109.8-3.3-1.6-52.3 109.8c-48.7 102.2-122.1 157.7-130.5 163.9-87.4-34.5-130-82.9-150.3-117.5-22-37.5-23.3-67-23.3-67.3l-3.7.1c0 1.2 1.3 30.8 23.8 69 3.4 5.8 7.3 11.8 11.9 18.1z"/></g><use fill="url(#d)" xlink:href="#O"/><g clip-path="url(#e)" fill="#fff" opacity=".5"><path d="m487.5 747.8-.6-2.4c69.8-19 158.7-57.6 185.4-133.7 9.8-28 10.2-57.9 10.8-99.4.5-33.1-2.2-56.6-4.6-77.3-3.1-27.1-5.5-48.6.6-78.7 6.2-30.6 19.4-60.4 39.2-88.4l2 1.4c-19.6 27.8-32.7 57.2-38.8 87.5-6 29.8-3.6 51.1-.6 78 2.4 20.8 5 44.4 4.6 77.6-.6 40.1-1 71.8-10.9 100.2-12.7 36.3-40.8 67.5-83.5 93-28.9 17.1-63.7 31.3-103.6 42.2z"/><path d="m684.6 489.5-1.2-.7c-.2-.1-21.2-12-40.9-36.6-18.2-22.8-39-61.4-34.9-116.4l2.5.2c-4 54.1 16.5 92.2 34.4 114.7 16.7 20.9 34.3 32.5 38.9 35.3 23.8-57.6 59.3-91.7 85-110.2 28.1-20.2 50.9-26.7 51.1-26.8l.7 2.4c-.2.1-22.7 6.5-50.4 26.5-25.6 18.5-61.1 52.6-84.6 110.4z"/><path d="m680.5 578.8-.4-.8c-.2-.3-18.7-33.9-43.9-63.9-25-29.8-88.8-45.6-89.5-45.7l.6-2.4c2.7.6 65.3 16.1 90.8 46.5 23.2 27.6 40.7 58.3 43.7 63.5 69.9-14.4 157.9-166.2 158.8-167.7l2.1 1.2c-.2.4-22.7 39.3-53.5 79.3-41.6 53.9-77.8 84.1-107.8 89.8z"/><path d="m601.7 698.5 1.4-2c20.3-28.4 20.8-60.3 1.7-94.8-14.4-25.8-35-43.4-35.2-43.6l1.6-1.9c.2.2 21.2 18.1 35.8 44.3 19 34 18.8 67-.4 95.4 8.4-.4 37.5-2.4 74.6-11.4 40.4-9.8 98.7-30.2 147.1-71.8l93.9-80.8 1.6 1.9-93.9 80.8c-48.7 41.9-107.4 62.5-148.1 72.4-44.1 10.7-77.1 11.5-77.5 11.5z"/></g><use fill="url(#f)" xlink:href="#P"/><g clip-path="url(#g)" fill="#fff" opacity=".5"><path d="m597 757.5c-15.5 4.9-31.3 8.4-47.6 10.4-49.7 6.2-100.7-.8-151.8-20.7l.9-2.3c50.6 19.8 101.3 26.7 150.6 20.6 176.3-22 260.7-209.9 282.4-267 12.3-32.4 14.8-69.4 7.5-110.2l2.4-.4c7.4 41.2 4.8 78.8-7.6 111.5-17.8 47-50.6 115.1-105.3 172.6-39.7 41.8-83.8 70.5-131.5 85.5z"/><path d="m788.4 591.3-.6-.9c-.5-.7-45.8-73.2-18.2-144.3l2.3.9c-25.5 65.6 12.2 132.4 17.4 141.1 108.3-54.3 115.8-129.5 115.5-151.3 0-.6 0-1 0-1.1l2.4.3v.8c.3 22.2-7.3 99-117.9 154z"/><path d="m843.9 672.5c-25.7 8.1-64.1 12.6-115.7-1.1l-.6-.2-.2-.6c-.2-.6-20.9-62.3-5.9-141.3l15.1-79.6 2.4.5-15.1 79.6c-14.1 74.1 3.5 132.8 5.6 139.4 60.6 15.9 102.4 6.6 126.9-3.9 26.6-11.5 38.9-26.8 39-27l1.9 1.5c-.5.6-12.8 16-40 27.7-3.9 1.7-8.4 3.4-13.4 5z"/></g><path d="m209.5 782.8c-6.4 5.1-6.7 8.8-6.5 10.6.3 2.9 2.5 4 7.7 9.4 7 7.3 5.9 8.3 9.5 11 7.9 5.9 19 5.5 19.7 3.5.5-1.4-4.6-2.5-10.3-9.2-5.3-6.1-7.1-12.2-7.6-14-.9-3.2-1.1-6-1.1-8z" fill="url(#i)"/><path d="m230.8 767.1-12.6 21.9c-3 1.3-5.9.7-8.6-3.2l4.9-26.5z" fill="url(#k)"/><path d="m246 487.1c12.2 20.6 32 60.4 36 114.2 4 53.1-9.4 93.5-15 108.6-10.5 28.3-28.8 58-39.4 72.1-7.2-3-11.4-7.7-18.5-10.7 1.1-3.9 4.4-16.8 6.5-24.4 1.6-5.9 4.6-16.9 5.2-19.3 5.1-19.7 1.1-34.4 2.5-58.7 1.7-28.4 8.1-25.1 7.2-42.1-1.5-25.4-15.9-31.4-32.4-68.2-11.3-25.2-23.2-51.6-12.3-66.1 13.6-18.2 55.5-6.8 60.2-5.4z" fill="url(#l)"/><path d="m157.6 802.8c-3.8 2.4-6.1 8.2-4.4 11.8s6.1 2.4 16.7 5.7c11.3 3.5 13.6 7 21.9 7 3.4 0 9.5-.6 10-2.9.4-1.6-2.2-3.2-10.8-8.9-12.1-8.2-12-8.4-14.7-9.6-6.8-3.2-13.6-6.3-18.7-3.1z" fill="url(#m)"/><path d="m175.8 785.5-4.7 21.3c-.6 1-7.3 3.2-11.9 0l1.7-21.3z" fill="url(#n)"/><path d="m185.7 492.5c13.8-18.2 55.6-6.8 60.3-5.4 5 8.5 11.3 20.2 17.3 34.8-14.8-2.9-21.3-.3-24.3 3.2-11.6 13.7 24.8 43.8 17.3 89.6-2.9 17.9-10.6 25.9-9.2 47.8 1 16.3 6.1 24.5 9.6 36.4 2.1 7.1 3.7 15.9 3.8 26.5-10.5 23.1-24.3 45-32.9 56.5-7.2-3-11.4-7.7-18.5-10.7 1.1-3.9 4.4-16.8 6.5-24.4 1.6-5.9 4.6-16.9 5.2-19.3 5.1-19.7 1.1-34.4 2.5-58.7 1.7-28.4 8.1-25.1 7.2-42.1-1.5-25.4-15.9-31.4-32.4-68.2-11.5-25.1-23.3-51.5-12.4-66z" fill="url(#o)" opacity=".3"/><path d="m213.3 498.2c1.2 47.4-.6 102.4-8.4 163-6.4 49.3-15.6 93.8-25.8 132.8-1.4.8-6.3 3.4-12.7 2.2-4.5-.8-7.5-3.2-8.8-4.3 1.1-8 2.2-20 1.3-34.6-1.6-25.1-7.5-30.2-10-56.1-2.2-22.7.1-41.3 1.3-49.9 3.5-26.5 8.2-27.1 8.3-42.9.1-24.5-11-33.2-17.2-56.5-4.1-15.5-6.3-38.7 4-70.6 22.7 5.5 45.3 11.2 68 16.9z" fill="url(#p)"/><path d="m237.5 309c8.3 4.7 19.9 12.4 30.6 24.7 24.8 28.4 40.2 75.2 24.2 90.5-10.9 10.4-36.6 7.3-45.5-5.1-6.5-9.1-1.8-20.3.4-36.1 2.5-17 2.4-41.8-9.7-74z" fill="url(#r)"/><path d="m141.1 492.6c9.2-121.2 38.5-170.8 35.9-185.5 3.7-2.7 18.3-6.9 51.3-2.5 2.8 1 10.4 4.1 17.8 10.9 0 0 1.7 1.6 4.1 4.4-23.2 4.4-46.8 17.6-55.3 36.3-14.7 35.8 12.6 75.8 0 107.3-6.6 16.6-17.3 31.3-29.9 45-14.5-3.6-24.5-8.9-23.9-15.9z" fill="url(#s)"/><path d="m145.4 481.1c6.6 1.7 13.3 3.3 19.9 5-3.5 11.9-6.8 29.9-2.8 50.2 5.5 28.1 19.8 34.3 21.9 59.6 1.9 22.8-8.9 27.4-14 57.8-5.3 31.2 2.7 45.8 4.4 71.9 1.1 17.8-.7 41.2-11.6 69.6-2.7-1.1-4.6-2.5-5.5-3.4 1.1-8 2.2-20 1.3-34.6-1.6-25.1-7.5-30.2-10-56.1-2.2-22.7.1-41.3 1.3-49.9 3.5-26.5 8.2-27.1 8.3-42.9.1-24.5-11-33.2-17.2-56.5-4.2-15.6-6.4-38.8 4-70.7z" fill="url(#t)" opacity=".3"/><path d="m246.1 315.4s8.8 8 13.9 19.7c7.7 17.7-.6 32.9-3.1 61.8-2.7 31.7 1.1 84.5 10.1 103.4.2.3.5 1.3.4 2.5-2.4 18.3-128.1 14.1-126.3-10.3 9.2-121.2 38.5-170.8 35.9-185.5 3.7-2.7 18.3-6.9 51.3-2.5 2.8 1.1 10.3 4.1 17.8 10.9z" fill="url(#u)"/><path d="m208.7 274.1s-8.1 25.5-10.7 28.6 10.6 11.1 20.7 7.5c9.3-3.3 0-17.5 0-17.5z" fill="url(#v)"/><path d="m240.8 288c5.5-2.3 9.8-9.4 8.9-16-.8-5.7-5.3-9-8-11-7.8-5.8-20.4-8.4-28.6-2.9-4.8 3.3-5.6 15.5-5.9 17.7-.3 2.4.9 4 1.4 6.2.8 3.1 2 8.1 3.8 16.4 1.3-1.4 3-3 5.2-4.6.8-.6 4.1-3 7.8-4.4 7.5-2.8 10.2.8 15.4-1.4z" fill="url(#w)"/><path d="m208 289.8s.3 12.2 11.7 17.9c10.2 5 24.4-16.1 20.8-24.4-1.2-2.8-5-5.8-9-6.9-2.3-.6-3.5-.2-7.3-1.2-3.5-1-4.2-1.8-5.5-1.6-1.7.3-3.9 2.2-5.7 9.7-.8-3-2.6-5-4.6-5.2-.3 0-1.3 0-2 .5-3 1.7-2.6 6.3 1.6 11.2z" fill="url(#x)"/><path d="m219 272c.3.6-2.2 1.6-3.8 4-3 4.7-1.5 13.4 3.2 16.8 2.8 2 4.6.7 9.8 3 3.2 1.4 5.5 3.3 6.9 4.5-1.5 6.2-6.1 10.7-11 11.1-5.4.4-9.3-4-11-5.9-1.1-1.2-4.7-5.2-4.6-10.6 0-5.6 3.8-6.7 2.7-11.2-.6-2.2-2-3.9-2.2-7.7 0-1 0-1.9.1-2.4 4.2-1.2 9.5-2.6 9.9-1.6z" fill="url(#y)"/><path d="m230.5 300.2s-2.8-.1-6.3-2.4c-.2-.1-.4-.2-.5-.1-.3.3 1.2 3.2 3.7 3.9 1.8.5 3.8-.3 3.8-.8 0-.3-.3-.5-.7-.6z" fill="url(#z)"/><path d="m176.5 385.6c13.7 4.8 31.9 18.4 33.1 35.7 1.9 26.6-37.8 41.3-32.5 59.9 1.4 5.1 6 9.7 35.7 20.4 12 4.3 23.2 7.9 33.3 10.8-36.3 5.4-106.5-1.6-105.1-19.8 3.5-46.4 10-82.3 16.5-109.7 6.6-.3 13 .6 19 2.7z" fill="url(#A)" opacity=".3"/><path d="m219.7 440.1c-22.3 22.7-54.2 29.8-78.7 18.5-34-15.7-39.3-60.4-31.3-88.3 13.2-46.6 71-73.8 89.1-61.4 13.1 9 13 43.7-2.6 61.1-14.1 15.6-35.7 11.7-41.6 27.6-4.4 11.9 4.1 24 4.8 25 9.5 13 30.1 17.4 49.6 8.5 3.6 2.9 7.2 6 10.7 9z" fill="url(#B)"/><path d="m263.9 401c-1.8-5.8-7.7-8.8-12.4-9.5-4.5-.6-12 .4-15 6.3-2.8 5.6-.6 13.3 5.8 17.6.9-2.2 2.5-5.2 5.4-6.1 5.2-1.6 9.8 5.2 13.7 3.4 3-1.3 3.8-7.4 2.5-11.7z" fill="url(#C)"/><path d="m242.5 436.4-17.2 3c-3.3.6-6.2-2.4-5.5-5.7l6.2-29.1c.5-2.1 2.3-3.6 4.4-3.8l20.6-1.1c3.4-.2 5.9 3.1 4.7 6.3l-9.6 27.2c-.5 1.7-1.9 2.9-3.6 3.2z" fill="#fff"/><path d="m212.5 433.9c1.4-10.1 5.7-12.8 7.2-13.5 2.6-1.3 3.9-.3 12.9-.4 8.1-.1 10-1 11 .4 1.9 2.6-2 9.5-6.5 13.5-6.3 5.6-14.1 6.1-17.4 6.1z" fill="url(#D)"/><path d="m377.3 70.1-82.1 682.8c-1.2 10.2 5.8 19.4 15.7 20.4l342.1 37.5c21 1.3 32.4-9.4 33.7-20.3l86.3-725.9c1.3-10.8-9-20.6-30-20.6l-345.2 7.3c-10.1.1-19.3 8.6-20.5 18.8z" fill="url(#E)"/><path d="m361.9 68.9-82.6 686.2c-1.2 10.3 5.8 19.5 15.8 20.5l354.7 35.3c11.1 1.1 21.3-6.9 22.6-17.9l86.7-729.6c1.3-10.9-6.9-19.6-18.1-19.4l-358.7 6c-10 .1-19.2 8.7-20.4 18.9z" fill="url(#F)"/><path d="m368.6 106.7-76.5 636.3c-1.2 9.6 5.5 18.2 14.8 19.1l333.6 32.4c10.3 1 19.8-6.5 21-16.7l80.1-674c1.2-10.1-6.4-18.3-16.8-18.2l-337 3.6c-9.4.1-18 8-19.2 17.5z" fill="#d889e1"/><path d="m547.5 68.4c-.4 3.7 2.2 6.6 5.9 6.5 3.7 0 7-3.1 7.5-6.7.4-3.7-2.2-6.6-5.9-6.5s-7.1 3.1-7.5 6.7z" fill="url(#G)"/><path d="m426.3 533.8c68.3-126.3 170.3-164.1 201-294.2 16.6-70.3 5.3-137.7-13.8-193.6l127.5-2.1c11.2-.2 19.4 8.6 18.1 19.4l-86.7 729.7c-1.3 10.9-11.5 19-22.6 17.9l-278.8-27.8c-2.1-113.1 24.8-193 55.3-249.3z" fill="#fff" opacity=".2"/><g clip-path="url(#H)" fill="#fff"><path d="m616.8 834.6c-.4-.8-29-65.4-130.6-204.5-41.4-56.7-22.3-161.4-2.1-272 20.6-112.7 41.8-229-3.6-288.8-20.9-27.6-54.1-41-101.1-41.1l1.5-11c50 .1 85.6 14.6 108.3 44.5 48.2 63.4 26.5 182.3 5.5 297.6-19.7 108.1-38.4 210.6.3 263.4 103 140.6 131.1 204.1 132.2 206.7z"/><path d="m650.3 276.7-343.9-4.6 1.3-11 337.1 3.9 125.2-199.4 9.5 5.3z"/><path d="m368.9 872.6-10.6-1 17.2-148.1 189 14.3 24.1-213.1-310.5-14.6 1.3-11.1 321.7 14.5-26.7 236.9-189.6-14.7z"/><path d="m775.9 426.8-151-4.9 17-151.1 11.3.1-15.7 139.7 139.7 4.3z"/></g><path clip-path="url(#H)" d="m522.8 269.9c-1.2 10.9-10.6 19.6-20.9 19.4s-17.6-9.1-16.3-19.9c1.2-10.8 10.6-19.5 20.8-19.4 10.3.2 17.6 9.1 16.4 19.9z" fill="#fff"/><path clip-path="url(#H)" d="m650.4 416.3c-1.2 11.1-11 19.9-21.7 19.5s-18.3-9.7-17-20.7c1.3-11.1 10.9-19.8 21.6-19.5 10.6.3 18.3 9.6 17.1 20.7z" fill="#fff"/><path clip-path="url(#H)" d="m486.1 513.6c-1.3 11-10.6 19.4-20.9 18.9s-17.5-9.7-16.3-20.6c1.3-10.9 10.6-19.4 20.8-18.9 10.3.4 17.7 9.7 16.4 20.6z" fill="#fff"/><path clip-path="url(#H)" d="m585.8 738.9c-1.3 11.2-10.9 19.7-21.6 18.8-10.6-.8-18.2-10.6-16.9-21.7 1.3-11.2 10.9-19.6 21.5-18.8 10.7.7 18.3 10.5 17 21.7z" fill="#fff"/><path d="m483.4 181.6c9.1-9.5 23.6-8.2 28.4-7.7 5.6.5 16.4 1.5 23.1 9.9 11.3 14.2 2.4 38.7-.7 47.1-7.5 20.6-21.4 32.8-29.4 38.6-1.2.1-3.6.9-4.8-.3-6.4-6.3-13.5-19.6-18.6-35-2.1-6.2-12.5-37.4 2-52.6z" fill="url(#J)"/><path d="m500.3 269.5c8-5.9 21.9-18.1 29.4-38.6 3-8.4 12-32.9.7-47.1-6.7-8.4-17.5-9.4-23.1-9.9-4.7-.4-19.2-1.8-28.4 7.7-14.5 15.2-4.1 46.4-2 52.7 6.1 18.1 17 29.5 23.4 35.2z" fill="#fcd80e"/><path d="m487 208.9c0 10.3 7.7 18.6 17.2 18.5s17.3-8.6 17.3-18.9-7.7-18.6-17.3-18.5c-9.5.1-17.2 8.6-17.2 18.9z" fill="#f4f7fa"/><path d="m613.6 332.6c9.1-9.5 23.6-8.2 28.4-7.7 5.6.5 16.4 1.5 23.1 9.9 11.3 14.2 2.4 38.7-.7 47.1-7.5 20.6-21.4 32.8-29.4 38.6-1.2.1-3.6.9-4.8-.3-6.4-6.3-13.5-19.6-18.6-35-2.2-6.2-12.6-37.4 2-52.6z" fill="url(#K)"/><path d="m630.4 420.5c8-5.9 21.9-18.1 29.4-38.6 3-8.4 12-32.9.7-47.1-6.7-8.4-17.5-9.4-23.1-9.9-4.7-.4-19.2-1.8-28.4 7.7-14.5 15.2-4.1 46.4-2 52.7 6.1 18.1 17 29.5 23.4 35.2z" fill="#fcd80e"/><path d="m617.2 359.9c0 10.3 7.7 18.6 17.2 18.5s17.3-8.6 17.3-18.9-7.7-18.6-17.3-18.5c-9.5.2-17.2 8.6-17.2 18.9z" fill="#f4f7fa"/><path d="m448.9 439.5c9.1-9.5 23.6-8.2 28.4-7.7 5.6.5 16.4 1.5 23.1 9.9 11.3 14.2 2.4 38.7-.7 47.1-7.5 20.6-21.4 32.8-29.4 38.6-1.2.1-3.6.9-4.8-.3-6.4-6.3-13.5-19.6-18.6-35-2.1-6.2-12.6-37.4 2-52.6z" fill="url(#L)"/><path d="m465.8 527.4c8-5.9 21.9-18.1 29.4-38.6 3-8.4 12-32.9.7-47.1-6.7-8.4-17.5-9.4-23.1-10-4.7-.4-19.2-1.8-28.4 7.7-14.5 15.2-4.1 46.4-2 52.7 6 18.2 17 29.6 23.4 35.3z" fill="#fcd80e"/><path d="m452.5 466.8c0 10.3 7.7 18.6 17.2 18.5s17.3-8.6 17.3-18.9-7.7-18.6-17.3-18.5c-9.5.2-17.2 8.6-17.2 18.9z" fill="#f4f7fa"/><path d="m542.6 650.9c9.1-9.5 23.6-8.2 28.4-7.7 5.6.5 16.4 1.5 23.1 9.9 11.3 14.2 2.4 38.7-.7 47.1-7.5 20.6-21.4 32.8-29.4 38.6-1.2.1-3.6.9-4.8-.3-6.4-6.3-13.5-19.6-18.6-35-2.1-6.2-12.6-37.4 2-52.6z" fill="url(#M)"/><path d="m559.5 738.8c8-5.9 21.9-18.1 29.4-38.6 3-8.4 12-32.9.7-47.1-6.7-8.4-17.5-9.4-23.1-9.9-4.7-.4-19.2-1.8-28.4 7.7-14.5 15.2-4.1 46.4-2 52.7 6 18.1 17 29.5 23.4 35.2z" fill="url(#N)"/><path d="m546.2 678.2c0 10.3 7.7 18.6 17.2 18.5s17.3-8.6 17.3-18.9-7.7-18.6-17.3-18.5c-9.5.1-17.2 8.6-17.2 18.9z" fill="#f4f7fa"/><path d="m144.5 774.5c-13.1-2.1-25.4 6.9-27.5 20s6.9 25.4 20 27.4c13.1 2.1 25.4-6.9 27.5-20 2-13.1-6.9-25.4-20-27.4z" fill="#f1f2f2"/><path d="m138.6 689.9c.3-1.9-.3-3.4-1.8-4.6s-3.4-1.7-5.7-1.5c-2.4.2-4.5 1-6.4 2.4s-3 3.1-3.3 4.9l-.5 3.4 17.2-1.2z" fill="#f1f2f2"/><path d="m55.6 690.9c-1.9 1.4-3 3.1-3.3 5l-.5 3.4 17.2-1.3.5-3.4c.3-1.9-.3-3.4-1.8-4.6s-3.4-1.7-5.8-1.5c-2.3.2-4.4 1-6.3 2.4z" fill="#f1f2f2"/><path d="m29.4 650.5-14.5 94.4c-3.5 22.4 11.8 43.5 34.2 47l53.2 8.4c3.9.6 7.5-2 8.1-5.9l.2-1c2.6-16.7 18.3-28.1 35-25.5l1.6.2c3.9.6 7.5-2 8.1-5.9l20.2-130.5-99-15.5c-22.5-3.5-43.6 11.9-47.1 34.3zm66.6 65.6 21.6-1.5c-.3 1.9.3 3.4 1.8 4.6s3.5 1.7 5.9 1.5c2.3-.2 4.4-1 6.3-2.4s3-3.1 3.3-4.9l.5-3.4-38.6 2.7 3-20.2c1-6.5 4.8-12.2 11.4-17.2s14.1-7.8 22.5-8.4c8.3-.6 15 1.3 20.2 5.5 5.1 4.2 7.2 9.5 6.2 16l-3.6 23.5c-1 6.5-4.9 12.2-11.5 17.2s-14.1 7.8-22.4 8.4c-8.4.6-15.2-1.2-20.4-5.4s-7.3-9.6-6.2-16zm-4.9-22.9-3.2 20.2-38.7 2.6-.5 3.4c-.3 1.9.3 3.4 1.8 4.6s3.4 1.7 5.7 1.5c2.4-.2 4.6-1 6.5-2.4s3-3.1 3.3-5l21.6-1.5c-1 6.4-4.8 12.2-11.4 17.2s-14.1 7.8-22.5 8.4c-8.3.6-15.1-1.2-20.3-5.5-5.2-4.2-7.3-9.5-6.3-16l3.7-23.5c1-6.4 4.7-12.2 11.3-17.2s14-7.8 22.3-8.4c8.4-.6 15.1 1.2 20.3 5.4 5.3 4.4 7.4 9.7 6.4 16.2z" fill="#f1f2f2"/><path d="m137.2 579.8h75.6v14.6h-75.6z" fill="#f1f2f2" transform="matrix(.155 -.9879 .9879 .155 -432.1804 668.9756)"/><path d="m192.9 509.6-11.2-1.8c-2.8-.4-5.5 1.5-5.9 4.3l-3.9 24.6c-.4 2.8 1.5 5.5 4.3 5.9l11.2 1.8c2.8.4 5.5-1.5 5.9-4.3l3.9-24.6c.4-2.8-1.5-5.4-4.3-5.9z" fill="#f1f2f2"/><image height="458" opacity=".36" overflow="visible" transform="translate(333.5625 363.4893)" width="161" xlink:href="37E105B5BB99B788.png"/><path d="m347.5 811.2.2-31.8-11-.1.1-20.8 11 .1.1-17.8h6.7l.1-15.3h6.1l7.4-9.2v-6.1l4.3-5.5-2.7-6.8 4.3-5.8-3.3-17.5 5.3-17.7-2.4-4.9 4-12.5.1-20.8s-7-12.3-4.2-18.7 4.3-10.4 4.3-10.4-11-12.9-6.9-21.8c4-8.9 7.1-14.4 7.1-14.4l-7.3-17.2 2.8-3.7-2.4-4.9 4.3-3.3s-8.9-2.8-5.4-14.7c-10.1-1.6-10.9-16.6 2-32.1-2.4-4-.6-8.9-.6-8.9s-3.7-.6-2-35.2c-2.7-2.8-4-2.8-.9-6.1-.6-1.5-6.7-6.5-2.4-10.1-3.1 0-2.7-4.2-.8-5-2-2.2-1.5-3.5.9-5.5-1.9-1.3-3-2.9-1.2-5.1-1.7 0-8-2.3-4.7-5.4.1-1.2.2-3.6.2-3.6l-3.3-3.9 4.3 1 .2-3 2.8 2 1-3.3 2.5 3.1 1-1s-6.2-4.5-.7-10.9c-1.3-3-1.9-4.9-1.9-4.9l4.6 2.2 5.1-6.7.7 6.3 5.3-6.3-2 8.6 3.5 1.8-6.4 9.3 3.4-1 .2 3.3 3.9-2.2-.8 3.1h4.1l-2.6 3.4-.1 2.8s6.1 4.5-6 7.1c.2 1.5 1.6 3.1-.8 4.4 1.2.9 7.3 6.1 1.7 21.5.3 11.5 6 33.4 6 33.4l.9 4.3 12.2 1.3 1.7-2.2-10.4-14.4 14.5 11.7 5.8-1.4 2.4-17.9 2.7 18.2 4.7 1.8 16.2-12.5-12.2 15.3 1.5 1.7 19.4-2.6-17.6 6.9.5 2.2 19.1 3.1-19.7 1.7-.9 2.6s3.8 2.8-.2 5.7c0 0 1.1 3.7 2.6 6.9s.7 4.3-2 6.7c.8 1.6 1.5 10 1.5 10s11.8 5.1 12.8 8.1c1 3.1 2.6 21.3 8.3 25.5 2.5-.2 4.1.7 4.3 2.5 1.3-3.2 5.9-11.5 7.8-10.9s19.7 9.3 19.7 9.3 3.7 1.1 1.9 4.2-4.1 6.5-4.1 6.5 4.8 4.6 2.8 7.8-9.3 11.7-9.3 11.7-4 4-9.5 3.7c-.2 4.3 1.2 20.5-7.7 24.9 1.2 9.7 4.3 39.3 4.3 39.3s-.3 5.1-6.6 10c0 3.6 2.2 30.2 2.2 30.2s-3.9 5.3-6.6 5.7c.6 6.2 3.1 37.2 3.1 37.2l9.6.2-.1 13.8h6.4l-.1 17.5 10.9.1-.1 22-11.1-.1-.2 31.2z" fill="#f1f2f2"/><image height="467" opacity=".36" overflow="visible" transform="translate(426.5625 358.4893)" width="220" xlink:href="37E105B5BB99B789.png"/><path d="m591.1 738.4c-.9-13 .1-22.9.1-22.9l-10-.1s-13.3-34-19.6-66.4h4l1.6-11.5h-5.5v-5.5h-3.5s-10.4-92.5-14.8-204.1l5-5.5-1.9-22.5-9.2-7 .2-31.5h-.7-.7-.7l-.2 31.5-9.2 7.1-2.1 22.4 5 5.5c-5.6 111.5-17.1 203.9-17.1 203.9h-3.5v5.5h-5.5l1.4 11.5h4c-6.7 32.4-20.3 66.2-20.3 66.2l-10-.1s.9 10-.1 22.9c-1.1 13-47.3 76.8-47.3 76.8l33.4.2s1.5 0 13.2-5.2c13.4-45.8 47.2-49.2 56.1-49.3h1.1 1.1c9 .2 42.7 4.1 55.6 50 11.7 5.3 13.2 5.3 13.2 5.3l33.4.2c-.1 0-45.6-64.4-46.5-77.4zm-74.8-24.3 8.7-45.3 20.9.1 6.7 45.4z" fill="#f1f2f2"/><image height="268" opacity=".36" overflow="visible" transform="translate(596.5625 556.4893)" width="352" xlink:href="37E105B5BB99B78F.png"/><path d="m803.5 705.6-67-.3-.5 104.8 67 .3zm-12 103-43.1-.2.3-49.7c.1-11.9 9.8-21.5 21.7-21.4s21.5 9.8 21.4 21.7z" fill="#f1f2f2"/><path d="m934.7 809.4-1.8-41.5h2.4v-5.8h-2.6l-2-44.7h4v-4.8h-4.3l-1.8-40.4h3.4v-5.2h-3.7-.3v-9.1h2v-2.4h-1.2c-.3-4.4-4-7.9-8.4-7.9-4.5 0-8.2 3.4-8.5 7.8h-.8v2.4h1.6v9.1h-4.4v5.2h4.2l-2.4 40.4h-4v4.8h3.8l-2.7 44.6h-2.9v5.8h2.6l-2.5 41.5h-3.6l.3-64.5-38.5-.2.1-17.6h-9.4l.1-19.6h4.3v-5.1h-2.6c-.6-9.5-8.6-17.1-18.2-17.1-9.7-.1-17.7 7.4-18.5 16.9h-1.8v5.1h3.5l-.1 19.6h-7.8l.1-28.3h-7.6l.1-19.3h2.3v-7.5s22-8.7 18.4-30.9c-1.2-7.7-5.4-14.5-10.9-20-13.5-13.4-31.9-25.6-40.3-30.8l-2.7-29.8h-3.2l-2 29.2c-7.9 4.8-27.4 17.1-41.5 30.9-5.6 5.4-9.8 12.3-11.1 19.9-3.8 22.2 18.1 31.1 18.1 31.1v7.5h3.5l-.1 19.3h-6.6l-.1 28.3h-7.8l.1-19.6h3.5v-5.1h-1.8c-.6-9.5-8.6-17.1-18.3-17.1-9.6-.1-17.6 7.4-18.4 16.9h-2.6v5.1h4.3l-.1 19.6h-9.4l-.1 17.6-38.5-.2-.3 64.5h-3.6l-2.1-41.5h2.6v-5.8h-2.9l-2.2-44.7h3.8v-4.8h-4l-2-40.4h4.2v-5.2h-4.4v-9.1h1.6v-2.4h-.8c-.3-4.4-4-7.9-8.5-7.9s-8.2 3.4-8.5 7.8h-1.2v2.4h2v9.1h-.3-3.7v5.2h3.4l-2.2 40.4h-4.3v4.8h4l-2.5 44.6h-2.6v5.8h2.4l-2.3 41.5h-4.6v5.9h4.3l31.1.2h3.3l38.5.2 50.4.3 83.6.4 50.4.3 38.5.2h3.3l31.1.2h4.3v-5.9zm-268-29-17.1-.1.1-16.2c0-4.7 3.9-8.5 8.6-8.5s8.5 3.9 8.5 8.6zm46.2 27.8-21.5-.1.1-18.5c0-5.9 4.9-10.7 10.8-10.7s10.7 4.9 10.7 10.8zm.2-35.2-21.5-.1.1-18.5c0-5.9 4.9-10.7 10.8-10.7s10.7 4.9 10.7 10.8zm92.3 39.9-71.9-.4.6-109.8 71.9.4zm43.1-4-21.5-.1.1-18.5c0-5.9 4.9-10.7 10.8-10.7s10.7 4.9 10.7 10.8zm.2-35.2-21.5-.1.1-18.5c0-5.9 4.9-10.7 10.8-10.7s10.7 4.9 10.7 10.8zm41.9 7.9-17.1-.1.1-16.2c0-4.7 3.9-8.5 8.6-8.5s8.5 3.9 8.5 8.6z" fill="#f1f2f2"/></svg>