<svg enable-background="new 0 0 150 150" viewBox="0 0 150 150" xmlns="http://www.w3.org/2000/svg"><g fill="none" stroke="#434343" stroke-linecap="round" stroke-linejoin="round" stroke-width="5.3266"><circle cx="75" cy="75" r="61.3"/><path d="m40.4 107v-10.7c0-9.4 18.6-16 34.6-16s33.7 6.7 34.6 16.1v10.6"/><path d="m78.1 80.3h-6.2c-5.9 0-10.6-3-13.3-7.5-1.4-2.2-2.2-4.7-2.2-7.5v-18c0-8.4 6.7-15 15.5-15h6.2c8.8 0 15.5 6.6 15.5 15v18c0 2.8-.8 5.2-2.2 7.5-2.7 4.5-7.4 7.5-13.3 7.5z"/><path d="m56.8 83 18.2 16 18.2-15.9"/><path d="m56.4 48.4s8-5.3 16 0 21.2 2.6 21.2 2.6"/></g></svg>