<svg enable-background="new 0 0 898.9 610.4" viewBox="0 0 898.9 610.4" xmlns="http://www.w3.org/2000/svg"><ellipse cx="434.1" cy="574" fill="#c4cfd1" opacity=".3" rx="242" ry="14.6"/><g fill="#f8d511"><path d="m580.3 558.5c5.8 11.6 19.9 16.3 31.4 10.5 11.6-5.8 16.3-19.9 10.5-31.5s-19.9-16.3-31.4-10.5c-11.6 5.8-16.3 19.9-10.5 31.5"/><path d="m587.9 521.3-1.4.7c-3.4 1.7-7.5.3-9.2-3.1l-57.5-115.3 87.4-43.8c19.8-9.9 43.9-1.9 53.8 17.9l41.5 83.5c9.9 19.8 1.9 43.9-17.9 53.8l-47 23.5c-3.4 1.7-7.5.3-9.2-3.1l-.4-.9c-7.4-14.7-25.4-20.6-40.1-13.2"/><path d="m494.1 326.4-12.7 6.4 33 65.9 12.7-6.4z"/><path d="m474.5 290.9-9.9 5c-2.5 1.2-3.5 4.3-2.3 6.8l10.9 21.8c1.3 2.5 4.3 3.5 6.8 2.2l9.9-4.9c2.5-1.2 3.5-4.3 2.2-6.8l-10.9-21.8c-1.2-2.6-4.2-3.6-6.7-2.3"/></g><path d="m613.6 436.3c-2.8-5.7-2.5-11.3 1.1-16.7 3.5-5.4 9.3-9.1 17.3-11.1 7.9-1.9 15.6-1.5 23.2 1.2s12.8 6.9 15.6 12.6l10.5 20.8c2.8 5.7 2.4 11.3-1.1 16.7-3.6 5.5-9.3 9.1-17.2 11.1-8 2-15.8 1.6-23.4-1.1s-12.9-6.9-15.7-12.6l20.5-5c.8 1.7 2.4 2.9 4.6 3.6 2.2.8 4.4.8 6.7.3 2.2-.5 3.8-1.6 4.9-3.1 1-1.5 1.1-3.1.3-4.8l-1.5-3-36.7 9zm22-2.1 16.3-4-1.4-3c-.8-1.7-2.4-2.9-4.5-3.6-2.2-.8-4.4-.9-6.5-.3-2.3.6-3.9 1.6-5 3.1-1 1.5-1.1 3.2-.3 4.8z" fill="#fff"/><path d="m589.7 425.7c7.6 2.7 12.9 6.9 15.7 12.6l8.8 17.8-36.7 9 1.5 3c.8 1.7 2.3 2.9 4.5 3.6s4.4.9 6.6.3c2.3-.6 3.9-1.6 5-3.2 1-1.5 1.2-3.2.3-4.8l20.5-5c2.9 5.7 2.5 11.3-1 16.7-3.6 5.5-9.3 9.1-17.3 11.1-7.9 1.9-15.7 1.6-23.3-1.1s-12.9-6.9-15.8-12.6l-10.3-20.8c-2.9-5.7-2.5-11.3 1-16.7s9.2-9.1 17.1-11c8-2 15.7-1.6 23.4 1.1m-4.8 17.6c-.8-1.7-2.3-2.9-4.5-3.6-2.2-.8-4.4-.9-6.7-.3-2.2.5-3.8 1.6-4.8 3.1s-1.2 3.2-.3 4.8l1.5 3 16.3-4z" fill="#fff"/><path d="m455 283.8c1.2 2.1.6 9.4 1.9 14.2 1.2 4.8 8.9 20.4 9.8 21.7s5.6-3.1.9-13c0 0-.5-1.1 1-1 9.3.3 2.8 18.9 9.7 18.5 7-.4 9.9-8.2 10.5-14.2.3-2.7-3.4-13.3-8-18.9s-8.9-10-10.9-14.2z" fill="#f09c56"/><path d="m406.5 180.3c5.2 18.8 42.8 116.1 46 116.7s21.4-3.9 27.2-11.7c0 0-27.5-65.9-29.8-75.9-4.5-19.5-33.1-86.9-33.1-86.9z" fill="#b4d1d7"/><path d="m373 550.8c3 2.7 28.5-.5 29.7 2.6 1.3 3.1 3.6 11.9 1.8 16.6 0 0 1.2 1.1.4 3.5s-7.2 3-15.6 2.9c-8.3-.1-33.4 1.6-40.3-.3s-13.2-4.4-14.1-7.4-2.8-9.2 3.3-8.4c6.2.9 13.5.8 16.7-.8s10-4.4 12.8-6.7c3-2.3 4.1-3 5.3-2z" fill="#11101c"/><path d="m485.6 532.2c4.2-.4 19.8-22.7 23.2-21.5s11.9 5.6 14.3 10.3c0 0 1.8-.2 3.1 2.2 1.3 2.3-2.8 7.8-8.7 14.3-6 6.4-22.4 27.3-28.9 31.4-6.4 4.1-12.8 7.2-15.8 5.8s-9.3-4.3-4.2-8.5 10.2-10 11.2-13.7 3.7-11 3.8-14.9.3-5.2 2-5.4z" fill="#11101c"/><path d="m417.9 299.9c.2 16.9-7.1 41.3-7.7 45.4-.6 4-1.9 40.2-.4 70.5 1.6 30.3-.6 111.5-3 140 0 0-14.2 5.1-41.9-2.5 0 0 7.2-84.1 2.1-109.6s-3.4-138.6-4.2-163.5z" fill="#1b1c2c"/><path d="m433.7 275.6c14.3 26.6-3.2 60.8-3.2 64.8 0 4.1 3.4 34 9.3 63.8s56.2 77.8 72.6 104.6c0 0-8.6 27.7-36.3 30.3 0 0-67.3-87-76.1-111.5s-30.6-117.7-35-142.2z" fill="#25273b"/><path d="m339.3 73.7c1.8-2 4.9-5.9 3.3-9.3-1-2.1-1.4-1.5.3-7.4 3-10.8 13.6-14.6 15.5-16.5l1.1 2.1c2.8-5 42.2 25.6 34.7 39.5-5.4 9.9-.4 18.6.6 21.2-2.3.8-22.1 20.9-22.1 20.9s-5.4-4.6-6.8-8.9c-.4-1.2-1.6-1.4-2.5-3-.9-1.4-.6-5-1.5-6.4-.2-.3-.4-.5-.6-.8-2.1-.6-4.2-.6-5.9-.6-3.3.1-9.7 1.3-12.1-.5-2.4-1.9-.9-6.9-1-8.2s-1.7-1.2-3.1-2.6.8-3.4.8-3.4c-.6-.6-2.5-2.6-1.4-3.5 1.4-1.2 3.4-2.7-1.1-5.2-3.9-2.3-.9-4.2 1.8-7.4z" fill="#fdb171"/><path d="m395.8 48.6c-4.5-13.9-49.3-14-51.1-21.2 0 0-.2 12 4.8 19.3 1.6-2.8 21.6 15.8 24.9 25.3 1.7 4.7.7-11.9 10.1-8.7 7 2.4 3.3 13.5 1.2 19-1.6 4.1 5.6 11.4 5.6 11.4l-.2 3.7s5.5-13.3 6.6-16.6c3-8.9 2.6-18.3-1.9-32.2z" fill="#622818"/><path d="m394.3 91.5c2.4 3.7 30.8 31.9 31.5 61.7.6 23.2 9.2 99.7 9.2 110 0 12.5-1.3 13.6-1.3 13.6s-4 12.3-40.2 12.3-33.3-7.3-33.3-7.3-3.5-34.1-6.1-54.9c-7.8-63.1.1-72.1 9.1-99.8 7.2-22.2 31.1-35.6 31.1-35.6z" fill="#d8e9ed"/><path d="m382.7 84.9s2.6 13.5-20.2 23c-.1-.8-.3-1.5-.6-2-.2-.3-.4-.5-.6-.8-2.1-.6-4.2-.6-5.9-.6.1 0 25.7-6.3 27.3-19.6z" fill="#f09c56"/><path d="m359.4 271c11.1-7.9 31-31.4 36.3-45 9.5-24.2 11.2-82.1 11.2-82.1l-50.1 109c.9 6.7 1.8 13.1 2.6 18.1z" fill="#b4d1d7"/><path d="m302.5 248.9c-.8 1.9 2.8 6.4 5.7 17s5.7 13.6 7.4 15c0 0 6.5-3.6 3.4-13.7-3.2-10.2-16.5-18.3-16.5-18.3z" fill="#b4d1d7"/><path d="m313.2 255.1c-1.9 1.5-9.3 2.1-13.9 4.1s-18.9 12.1-20.1 13.2 3.9 5.1 13.1-1.2c0 0 1.5-.7 1.2.9-.3 1.5-12.8 14.7-17.9 19.7-5.1 4.9 10.2 5.3 12.7 4.3 2.6-1 16.8-8.6 21.7-14.1s8.6-10.4 12.4-13.1z" fill="#fdb171"/><path d="m379.7 110.2c-6.1 5.2-12.3 26.2-14.5 48.6-1.8 19-10.7 52-10.7 52l-52 38.1s19.6 18.8 13.1 32c0 0 58.9-39.5 64.9-44.4 7.8-6.5 34.5-89.1 34.5-89.1z" fill="#d8e9ed"/><path d="m346.2 44.1-.6 6.3 29.4 4.5s14.8 6.4 22.9 15.9l1.3-7.4-25.9-22.7z" fill="#d7b469"/><path d="m374.9 54.9c-2.8-1.9-11.4-7.9-29.1-8.2 0 0-16.6 12.4-15.1 15.1 1.6 2.6 44.2-6.9 44.2-6.9z" fill="#1b1c2c"/><path d="m346.2 44.1c-1.5-6.8-6-22.6 1.6-22.3 7.5.4 15.1.8 39.1 16.6 24.1 15.8 31.6 30.5 28.2 31.6s-13.2 1.5-17.3.8c0 0-7.5-11.5-22-19.1-14.2-7.5-29.6-7.6-29.6-7.6z" fill="#1b1c2c"/><path d="m374.9 116.2-6.7 20.5 24.5 2.8 5.4-20.9z" fill="#25273b"/><path d="m396.5 124.9-23.2-3 .5-1.8 23.2 2.9z" fill="#d7b469"/><path d="m395.2 129.4-23.2-3 .5-1.8 23.1 2.9z" fill="#d7b469"/><path d="m393.8 133.9-23.1-3 .4-1.8 23.2 2.9z" fill="#d7b469"/><path d="m358.5 205.8c1.1-4.3-.7-35.6 1.3-59.6 1.3-15 11.7-34.6 11.7-34.6s-15.1 16.7-19 31.1c-4.3 16-3 39.5.1 70.1 3.1-2.7 5.5-5.2 5.9-7z" fill="#b4d1d7"/><path d="m342.7 65.2c-.1.1-.2.3-.3.5-.2 1.3-.9 8 3.6 11.2 5 3.6 7.9-.7 7.9-5.7s-2.1-6.4-5.7-6.4c-3.1-.1-4.8-.2-5.5.4z" fill="#231f20"/><path d="m353.9 69.7 22.9-2-.2.5-22.7 2h-.5l.1-.4.3-.1z" fill="#231f20"/></svg>