<svg enable-background="new 0 0 70 70" viewBox="0 0 70 70" xmlns="http://www.w3.org/2000/svg"><path d="m41.4 7.2h-13.4c-4.4 0-8 3.6-8 8v4.1c-7.5.7-13.3 7-13.3 14.6v14.3c0 8 6.5 14.6 14.6 14.6h27.4c2.6 0 5-.7 7.1-1.8 0 0 .1 0 .1-.1 4.4-2.5 7.4-7.3 7.4-12.7v-14.3c0-7.8-6.2-14.2-13.9-14.6v-4.1c0-4.4-3.6-8-8-8zm18.7 41c0 3.2-1.3 6.1-3.5 8.2v-30.7c2.1 2.1 3.5 5 3.5 8.2zm-50.2-14.3c0-3.3 1.4-6.3 3.7-8.3v30.9c-2.3-2.1-3.7-5-3.7-8.3zm31.5-23.4c2.6 0 4.7 2.1 4.7 4.7v4.1h-3.5v-2.3c0-2.6-2.1-4.7-4.7-4.7h-6.5c-2.6 0-4.7 2.1-4.7 4.7v2.3h-3.5v-4.1c0-2.6 2.1-4.7 4.7-4.7zm11.9 13v.2 34.8c-1.3.6-2.7.9-4.1 1v-36.9c1.5 0 2.9.4 4.1.9zm-29.1 36v-37h21.8v37zm-7.3-.9v-34.8c0-.1 0-.2 0-.3 1.3-.5 2.7-.9 4.1-.9v37c-1.5-.1-2.9-.4-4.1-1zm22.5-39.3h-9.5v-2.3c0-.8.7-1.5 1.5-1.5h6.5c.8 0 1.5.7 1.5 1.5z" fill="#434343"/></svg>