<svg enable-background="new 0 0 93.2 138.3" viewBox="0 0 93.2 138.3" xmlns="http://www.w3.org/2000/svg"><g fill="none" stroke="#434343" stroke-linecap="round" stroke-linejoin="round" stroke-width="4"><path d="m6.4 61.8v-13s4-10 17-11c0 0 8.6 15 18.8 0 0 0 7.2-1 14.2 13 4.5 9.1 9.1 16 11.7 19.8 1.8 2.7 2 6.3 0 8.8s-5.3 3.4-10.7-4.6c-10-15-9-15-9-15l2 37h-35.6v-38"/><path d="m66.2 67.8-8.8 7"/><path d="m33.4 85.8v45"/><path d="m14.8 74.8h34.5"/><path d="m6.4 67.3v16.4c0 3.3 2.7 5.9 5.9 5.9h2.4"/><path d="m6.4 80.8h8.4"/><path d="m55.4 108.9v-13.1c0-2.8 2.2-5 5-5h19c2.8 0 5 2.2 5 5v30c0 2.8-2.2 5-5 5h-19c-2.8 0-5-2.2-5-5v-9.6"/><path d="m66.2 100v22.8"/><path d="m75.2 100v22.8"/><path d="m64.4 82.8v8h12v-11c0-3.3-2.7-6-6-6"/><path d="m45.4 131.8h-26.6c-2.8 0-5.1-2.1-5.1-4.6 0-2.6 2.3-4.6 5.1-4.6h26.5c2.8 0 5.1 2.1 5.1 4.6 0 2.5-2.2 4.6-5 4.6z"/><path d="m20.3 122.6-2.3-25.8"/><path d="m45 122.6 2.3-25.8"/><path d="m37.3 3.8h-9.3c-4.6 0-8.3 3.7-8.3 8.3v11.7c0 6.6 5.3 11.9 11.9 11.9h2.1c6.6 0 11.9-5.3 11.9-11.9v-11.7c.1-4.6-3.7-8.3-8.3-8.3z"/><path d="m14.2 16.8h37"/></g></svg>