<svg enable-background="new 0 0 70 70" viewBox="0 0 70 70" xmlns="http://www.w3.org/2000/svg"><g fill="#fcd80e"><path d="m37.9 15.5h-6.5c-.8 0-1.5.7-1.5 1.5v2.3h9.5v-2.3c0-.8-.7-1.5-1.5-1.5z"/><path d="m9.9 48.2c0 3.3 1.4 6.3 3.7 8.3v-30.9c-2.3 2.1-3.7 5-3.7 8.3z"/><path d="m24.2 22.5h21.8v37h-21.8z"/><path d="m16.9 23.8v34.8c1.3.5 2.7.8 4.1.9v-37c-1.5 0-2.9.4-4.1.9-.1.2 0 .3 0 .4z"/><path d="m41.4 10.5h-13.4c-2.6 0-4.7 2.1-4.7 4.7v4.1h3.5v-2.3c0-2.6 2.1-4.7 4.7-4.7h6.5c2.6 0 4.7 2.1 4.7 4.7v2.3h3.5v-4.1c-.1-2.6-2.2-4.7-4.8-4.7z"/><path d="m49.2 59.5c1.5-.1 2.8-.4 4.1-1v-34.7c0-.1 0-.2 0-.2-1.3-.6-2.7-.9-4.1-1z"/><path d="m56.6 56.3c2.1-2.1 3.5-5 3.5-8.2v-14.2c0-3.2-1.3-6.1-3.5-8.2z"/></g></svg>