<svg enable-background="new 0 0 70 70" viewBox="0 0 70 70" xmlns="http://www.w3.org/2000/svg"><path d="m19.6 36.1-.1-1.8h1.5v1.8c-.5 0-1 0-1.4 0z" fill="#231f20"/><path d="m47.8 59.6-1-1.5c.4-.3.7-.5 1-.8l1.2 1.3c-.3.3-.7.6-1.2 1z" fill="#231f20"/><g fill="none" stroke="#434343" stroke-linecap="round" stroke-linejoin="round" stroke-width="4"><path d="m28.9 17.8c0-4.9-4-8.9-8.9-9-4.9 0-8.9 4-8.9 9 0 1.6.5 3.4 1 4.6 1.4 3.2 6.6 11.3 7.9 12.8 1.2-1.4 6.5-9.6 7.9-12.8.5-1.1 1-2.9 1-4.6z"/><path d="m59 37.5c0-5.9-4.7-10.6-10.6-10.6-5.8 0-10.6 4.8-10.6 10.6 0 1.9.5 4 1.2 5.4 1.7 3.8 7.8 13.4 9.3 15.2 1.4-1.7 7.7-11.4 9.4-15.2.7-1.3 1.3-3.5 1.3-5.4z"/><path d="m24.5 36.9s1.1-.1 2.5.2"/><path d="m31.1 40.1c1.2 2.4 1.5 6.4-1.1 13.4-2.6 7.1 3.9 7.9 8.9 7.7" stroke-dasharray="5.2224 5.2224"/><path d="m41.5 60.9c1.5-.2 2.5-.4 2.5-.4"/></g></svg>