<svg enable-background="new 0 0 898.9 610.4" viewBox="0 0 898.9 610.4" xmlns="http://www.w3.org/2000/svg"><ellipse cx="429.1" cy="520.4" fill="#ebf1ff" rx="176.2" ry="17.2"/><g fill="#fcd80e"><path d="m383.7 501.7c-7.9-3.4-17 .3-20.4 8.2s.3 17 8.2 20.4 17-.3 20.4-8.2-.3-17.1-8.2-20.4z"/><path d="m393.4 447.6c.5-1.1.3-2.2-.4-3.2-.8-1-1.9-1.6-3.3-1.9-1.5-.3-3-.1-4.4.5s-2.4 1.5-2.8 2.6l-.9 2 11 2z"/><path d="m341.1 435.1c-1.4.6-2.4 1.5-2.9 2.6l-.8 2 11 2 .8-2c.5-1.1.4-2.2-.4-3.2s-1.9-1.6-3.4-1.9c-1.5-.2-2.9-.1-4.3.5z"/><path d="m330.9 405.6-24 57.1c-5.8 13.5.6 29.2 14.1 34.9l32.1 13.6c2.3 1 5-.1 6-2.4l.3-.6c4.3-10.1 15.9-14.8 26-10.5l1 .4c2.3 1 5-.1 6-2.4l33.3-78.8-59.7-25.4c-13.7-5.7-29.3.6-35.1 14.1zm31.5 51.7 13.8 2.5c-.5 1.1-.3 2.2.4 3.2.8 1 1.9 1.6 3.4 1.9s2.9.1 4.4-.5c1.4-.6 2.4-1.5 2.8-2.6l.9-2-24.7-4.4 5.1-12.2c1.7-3.9 5-6.9 9.9-9s10.1-2.7 15.4-1.7c5.3.9 9.2 3.2 11.8 6.6 2.6 3.5 3 7.1 1.4 11l-6 14.2c-1.7 3.9-5 6.9-9.9 9s-10.1 2.7-15.4 1.7c-5.4-1-9.4-3.2-12-6.6-2.5-3.5-2.9-7.2-1.3-11.1zm.6-15.1-5.2 12.2-24.7-4.4-.8 2c-.5 1.1-.4 2.2.4 3.2s1.9 1.6 3.4 1.9 3 .1 4.4-.5 2.4-1.5 2.9-2.6l13.8 2.5c-1.6 3.9-4.9 6.9-9.9 9-4.9 2.1-10.1 2.7-15.5 1.7-5.3-1-9.3-3.2-11.9-6.6-2.6-3.5-3.1-7.1-1.4-11l6.1-14.2c1.6-3.9 4.9-6.9 9.8-9s10-2.7 15.3-1.8c5.4 1 9.3 3.2 11.9 6.6s3 7.1 1.4 11z"/><path d="m407.9 384h49v9.5h-49z" transform="matrix(.3908 -.9205 .9205 .3908 -94.3817 634.9022)"/><path d="m455.9 342.9-6.8-2.9c-1.7-.7-3.7.1-4.4 1.8l-6.3 14.9c-.7 1.7.1 3.7 1.8 4.4l6.8 2.9c1.7.7 3.7-.1 4.4-1.8l6.3-14.9c.7-1.8-.1-3.7-1.8-4.4z"/></g><g fill="#c4cfd1" opacity=".3"><path d="m100.1 372.8c-.1 0-.2 0-.3 0-3.7-.6-7.2-1.5-10.3-2.7-1.6-.6-2.3-2.4-1.7-4s2.4-2.3 4-1.7c2.7 1.1 5.7 1.9 8.9 2.4 1.7.2 2.8 1.8 2.6 3.5-.2 1.4-1.6 2.6-3.2 2.5z"/><path d="m131.5 370.6c-1.3-.1-2.5-1-2.8-2.4-.4-1.7.7-3.3 2.3-3.7 5.8-1.3 12-3.1 18.6-5.3 1.6-.5 3.3.3 3.9 1.9.5 1.6-.3 3.3-1.9 3.9-6.7 2.3-13.2 4.1-19.2 5.4-.3.2-.6.2-.9.2zm470 23.8c-.1 0-.1 0 0 0-6.6-.5-13.2-1.2-19.7-2-1.7-.2-2.9-1.7-2.7-3.4s1.7-2.9 3.4-2.7c6.4.8 12.9 1.4 19.4 1.9 1.7.1 3 1.6 2.8 3.3-.1 1.7-1.6 3-3.2 2.9zm31.6 1.5c-1.6-.1-2.9-1.5-2.9-3.1 0-1.7 1.4-3 3.1-3 6.5.1 13 .1 19.5 0 1.7 0 3.1 1.3 3.1 3s-1.3 3.1-3 3.1c-6.6.1-13.2.2-19.7 0zm-82.4-8.2c-.1 0-.2 0-.4 0-6.2-1.1-12.7-2.4-19.3-3.8-1.7-.3-2.7-2-2.4-3.6.3-1.7 2-2.7 3.6-2.4 6.6 1.4 13 2.6 19.2 3.7 1.7.3 2.8 1.9 2.5 3.6-.3 1.5-1.7 2.6-3.2 2.5zm133.6 6.5c-1.5-.1-2.8-1.3-2.9-2.8-.1-1.7 1.1-3.2 2.8-3.3 6.4-.5 13-1.2 19.4-2 1.7-.2 3.2 1 3.4 2.7s-1 3.2-2.7 3.4c-6.5.8-13.1 1.5-19.6 2-.1 0-.2 0-.4 0zm-183.8-17.2c-.2 0-.4 0-.6-.1-5.9-1.4-12.1-3-19.1-4.7-1.6-.4-2.6-2.1-2.2-3.7s2.1-2.6 3.7-2.2c6.9 1.8 13.2 3.3 19 4.7 1.6.4 2.7 2.1 2.3 3.7-.3 1.4-1.6 2.4-3.1 2.3zm234.6 10.4c-1.4-.1-2.6-1.1-2.8-2.5-.3-1.7.8-3.3 2.5-3.6 6.4-1.2 12.8-2.5 19.1-3.9 1.7-.4 3.3.7 3.7 2.3.4 1.7-.7 3.3-2.3 3.7-6.4 1.4-12.9 2.8-19.3 4-.4 0-.6 0-.9 0zm-555.3-33.8c-1.2-.1-2.2-.8-2.7-1.9-.6-1.6.1-3.4 1.7-4 6.1-2.4 12.4-4.6 18.8-6.5 1.6-.5 3.3.4 3.8 2.1.5 1.6-.4 3.3-2.1 3.8-6.2 1.9-12.3 4-18.3 6.4-.3.1-.7.2-1.2.1zm271 10.8c-.2 0-.4 0-.6-.1-6.3-1.6-12.6-3.3-19-4.9-1.6-.4-2.6-2.1-2.2-3.7s2.1-2.6 3.7-2.2c6.3 1.6 12.7 3.2 19 4.9 1.6.4 2.6 2.1 2.2 3.7-.3 1.4-1.7 2.4-3.1 2.3zm-49.7-12.4c-.2 0-.4 0-.5-.1-6.7-1.6-13-3-19.1-4.2-1.7-.3-2.7-2-2.4-3.6.3-1.7 2-2.7 3.6-2.4 6.1 1.3 12.4 2.7 19.2 4.3 1.7.4 2.7 2 2.3 3.7-.3 1.4-1.7 2.3-3.1 2.3zm-171.9-12c-1.4-.1-2.6-1.1-2.9-2.6-.3-1.7.8-3.3 2.5-3.5 6.4-1.1 13-2 19.6-2.6 1.7-.2 3.2 1.1 3.4 2.8s-1.1 3.2-2.8 3.4c-6.5.6-13 1.5-19.2 2.6-.2-.1-.4-.1-.6-.1zm121.6 1.9c-.1 0-.2 0-.3 0-6.5-1-13-2-19.3-2.7-1.7-.2-2.9-1.7-2.7-3.4s1.7-2.9 3.4-2.7c6.4.8 12.9 1.7 19.5 2.8 1.7.3 2.8 1.8 2.5 3.5-.2 1.5-1.6 2.6-3.1 2.5zm-70.6-6c-1.6-.1-2.9-1.4-2.9-3.1s1.4-3.1 3.1-3.1c6.4 0 13.1.2 19.8.5 1.7.1 3 1.5 2.9 3.2s-1.5 3-3.2 2.9c-6.6-.3-13.1-.5-19.4-.5-.2.1-.2.1-.3.1z"/><path d="m785 375.4c-1.3-.1-2.4-.9-2.8-2.2-.5-1.6.5-3.3 2.1-3.8 3.2-.9 6.3-1.9 9.5-2.9 1.6-.5 3.3.4 3.9 2 .5 1.6-.4 3.3-2 3.9-3.2 1-6.4 2-9.6 2.9-.4.1-.7.1-1.1.1z"/></g><path d="m859.1 322.6c-18.6-1-34.5 13.2-35.5 31.8s29.9 68.4 29.9 68.4 36.4-46 37.4-64.6-13.2-34.5-31.8-35.6zm-2.7 48.4c-9.2-.5-16.2-8.4-15.7-17.6s8.4-16.2 17.6-15.7 16.2 8.4 15.7 17.6c-.6 9.2-8.4 16.2-17.6 15.7z" fill="#fad91a"/><path d="m43.5 320.2c-18.5-1-34.5 13.2-35.5 31.8s29.9 68.4 29.9 68.4 36.4-46 37.4-64.6c1.1-18.6-13.2-34.5-31.8-35.6zm-2.7 48.4c-9.2-.5-16.2-8.4-15.7-17.6s8.4-16.2 17.6-15.7 16.2 8.4 15.7 17.6-8.4 16.2-17.6 15.7z" fill="#fad91a"/><path d="m520.5 285.6-62.6 15.8s16.2 70.1 22.5 95.8c6.4 26.3 2.9 111 2.9 111h17.9l9.7-111.3z" fill="#1b173d"/><path d="m506.9 171.6s6.4 22 16.7 59.4c0 0 13.3 4.8 49.2 7.4l-1.1 11.9s-39.6 7.2-61.5-1.8-40.2-89-3.3-76.9z" fill="#ffa689"/><path d="m541.5 248.6 18.8 21.7 30.2-39.4-12.2-23.6z" fill="#4764cf"/><path d="m538.2 257.7 31.8-42.6 20.5 15.8-30.2 39.4z" fill="#5172ed"/><path d="m585.3 239.7c-.1-.7-1-.9-1.5-.5-1.1.7-2.4 2.3-5.5 2.4s-7.1-2.1-8.4-.7c0 0-6.6 8.5.1 16.9-.1 0 20.3 5.3 15.3-18.1z" fill="#ffa689"/><path d="m494.3 235.3s15.9-2.3 29-13.6c0 0-4.6-24.8-11-39.8s-16.6-28.1-33-18.3c-16.6 9.7-11.8 32.1 15 71.7z" fill="#fcd80e"/><path d="m441.1 225.3s13.6 8.6 30.8 8.6c0 0 12.7-21.8 17.6-37.4 4.9-15.5 5.8-32.1-13-35.5-18.8-3.3-29.8 16.8-35.4 64.3z" fill="#5172ed"/><path d="m511.9 292.4s-38.7-13.1-62.6 8.5c0 0 4.4 20.3 17.6 44.6 22.4 41.1 33.8 54.4 33.8 54.4s-24.4 21.7-71.3 75.9c0 0 2.9 11.1 12.4 14.6 0 0 68.8-64.9 89.6-82.2 6.8-5.7 5.4-9.9 2.7-22.4-4.6-21.3-19.6-83.8-22.2-93.4z" fill="#271f50"/><path d="m479 131.5-.8 17s13.3 11 24.3 10.5l5.1-22.6-31.1-21.1z" fill="#ffa689"/><path d="m485.4 128.5s7.1 13.2 20 17.3l2.1-9.5z" fill="#ed8a6d"/><path d="m451.3 174.6s-33.8 1.7-39.2 20.8-4.7 94-4.7 94 7.1 17 30 19.2c0 0 11.9 2.8 11.2-22.3-.7-24.9 2.7-111.7 2.7-111.7z" fill="#171032"/><path d="m432.2 178.3s-3.4 3-5.2 6.9c-6.6 14.3-4.6 52.7-7.4 55.8-2.3 2.6-6.3 3.1-10.3 4.1-1.7.5-3.6-.6-3.6-2.2 1.6-32.9-.9-60.3 26.5-64.6z" fill="#211d49"/><path d="m407.6 249.8s9.1-2.1 10.7.1c2.3 3.1 1.4 38.4-1.1 39.3-2.5 1-11.4.2-11.9-.6-1.9-2.8-3.1-37.7 2.3-38.8z" fill="#211d49"/><path d="m522 88.9s9.4 45.6-4.6 51.2c-13.9 5.6-34.3-8.6-39.3-23-4.1-12.4-3.7-41.6 43.9-28.2z" fill="#ffa689"/><path d="m508.2 96.1s3.8 9.7-3.7 12c-6.1 1.9-7.9 6.3-7.9 6.3s-1.2-9.7-7.9-10.1c-7.2-.4-6.8 9.9-.5 15 0 0 0 12.2-9.4 12.2 0 0-21.1-24.3-11.9-38.9-1.4-4.4 4.9-16.4 21.2-17.9 16.2-1.5 20.9 2.3 33.2-1.6 11.8-3.6 19.6 24.6-13.1 23z" fill="#171032"/><path d="m481.5 288.6 41.7 108.3-88.4 85" fill="none" opacity=".22" stroke="#fff" stroke-miterlimit="10" stroke-width=".5657"/><path d="m473.4 150.6s-20.8 3.8-24.1 34.8 0 119 0 119 19.5 7.5 41.5-3.2c14.2-6.9 23.3-7.3 27.1-8.2 1.6-.4 2.6-1.7 2.7-3.3 0-3.4.1-9.9.1-19.7-.1-27.5-3-74.1-14.9-106.2 0 0-20.1-12.2-32.4-13.2z" fill="#fcd80e"/><path d="m487.4 207.4c-17.3-.9-30.2 6.1-39.6 16.7-.2 36.7 1.5 80.3 1.5 80.3s11.6 4.4 27 1.6c-11-16.8-11.1-32.3-1.6-51.3 7.6-15.1 12.7-47.3 12.7-47.3z" fill="#fcd80e"/><path d="m449.2 185.4s16.5-26.8 28.5-22.3c14.8 5.6 17.8 34.2-4.4 64.2l-11.8 12.5-3 11.1s30.1-26.6 37.2-52.4-2.2-36.1-15.2-40.5c-16-5.4-23.6 4.3-33.3 17.7z" fill="#171032"/><path d="m446.5 213.1s-5.1 21.9-6.8 49.6c-1.4 23.3-1.6 52-1.7 60.5 0 1.5-.6 2.9-1.6 3.9-2.8 2.7-8.1 9.4-7.2 20.2.3 3.8 2 9 11.4 12 1.3.4 4.7 1.8 4.7-4.7 0-6.6 2.7-11 5.4-13.2s5.4 3.6 5.4 8.3 3.2 1.7 3.8-1.6.1-12.3-7-21.7c0 0-.1-1.6.8-12.9s2.8-49.4 6.8-59.2c4.1-9.8 15.7-37.6 15.7-37.6z" fill="#ffa689"/><path d="m441.1 227.5s13.6 6.4 30.8 6.4c0 0 12.7-21.8 17.6-37.4 4.9-15.5 5.8-32.1-13-35.5-18.8-3.3-29.8 19-35.4 66.5z" fill="#fcd80e"/><path d="m483.6 506.4s-5 7.2-2.5 17.7c.4 1.6 1.7 2.6 3.2 2.6h53.7c1.1 0 2-1 1.8-2.2-.4-3.1-2.9-8.4-15.6-9.9-3.5-.4-6.9-1.7-9.6-3.9-4.6-3.6-11.6-8.5-14-7.2-.1 0-7.8 4.7-17 2.9z" fill="#171032"/><path d="m478.3 144.7c-1.9.1-4.9 5.9-4.9 5.9s5.7 4.4 19.5 9.5c6.4 2.3 9.6 5.7 11.1 7.7.4.6 1.4.4 1.5-.4.4-3.1.6-8.5-2.4-11.6 0 0-19-5.2-24.8-11.1z" fill="#271f50"/><path d="m429.6 475.9s-8.7 1.1-14.9 9.9c-.9 1.3-.8 3 .1 4.1l35.7 40.2c.7.8 2.1.8 2.9-.1 2-2.3 4.3-7.7-3-18.3-2-2.9-3.3-6.3-3.5-9.8-.4-5.8-1.3-14.3-4-15.2.1-.1-8.5-2.8-13.3-10.8z" fill="#171032"/></svg>