<svg enable-background="new 0 0 200 200" viewBox="0 0 200 200" xmlns="http://www.w3.org/2000/svg"><g fill="none" stroke="#434343" stroke-linecap="round" stroke-width="4"><path clip-rule="evenodd" d="m130.7 83.7c6 0 10.8 4.9 10.8 10.8 0 6-4.9 10.8-10.8 10.8-6 0-10.8-4.9-10.8-10.8s4.8-10.8 10.8-10.8z"/><path clip-rule="evenodd" d="m99.7 89.2c6 0 10.8 4.9 10.8 10.8 0 6-4.9 10.8-10.8 10.8-6 0-10.8-4.9-10.8-10.8s4.9-10.8 10.8-10.8z"/><path clip-rule="evenodd" d="m68.8 83.7c6 0 10.8 4.9 10.8 10.8 0 6-4.9 10.8-10.8 10.8-6 0-10.8-4.9-10.8-10.8-.1-5.9 4.8-10.8 10.8-10.8"/><path d="m83.9 163.8c.2.1.4.1.6.2-.2-.1-.4-.2-.6-.2z"/><g clip-rule="evenodd"><path d="m111.8 164.7c.9-.2 1.8-.4 2.8-.6-.9.3-1.8.5-2.8.6z"/><path d="m123 161.5c1.1-.4 2.2-.9 3.3-1.4 7.1-3.2 13.5-7.6 18.9-13.1.7-.7 1.4-1.4 2.1-2.2 2.5-2.8 4.8-5.7 6.7-8.8v-2.3c0-12.7-10.4-23.1-23.1-23.1-8.4 0-15.7 4.5-19.8 11.3"/><path d="m123 161.5v.1z"/><path d="m107.9 133.8c0-4.3 1.2-8.3 3.3-11.8-3.3-1.9-7.1-2.9-11.2-2.9s-7.9 1.1-11.2 2.9c2.1 3.5 3.3 7.5 3.3 11.8v18.1c0 4.7-1.4 9.1-3.9 12.8 3.8.7 7.8 1.1 11.8 1.1s8-.4 11.8-1.1c-2.5-3.7-3.9-8.1-3.9-12.8z"/><path d="m77 161.5v.1z"/><path d="m111.2 122c-2.1 3.5-3.3 7.5-3.3 11.8v18.1c0 4.7 1.4 9.1 3.9 12.8.9-.2 1.8-.4 2.8-.6h.1c.5-.1 1-.3 1.5-.4.4-.1.9-.2 1.3-.3l4.8-1.5c.2-.1.5-.2.7-.2"/><path d="m88.8 122c-4-6.7-11.4-11.3-19.8-11.3-12.7 0-23.1 10.4-23.1 23.1v2.3c2.5 3.9 5.4 7.6 8.8 11 6.4 6.4 14 11.3 22.2 14.4"/><path d="m83.9 163.8c.2.1.4.1.6.2-.2-.1-.4-.2-.6-.2z"/><path d="m77 161.5c0 .1 0 .1 0 0v.1c1.1.4 2.2.8 3.4 1.1 1.2.4 2.3.7 3.5 1 .2.1.4.1.6.2 1.2.3 2.4.6 3.7.8 2.5-3.7 3.9-8.1 3.9-12.8v-18.1c0-4.3-1.2-8.3-3.3-11.8"/><path d="m77 161.6c2.2.8 4.5 1.5 6.9 2.1-1.2-.3-2.4-.6-3.5-1-1.2-.3-2.3-.6-3.4-1.1z"/><path d="m80.3 162.8c1.2.4 2.3.7 3.5 1-1.1-.3-2.3-.7-3.5-1z"/><path d="m165.7 102.8c0-1 .1-1.9.1-2.9 0-36.3-29.4-65.8-65.8-65.8s-65.8 29.6-65.8 65.9c0 1 0 1.9.1 2.9"/></g></g></svg>