<svg enable-background="new 0 0 898.9 610.4" viewBox="0 0 898.9 610.4" xmlns="http://www.w3.org/2000/svg" xmlns:xlink="http://www.w3.org/1999/xlink"><linearGradient id="a" gradientTransform="matrix(-1 0 0 -1 13789 12325.8584)" gradientUnits="userSpaceOnUse" x1="13711.4492" x2="12927.2939" y1="11783.4795" y2="12249.6758"><stop offset=".000518153" stop-color="#581edb"/><stop offset="1" stop-color="#3800df"/></linearGradient><path d="m148.1 48.1h681.6c22.8 0 41.3 18.5 41.3 41.3v430.1c0 22.8-18.5 41.3-41.3 41.3h-681.6c-67.4 0-122.1-54.7-122.1-122.1v-268.5c0-67.4 54.7-122.1 122.1-122.1z" fill="url(#a)"/><path d="m154 66.4h669.8c15.9 0 28.9 12.9 28.9 28.9v418.3c0 15.9-12.9 28.9-28.9 28.9h-669.8c-60.6 0-109.7-49.1-109.7-109.7v-256.7c0-60.6 49.1-109.7 109.7-109.7z" fill="none" stroke="#fff" stroke-dasharray="10.9372 10.9372" stroke-miterlimit="10" stroke-width="3.662"/><circle cx="718.1" cy="145.1" fill="#fd0" r="23.8"/><circle cx="756.6" cy="145.1" fill="#f00" r="23.8"/></svg>