<svg enable-background="new 0 0 130.1 123.2" viewBox="0 0 130.1 123.2" xmlns="http://www.w3.org/2000/svg"><g fill="#fcd815"><path d="m110 97.9-9.9-48.8c-1-4.8-5.2-8.3-10.1-8.3h-16.5v-11.1h6.9c6 0 11.5-3.1 14.6-8.2l3.7-6.1c.6-1.1-.1-2.4-1.4-2.4h-64.5c-1.2 0-2 1.4-1.4 2.4l3.7 6.1c3.1 5.1 8.6 8.2 14.6 8.2h6.9v11.1h-16.4c-4.9 0-9.1 3.5-10.1 8.3l-9.9 48.8c-1.3 6.4 3.6 12.4 10.1 12.4h69.6c6.5-.1 11.4-6 10.1-12.4zm-44.9-2c-11.3 0-20.4-9.1-20.4-20.4 0-9.6 6.6-17.6 15.4-19.8 1.6-.4 3.2-.6 4.9-.6s3.4.2 4.9.6c8.9 2.2 15.4 10.2 15.4 19.8.2 11.3-9 20.4-20.2 20.4z"/><path d="m66 72.9-1-12.1-.9 12.1c-1.1.4-1.9 1.4-1.9 2.6 0 1.6 1.3 2.8 2.8 2.8 1.6 0 2.8-1.3 2.8-2.8.1-1.2-.7-2.2-1.8-2.6z"/></g></svg>